<?xml version="1.0" encoding="utf-8"?>
<!-- Generator: Adobe Illustrator 23.0.4, SVG Export Plug-In . SVG Version: 6.00 Build 0)  -->
<svg version="1.1" id="Layer_1" xmlns="http://www.w3.org/2000/svg" xmlns:xlink="http://www.w3.org/1999/xlink" x="0px" y="0px"
	 viewBox="0 0 152 30" style="enable-background:new 0 0 152 30;" xml:space="preserve">
<style type="text/css">
	.st0{fill-rule:evenodd;clip-rule:evenodd;fill:#FFFFFF;}
	.st1{filter:url(#Adobe_OpacityMaskFilter);}
	.st2{mask:url(#mask-4_1_);fill-rule:evenodd;clip-rule:evenodd;fill:#FFFFFF;}
</style>
<title>Brand / Logo Word Mark / Default Theme</title>
<desc>Created with Sketch.</desc>
<g>
	<g id="logo---word-mark">
		<g id="Group-3" transform="translate(39.000000, 5.000000)">
			<polygon id="Fill-1" class="st0" points="0.3,0.3 10.9,0.3 10.9,3.7 4.5,3.7 4.5,7.8 9.8,7.8 9.8,11.1 4.5,11.1 4.5,18.1 
				0.3,18.1 			"/>
			<polygon id="Fill-2" class="st0" points="12,0.3 16.2,0.3 16.2,14.7 22.1,14.7 22.1,18.1 12,18.1 			"/>
			<polygon id="Fill-3" class="st0" points="23.3,0.3 27.5,0.3 27.5,18.1 23.3,18.1 			"/>
			<path id="Fill-4" class="st0" d="M33.4,3.5v5.9h0.8c2,0,3-1,3-2.9c0-1.9-1-2.9-3-2.9H33.4z M29.2,0.3h5.2c4.5,0,7,2.3,7,6.1
				c0,3.9-2.5,6.3-7,6.3h-1l0,5.5h-4.2V0.3z"/>
			<path id="Fill-6" class="st0" d="M46.7,10.5v4.4h1.6c1.8,0,2.7-0.8,2.7-2.3c0-1.4-1-2.1-2.7-2.1H46.7z M46.7,3.5v3.9h1.2
				c1.7,0,2.5-0.7,2.5-2c0-1.1-0.7-1.9-2.5-1.9H46.7z M42.5,0.3h6c4.1,0,6.1,1.7,6.1,4.7c0,1.7-0.8,3.2-3,3.7
				c2.3,0.4,3.5,2.1,3.5,4.2c0,3-2.2,5.3-6.3,5.3h-6.4L42.5,0.3z"/>
			<path id="Fill-8" class="st0" d="M62.9,14.9c1.7,0,2.7-1.7,2.7-5.7s-1-5.7-2.7-5.7c-1.7,0-2.7,1.7-2.7,5.7
				C60.2,13.2,61.3,14.9,62.9,14.9 M62.9,0c4.4,0,6.9,3.1,6.9,9.2c0,6-2.5,9.2-6.9,9.2c-4.4,0-6.9-3.1-6.9-9.2C56,3.1,58.6,0,62.9,0
				"/>
			<path id="Fill-10" class="st0" d="M76.3,4.2l-1.5,7.1h3.1L76.3,4.2L76.3,4.2z M73.8,0.3h5.3l4.6,17.8h-4.4l-0.8-3.6h-4.4
				l-0.8,3.6h-4.2L73.8,0.3z"/>
			<path id="Fill-12" class="st0" d="M88.6,3.5l0,5.1h1c1.9,0,2.8-0.9,2.8-2.6c0-1.7-0.9-2.5-2.8-2.5H88.6z M84.4,0.3h5.2
				c4.6,0,7,1.9,7,5.7c0,2.4-1.1,4.2-3.2,5.2l3.8,7h-4.5l-3.1-6.3h-1v6.3h-4.2V0.3z"/>
			<path id="Fill-14" class="st0" d="M102.6,3.7l0,11h1c2.7,0,3.7-2.6,3.7-5.5c0-3.1-1-5.5-3.7-5.5H102.6z M98.4,0.3h5.3
				c5.4,0,7.9,3.7,7.9,8.9c0,5.1-2.5,8.9-7.9,8.9h-5.3V0.3z"/>
		</g>
		<g id="Group-16" transform="translate(138.000000, 6.000000)">
			<g id="Clip-15">
			</g>
		</g>
		<g id="Group-19">
			<g id="Clip-18">
			</g>
			<defs>
				<filter id="Adobe_OpacityMaskFilter" filterUnits="userSpaceOnUse" x="0" y="0" width="30" height="30">
					<feColorMatrix  type="matrix" values="1 0 0 0 0  0 1 0 0 0  0 0 1 0 0  0 0 0 1 0"/>
				</filter>
			</defs>
			<mask maskUnits="userSpaceOnUse" x="0" y="0" width="30" height="30" id="mask-4_1_">
				<g class="st1">
					<polygon id="path-3_1_" class="st0" points="0,0 30,0 30,30 0,30 					"/>
				</g>
			</mask>
			<path id="Fill-17" class="st2" d="M24,12h-6v6h-6v6H6V6h18V12z M0,30h30V0H0V30z"/>
		</g>
	</g>
</g>
</svg>
