<?xml version="1.0" encoding="utf-8"?>
<!-- Generator: Adobe Illustrator 23.0.4, SVG Export Plug-In . SVG Version: 6.00 Build 0)  -->
<svg version="1.1" id="Layer_1" xmlns="http://www.w3.org/2000/svg" xmlns:xlink="http://www.w3.org/1999/xlink" x="0px" y="0px"
	 viewBox="0 0 275.12 78.72" style="enable-background:new 0 0 275.12 78.72;" xml:space="preserve">
<style type="text/css">
	.st0{fill:#FFFFFF;}
</style>
<g>
	<g>
		<g>
			<path class="st0" d="M0,0h9.51v17.61h18.06V0h9.51v45.56h-9.51V26.42H9.51v19.14H0V0z"/>
			<path class="st0" d="M48.62,0h9.51v45.56h-9.51V0z"/>
			<path class="st0" d="M69.67,0h16.4c3.36,0,6.14,0.32,8.33,0.96c2.19,0.64,3.92,1.51,5.2,2.62c1.28,1.11,2.16,2.4,2.65,3.89
				c0.49,1.49,0.73,3.11,0.73,4.85c0,1.79-0.38,3.47-1.15,5.04c-0.77,1.57-2.21,2.91-4.34,4.02c1.36,0.72,2.48,1.48,3.35,2.27
				c0.87,0.79,1.55,1.63,2.04,2.52c0.49,0.89,0.83,1.81,1.02,2.74c0.19,0.94,0.29,1.87,0.29,2.81c0,1.91-0.29,3.72-0.86,5.42
				c-0.57,1.7-1.53,3.17-2.87,4.4c-1.34,1.23-3.09,2.21-5.26,2.94c-2.17,0.72-4.85,1.09-8.04,1.09H69.67V0z M87.16,18.06
				c2.51,0,4.23-0.47,5.17-1.4c0.93-0.93,1.4-2.28,1.4-4.02c0-1.87-0.61-3.2-1.82-3.99c-1.21-0.79-3.26-1.18-6.16-1.18h-6.89v10.59
				H87.16z M86.84,38.09c1.57,0,2.88-0.15,3.92-0.45c1.04-0.3,1.88-0.73,2.52-1.31c0.64-0.57,1.08-1.24,1.34-2.01
				c0.26-0.77,0.38-1.64,0.38-2.62c0-1.96-0.53-3.44-1.59-4.47c-1.06-1.02-2.94-1.53-5.61-1.53h-8.93v12.38H86.84z"/>
			<path class="st0" d="M113.19,0h16.4c3.36,0,6.14,0.32,8.33,0.96c2.19,0.64,3.92,1.51,5.2,2.62c1.28,1.11,2.16,2.4,2.65,3.89
				c0.49,1.49,0.73,3.11,0.73,4.85c0,1.79-0.38,3.47-1.15,5.04c-0.77,1.57-2.21,2.91-4.34,4.02c1.36,0.72,2.48,1.48,3.35,2.27
				c0.87,0.79,1.55,1.63,2.04,2.52c0.49,0.89,0.83,1.81,1.02,2.74c0.19,0.94,0.29,1.87,0.29,2.81c0,1.91-0.29,3.72-0.86,5.42
				c-0.57,1.7-1.53,3.17-2.87,4.4c-1.34,1.23-3.09,2.21-5.26,2.94c-2.17,0.72-4.85,1.09-8.04,1.09h-17.48V0z M130.67,18.06
				c2.51,0,4.23-0.47,5.17-1.4c0.93-0.93,1.4-2.28,1.4-4.02c0-1.87-0.61-3.2-1.82-3.99c-1.21-0.79-3.26-1.18-6.16-1.18h-6.89v10.59
				H130.67z M130.35,38.09c1.57,0,2.88-0.15,3.92-0.45c1.04-0.3,1.88-0.73,2.52-1.31c0.64-0.57,1.08-1.24,1.34-2.01
				c0.26-0.77,0.38-1.64,0.38-2.62c0-1.96-0.53-3.44-1.59-4.47c-1.06-1.02-2.94-1.53-5.61-1.53h-8.93v12.38H130.35z"/>
			<path class="st0" d="M208.44,8.23h-13.72V0h37.01v8.23h-13.72v37.33h-9.57V8.23z"/>
			<path class="st0" d="M251.83,8.23h-13.72V0h37.01v8.23H261.4v37.33h-9.57V8.23z"/>
		</g>
		<path class="st0" d="M156.7,0h31.19v8.13h-21.65v9.99h20.37v8.2h-20.37v11.27l21.58,0v8.14l-31.12,0V0z"/>
	</g>
	<g>
		<g>
			<path class="st0" d="M66.26,73.68c0.08,0.53,0.29,0.93,0.62,1.2c0.34,0.28,0.85,0.42,1.53,0.42c0.56,0,0.96-0.09,1.22-0.27
				c0.26-0.18,0.39-0.44,0.39-0.78c0-0.26-0.09-0.47-0.27-0.63c-0.18-0.16-0.51-0.29-1-0.4l-1.92-0.37
				c-1.65-0.33-2.85-0.84-3.59-1.54c-0.75-0.7-1.12-1.63-1.12-2.79c0-0.75,0.14-1.41,0.42-1.99c0.28-0.57,0.69-1.06,1.21-1.45
				c0.52-0.4,1.15-0.69,1.9-0.89c0.75-0.2,1.58-0.3,2.5-0.3c1,0,1.87,0.11,2.6,0.34c0.73,0.22,1.34,0.54,1.82,0.94
				c0.48,0.4,0.84,0.87,1.1,1.4c0.25,0.53,0.4,1.09,0.46,1.7l-4.37,0.4c-0.12-0.51-0.31-0.87-0.58-1.06
				c-0.27-0.19-0.66-0.29-1.16-0.29c-0.54,0-0.93,0.09-1.17,0.26c-0.24,0.17-0.35,0.39-0.35,0.65c0,0.22,0.09,0.41,0.27,0.55
				c0.18,0.14,0.52,0.27,1.02,0.38l1.9,0.4c0.86,0.18,1.59,0.41,2.19,0.66c0.6,0.26,1.09,0.56,1.46,0.92
				c0.38,0.35,0.65,0.76,0.82,1.22c0.17,0.45,0.26,0.98,0.26,1.57c0,1.53-0.53,2.71-1.59,3.55c-1.06,0.84-2.62,1.26-4.68,1.26
				c-1.04,0-1.95-0.12-2.72-0.35c-0.77-0.23-1.41-0.56-1.93-1c-0.51-0.44-0.91-0.97-1.18-1.59c-0.27-0.63-0.43-1.33-0.49-2.1H66.26z
				"/>
			<path class="st0" d="M89.91,64.25h5.48c1.12,0,2.06,0.13,2.81,0.39c0.75,0.26,1.35,0.61,1.79,1.05c0.44,0.44,0.75,0.96,0.94,1.56
				c0.18,0.6,0.28,1.24,0.28,1.93c0,0.7-0.09,1.35-0.28,1.96c-0.19,0.61-0.5,1.13-0.94,1.57c-0.43,0.44-1.03,0.79-1.78,1.05
				c-0.75,0.26-1.68,0.39-2.79,0.39h-1.19v4.23h-4.31V64.25z M94.22,70.68h1.2c0.67,0,1.13-0.13,1.38-0.37
				c0.24-0.25,0.36-0.62,0.36-1.11c0-0.49-0.13-0.86-0.37-1.11c-0.25-0.25-0.71-0.37-1.37-0.37h-1.2V70.68z"/>
			<path class="st0" d="M123.58,78.72c-1.15,0-2.16-0.17-3.03-0.5c-0.88-0.34-1.61-0.82-2.22-1.45c-0.6-0.63-1.05-1.4-1.35-2.31
				c-0.3-0.91-0.45-1.94-0.45-3.08c0-1.15,0.15-2.18,0.45-3.09c0.3-0.91,0.76-1.7,1.37-2.35c0.61-0.65,1.36-1.15,2.25-1.5
				c0.9-0.35,1.93-0.52,3.11-0.52c1.15,0,2.16,0.17,3.03,0.5c0.88,0.34,1.61,0.82,2.22,1.45c0.6,0.63,1.05,1.4,1.35,2.3
				c0.3,0.9,0.45,1.93,0.45,3.07s-0.15,2.18-0.46,3.11c-0.31,0.93-0.77,1.72-1.37,2.36c-0.6,0.65-1.35,1.14-2.24,1.49
				C125.79,78.55,124.75,78.72,123.58,78.72z M123.64,74.87c1.65,0,2.47-1.19,2.47-3.56s-0.82-3.56-2.47-3.56
				c-1.65,0-2.47,1.19-2.47,3.56S121.99,74.87,123.64,74.87z"/>
			<path class="st0" d="M158.18,68.88c0,0.95-0.18,1.76-0.54,2.43c-0.36,0.67-0.87,1.22-1.53,1.64l2.93,5.42h-4.59l-2.25-4.53h-1.58
				v4.53h-4.23V64.25h6.06c1.08,0,1.99,0.12,2.72,0.37c0.73,0.24,1.32,0.57,1.77,0.99c0.45,0.42,0.77,0.91,0.96,1.47
				C158.09,67.64,158.18,68.24,158.18,68.88z M150.61,70.58h1.49c0.67,0,1.14-0.13,1.42-0.38c0.28-0.25,0.42-0.63,0.42-1.13
				c0-0.5-0.14-0.88-0.42-1.13c-0.28-0.25-0.76-0.38-1.42-0.38h-1.49V70.58z"/>
			<path class="st0" d="M177.18,68.11h-3.93v-3.86h12.36v3.86h-3.94v10.26h-4.49V68.11z"/>
			<path class="st0" d="M204.89,73.68c0.08,0.53,0.29,0.93,0.62,1.2c0.34,0.28,0.85,0.42,1.53,0.42c0.55,0,0.96-0.09,1.21-0.27
				c0.26-0.18,0.39-0.44,0.39-0.78c0-0.26-0.09-0.47-0.27-0.63c-0.18-0.16-0.51-0.29-1-0.4l-1.92-0.37
				c-1.65-0.33-2.84-0.84-3.59-1.54c-0.74-0.7-1.12-1.63-1.12-2.79c0-0.75,0.14-1.41,0.42-1.99c0.28-0.57,0.69-1.06,1.2-1.45
				c0.52-0.4,1.15-0.69,1.9-0.89c0.74-0.2,1.58-0.3,2.5-0.3c1,0,1.87,0.11,2.6,0.34c0.73,0.22,1.34,0.54,1.82,0.94
				c0.48,0.4,0.85,0.87,1.1,1.4c0.25,0.53,0.4,1.09,0.45,1.7l-4.37,0.4c-0.12-0.51-0.31-0.87-0.58-1.06s-0.66-0.29-1.16-0.29
				c-0.54,0-0.93,0.09-1.17,0.26c-0.24,0.17-0.36,0.39-0.36,0.65c0,0.22,0.09,0.41,0.27,0.55c0.18,0.14,0.52,0.27,1.02,0.38l1.9,0.4
				c0.86,0.18,1.59,0.41,2.18,0.66c0.6,0.26,1.09,0.56,1.46,0.92c0.38,0.35,0.65,0.76,0.82,1.22c0.17,0.45,0.26,0.98,0.26,1.57
				c0,1.53-0.53,2.71-1.59,3.55c-1.06,0.84-2.62,1.26-4.68,1.26c-1.04,0-1.95-0.12-2.72-0.35c-0.77-0.23-1.41-0.56-1.93-1
				c-0.51-0.44-0.91-0.97-1.18-1.59c-0.27-0.63-0.43-1.33-0.48-2.1H204.89z"/>
		</g>
		<g>
			<path class="st0" d="M213.58,65.76L213.58,65.76c0-0.83,0.66-1.51,1.51-1.51s1.5,0.68,1.5,1.49v0.01c0,0.82-0.66,1.5-1.51,1.5
				C214.23,67.25,213.58,66.58,213.58,65.76z M216.42,65.75L216.42,65.75c0-0.75-0.58-1.35-1.34-1.35c-0.77,0-1.35,0.61-1.35,1.35
				v0.01c0,0.74,0.58,1.34,1.34,1.34C215.84,67.1,216.42,66.49,216.42,65.75z M214.48,64.92h0.7c0.21,0,0.37,0.06,0.48,0.17
				c0.08,0.08,0.13,0.19,0.13,0.33v0.01c0,0.25-0.15,0.41-0.37,0.47l0.42,0.59h-0.36l-0.38-0.54h-0.01h-0.32v0.54h-0.3V64.92z
				 M215.16,65.69c0.19,0,0.31-0.1,0.31-0.25v-0.01c0-0.16-0.12-0.24-0.31-0.24h-0.39v0.5H215.16z"/>
		</g>
	</g>
</g>
</svg>
