<?xml version="1.0" encoding="utf-8"?>
<!-- Generator: Adobe Illustrator 23.0.4, SVG Export Plug-In . SVG Version: 6.00 Build 0)  -->
<svg version="1.1" id="Layer_1" xmlns="http://www.w3.org/2000/svg" xmlns:xlink="http://www.w3.org/1999/xlink" x="0px" y="0px"
	 viewBox="0 0 195.8 136" style="enable-background:new 0 0 195.8 136;" xml:space="preserve">
<style type="text/css">
	.st0{fill:#5E9ABB;}
	.st1{fill:#F8F7F0;}
</style>
<g>
	<path class="st0" d="M105.4,44.1c-5.1,8.9-14.6,14.5-24.8,14.5c-5.3,0-10.2-1.5-14.5-4c0.1,0,0.1,0.1,0.2,0.1l8.2,4.7l0,0
		c4.1,2.3,8.8,3.7,13.9,3.7c10.1,0,19.6-5.6,24.8-14.5L105.4,44.1L105.4,44.1"/>
	<path class="st0" d="M80.7,10.7c-9.9,0-17.9,8.3-17.9,18.6c0,8.6,5.7,15.8,13.4,17.9c-3.5-3.4-5.6-8.2-5.6-13.5
		c0-10.2,8.1-18.6,17.9-18.6c1.6,0,3.1,0.2,4.6,0.6C89.7,12.6,85.3,10.7,80.7,10.7z"/>
	<path class="st0" d="M105,13.7l-9.1,5.6l7.8,4.4l9.1-5.6c-2.7-4.4-6.4-7.8-10.7-10.2l-7-4.1C99,6.2,102.4,9.6,105,13.7z"/>
	<polygon class="st0" points="170.5,61.7 173.5,50.9 165.7,46.4 165.7,46.4 162.7,57.3 123.3,57.3 131.1,61.7 	"/>
	<polygon class="st0" points="134.2,12.2 134.2,22.2 141.9,22.2 141.9,16.6 174.3,16.6 171.3,5.8 163.6,1.3 166.6,12.2 	"/>
	<polygon class="st0" points="134.2,32.4 134.2,46.4 141.9,46.4 141.9,36.9 162.6,36.9 162.6,26.7 154.8,22.2 154.8,32.4 	"/>
	<polygon class="st0" points="41.4,61.7 41.4,5.8 33.7,1.3 33.7,57.3 22.8,57.3 30.6,61.7 	"/>
	<path class="st0" d="M93,15.8L93,15.8L93,15.8z"/>
	<path class="st0" d="M28.9,103.5H10.8v15.9h7.8V108h17.8C34.9,105.3,32.3,103.5,28.9,103.5z"/>
	<path class="st0" d="M55.8,115.9c-0.5-7.1-5-10.5-7.7-11.9l0,0l-1.9-1.1c0.9-0.8,4.2-4.1,4.2-8.9c0-5.6-3.1-10.6-7.7-13.2l-7.1-4.1
		l0,0c0,0,0,0,0,0c4.2,2.8,7.1,7.5,7.1,12.9c0,5.5-4.4,9.1-4.4,9.1s9,2.5,9.8,12.8c0.8,10.9-5.5,18.7-17.4,18.7H0l7.8,4.4h30.6
		C50.3,134.6,56.6,126.8,55.8,115.9z"/>
	<path class="st0" d="M18.5,89.4h13.9C32.1,87,29.5,85,27.1,85H10.8v10.5h7.8V89.4z"/>
	<path class="st0" d="M105.4,76.2L105.4,76.2C105.4,76.2,105.4,76.2,105.4,76.2L105.4,76.2z"/>
	<path class="st0" d="M92.2,83.7c-10,0-18.2,8.3-18.2,18.6c0,8.6,5.7,15.8,13.4,17.9c-3.5-3.4-5.7-8.1-5.7-13.4
		c0-10.2,8.1-18.6,18.2-18.6c1.6,0,3.2,0.2,4.7,0.7C101.4,85.6,97,83.7,92.2,83.7z"/>
	<path class="st0" d="M113.6,80.9c0,0-4-2.3-6.3-3.6c8.3,5.2,13.8,14.4,13.8,24.9c0,16.1-13,29.3-28.9,29.3c-5.3,0-10.3-1.5-14.6-4
		c0.1,0.1,0.2,0.1,0.2,0.1l7.1,4.1l0,0c4.4,2.7,9.5,4.2,14.9,4.2c15.9,0,28.9-13.1,28.9-29.3C128.9,95.5,122.7,85.8,113.6,80.9z"/>
	<polygon class="st0" points="144.6,130.2 131.1,130.2 138.8,134.6 152.4,134.6 165.3,117.4 159.8,109.9 	"/>
	<polyline class="st0" points="147.3,74.3 159.9,91.5 162.4,88.2 162.4,88.2 162.2,88.5 155.1,78.7 147.3,74.3 	"/>
	<polygon class="st0" points="174.3,105.2 194.1,78.7 186.3,74.3 185.8,74.3 185.8,74.3 186.3,74.3 166.6,100.7 188,130.2 
		174.6,130.2 182.3,134.6 195.8,134.6 	"/>
	<path class="st0" d="M104.7,88.8L104.7,88.8L104.7,88.8z"/>
	<polyline class="st0" points="131.1,130.2 131.1,130.2 131.1,130.2 	"/>
</g>
<g>
	<g>
		<g>
			<g>
				<rect x="22.8" y="1.3" class="st1" width="10.9" height="55.9"/>
			</g>
		</g>
		<path class="st1" d="M105.4,44.1l-9.3-5.3c-3.2,5.6-9.1,9.1-15.4,9.1c-9.9,0-17.9-8.3-17.9-18.6c0-10.2,8.1-18.6,17.9-18.6
			c6.2,0,11.8,3.2,15.1,8.6l9.1-5.6C99.7,5.1,90.6,0,80.7,0C64.9,0,52,13.1,52,29.3c0,16.1,12.9,29.3,28.7,29.3
			C90.8,58.6,100.3,53,105.4,44.1z"/>
		<polygon class="st1" points="165.7,46.4 134.2,46.4 134.2,32.4 154.8,32.4 154.8,22.2 134.2,22.2 134.2,12.2 166.6,12.2 
			163.6,1.3 123.3,1.3 123.3,57.3 162.7,57.3 		"/>
	</g>
</g>
<g>
	<g>
		<g>
			<path class="st1" d="M38.3,98.7c0,0,4.4-3.5,4.4-9.1c0-8.5-7-15.4-15.6-15.4H0v55.9h30.6c11.9,0,18.2-7.8,17.4-18.7
				C47.3,101.2,38.3,98.7,38.3,98.7z M10.8,85h16.3c2.4,0,5.2,2.1,5.3,4.7c0.2,2.9-1.2,5.8-5.3,5.8H10.8L10.8,85L10.8,85z
				 M29.1,119.5H10.8v-15.9h18.1c4.9,0,8.4,3.8,8.4,8.7C37.3,116.3,34.2,119.5,29.1,119.5z"/>
			<path class="st1" d="M92.2,72.9c-15.9,0-28.9,13.1-28.9,29.3c0,16.1,13,29.3,28.9,29.3s28.9-13.1,28.9-29.3
				C121.1,86.1,108.2,72.9,92.2,72.9z M92.2,120.8c-10,0-18.2-8.3-18.2-18.6c0-10.2,8.1-18.6,18.2-18.6c10,0,18.2,8.3,18.2,18.6
				C110.4,112.5,102.2,120.8,92.2,120.8z"/>
			<polygon class="st1" points="188,130.2 166.6,100.7 186.3,74.3 172.8,74.3 159.9,91.5 147.3,74.3 133.9,74.3 153.1,100.7 
				131.1,130.2 144.6,130.2 159.8,109.9 174.6,130.2 			"/>
		</g>
	</g>
</g>
</svg>
