<?xml version="1.0" encoding="utf-8"?>
<!-- Generator: Adobe Illustrator 24.1.0, SVG Export Plug-In . SVG Version: 6.00 Build 0)  -->
<svg version="1.1" id="Layer_1" xmlns="http://www.w3.org/2000/svg" xmlns:xlink="http://www.w3.org/1999/xlink" x="0px" y="0px"
	 viewBox="0 0 720 720" style="enable-background:new 0 0 720 720;" xml:space="preserve">
<style type="text/css">
	.st0{fill:#FFFFFF;}
</style>
<g>
	<g>
		<path class="st0" d="M97.72,360c25.69-18.3,46.22-43.39,58.93-72.62c0.35-0.81,0.7-1.62,1.03-2.44h-23.67
			c-10.41,21.26-25.76,39.96-44.7,54.37c-3.85,2.93-7.84,5.66-11.93,8.2c-5.8-3.03-11.8-5.74-17.97-8.11
			c7.09-3.64,13.87-7.9,20.26-12.76c14.86-11.31,27.24-25.56,36.35-41.71H90.46c-6.66,9.27-14.69,17.57-23.85,24.54
			c-12.87,9.79-27.66,16.73-43.29,20.37v22.05v0c9.94,1.72,19.68,4.45,29.05,8.09c-9.38,3.65-19.11,6.38-29.05,8.1v22.05
			c15.63,3.64,30.42,10.58,43.29,20.37c9.16,6.97,17.19,15.27,23.85,24.54h25.57c-9.11-16.15-21.5-30.4-36.35-41.71
			c-6.38-4.86-13.17-9.12-20.26-12.76c6.17-2.37,12.16-5.08,17.97-8.11c4.1,2.54,8.08,5.27,11.93,8.2
			c18.94,14.42,34.29,33.12,44.7,54.37h23.67c-0.34-0.81-0.68-1.63-1.03-2.44C143.94,403.39,123.41,378.3,97.72,360z"/>
		<path class="st0" d="M56.96,423.18c-10.08-7.67-21.53-13.3-33.65-16.61v28.48h46.65C66,430.74,61.66,426.76,56.96,423.18z"/>
		<path class="st0" d="M69.97,284.94H23.32v28.48c12.12-3.31,23.57-8.94,33.65-16.61C61.66,293.24,66,289.26,69.97,284.94z"/>
	</g>
	<path class="st0" d="M252.97,350.63l29.54-28.16h25.52l-31.84,29.77l36.43,45.29h-24.94l-25.63-32.3l-9.08,8.62v23.68h-20.23
		v-75.06h20.23V350.63z"/>
	<path class="st0" d="M358.45,320.17c23.91,0,43.1,17.82,43.1,39.66c0,22.18-19.19,40-43.1,40s-42.64-17.81-42.64-40
		C315.81,337.99,334.54,320.17,358.45,320.17z M358.45,383.05c12.41,0,22.18-10.58,22.18-23.22c0-12.41-9.77-22.76-22.18-22.76
		c-12.3,0-21.84,10.35-21.84,22.76C336.61,372.47,346.15,383.05,358.45,383.05z"/>
	<path class="st0" d="M493.47,322.42l-34.83,75.06h-16.67l-34.83-75.06h22.41l20.69,50.23h0.69l20.8-50.23H493.47z"/>
	<path class="st0" d="M508.85,397.47v-75.06h20.11v75.06H508.85z"/>
	<path class="st0" d="M545.53,322.42h69.65v16.9h-24.71v58.16h-20.11v-58.16h-24.83V322.42z"/>
	<path class="st0" d="M696.68,397.47h-67.93v-11.38l38.96-46.78h-36.78v-16.9h65.75v11.38l-38.85,46.78h38.85V397.47z"/>
</g>
</svg>
