<?xml version="1.0" encoding="utf-8"?>
<!-- Generator: Adobe Illustrator 25.1.0, SVG Export Plug-In . SVG Version: 6.00 Build 0)  -->
<svg version="1.1" id="Layer_1" xmlns="http://www.w3.org/2000/svg" xmlns:xlink="http://www.w3.org/1999/xlink" x="0px" y="0px"
	 viewBox="0 0 53.01 31.98" style="enable-background:new 0 0 53.01 31.98;" xml:space="preserve">
<style type="text/css">
	.st0{fill:#FFFFFF;}
	.st1{fill:#F37321;stroke:#F37321;stroke-width:0.0203;}
	.st2{fill:#571C00;}
	.st3{fill:#F37321;}
	.st4{fill:#FFF200;}
</style>
<g>
	<g>
		<g>
			<path class="st0" d="M0.74,16.98c0.01,0,0.04-0.02,2.56-0.02c4.34,0,13.6-0.1,22.94-0.1v0.01l12.75,0.12
				c13.35,0,13.36,0.01,13.38,0.01c0.38-0.02,0.64-0.96,0.64-1.38c0-0.72-1.06-2.33-2.88-4.18c-2.12-2.16-4.85-4.29-7.58-5.91
				c-4.25-2.52-10-4.3-15.68-4.34V1.2l-0.44,0l-0.01,0c-5.75,0-11.68,1.74-15.87,4.31c-2.71,1.66-5.41,3.71-7.53,5.87
				c-1.81,1.85-3.05,3.48-3.03,4.2C0.02,16.11,0.27,16.97,0.74,16.98z M26.54,1.62c5.67,0,11.07,1.5,15.66,4.25
				c6.37,3.82,10.24,8.67,10.24,9.7c0,0.45-0.16,0.82-0.24,0.87c-0.28,0-5.08,0-14.28,0l-11.41,0v-0.01l-0.14,0
				c-9.42,0-18.82,0.01-23.21,0.01c-1.58,0-2.13-0.01-2.24-0.01c-0.08-0.05-0.34-0.38-0.33-0.84c0-1.04,3.77-5.92,10.03-9.73
				c4.57-2.78,9.99-4.25,15.66-4.25l0.03,0v0.01L26.54,1.62z"/>
			<path class="st0" d="M52.39,16.96c-0.02,0-0.13-0.04-6.19-0.04c-4.84,0-12.49,0.29-19.64,0.29V17.2l-0.31-0.33
				c-8.38,0-16.71,0.07-21.49,0.07c-4,0-4,0-4.01,0c-0.69,0.02-0.71,1.13-0.71,1.54c0,0.7,1.19,2.3,2.96,4.1
				c2.09,2.13,4.68,4.24,7.37,5.87c1.14,0.69,2.4,1.28,3.65,1.81l0.09,0.04l0.07-0.07c0.04-0.04,0.08-0.08,0.12-0.12l0.16-0.14
				l-0.19-0.08c-1.26-0.53-2.48-1.16-3.63-1.86c-3.54-2.15-6.09-4.52-7.3-5.74c-1.94-1.97-2.83-3.38-2.83-3.86
				c0-0.45,0.16-0.81,0.24-0.86c0.14,0,1.47,0,3.95,0c4.74,0,13.09,0,21.46,0v0.01l9.52,0c4.59,0,8.74,0,11.74,0
				c1.16,0,4.66,0,4.9,0c0.08,0.05,0.24,0.41,0.24,0.86c0,0.48-0.89,1.89-2.83,3.86c-1.2,1.22-3.75,3.59-7.3,5.74
				c-1,0.61-2.05,1.16-3.14,1.64l-0.22,0.1l0.2,0.14c0.05,0.03,0.1,0.07,0.14,0.11l0.06,0.05l0.08-0.03
				c1.07-0.48,2.11-1.02,3.09-1.62c2.69-1.63,5.32-3.7,7.41-5.83c1.77-1.8,2.94-3.39,2.94-4.09C52.98,18.1,52.86,16.98,52.39,16.96z
				"/>
		</g>
		<g>
			<path class="st1" d="M46.04,8.49c-0.06-0.03-0.12-0.07-0.18-0.11c-0.35-0.29-0.74-0.54-1.11-0.81c-0.34-0.25-0.74-0.41-1.03-0.71
				c-0.03-0.01-0.06-0.03-0.09-0.05c-0.34-0.24-0.69-0.45-1.04-0.66c-0.21-0.12-0.45-0.22-0.65-0.36c-0.1-0.08-0.2-0.17-0.32-0.21
				c-0.13-0.05-0.23-0.12-0.3-0.2c-0.06-0.01-0.11-0.03-0.17-0.06c-0.25-0.12-0.47-0.28-0.72-0.4c-0.28-0.13-0.53-0.24-0.8-0.37
				c-0.02-0.01-0.04-0.02-0.06-0.04c-0.04-0.01-0.07-0.03-0.11-0.06c-0.01,0-0.01,0-0.02,0c0,0,0.01,0,0.01,0.01
				c0,0-0.01,0-0.01-0.01c-0.01,0-0.02,0-0.03-0.01c-0.06-0.02-0.11-0.04-0.16-0.07c-0.05-0.02-0.1-0.04-0.15-0.07
				c-0.12-0.05-0.25-0.09-0.37-0.14c-0.19-0.08-0.37-0.15-0.54-0.24c-0.18-0.06-0.35-0.13-0.52-0.21c-0.25-0.07-0.5-0.16-0.74-0.27
				c-0.13-0.03-0.27-0.07-0.4-0.11c-0.3-0.1-0.6-0.23-0.91-0.33c-0.55-0.18-1.11-0.25-1.67-0.37C33.3,2.47,32.65,2.3,32,2.14
				c-0.45,0-0.9-0.06-1.32-0.18c-0.16-0.02-0.32-0.04-0.49-0.05c-1.11-0.07-2.21-0.19-3.32-0.2c-0.08,0-0.15,0-0.23-0.01
				c-0.16,0.02-0.33,0.03-0.49,0.03C26.1,1.72,26.05,1.72,26,1.71c-0.01,0-0.01,0-0.02,0c-0.05,0-0.1,0-0.14,0
				c-0.24,0-0.48,0-0.72,0.01c-0.29,0.05-0.59,0.07-0.89,0.06c-0.07,0-0.13,0-0.2-0.01c-0.01,0-0.02,0-0.03,0
				c-0.28,0.05-0.57,0.08-0.87,0.08h-0.11c0,0-0.01,0-0.01,0c-0.1,0.01-0.2,0.02-0.29,0.03c-0.3,0.04-0.6,0.07-0.9,0.1
				c-0.07,0.02-0.13,0.04-0.2,0.06c-0.38,0.14-0.78,0.2-1.2,0.21c-0.08,0.03-0.16,0.05-0.24,0.05h0c0,0,0,0,0,0
				c-0.25,0.08-0.51,0.14-0.77,0.17c-0.05,0.02-0.11,0.04-0.16,0.06c-0.22,0.07-0.45,0.13-0.67,0.16c-0.03,0.01-0.06,0.02-0.09,0.03
				c-0.1,0.02-0.21,0.03-0.31,0.05c0,0-0.01,0-0.01,0.01c-0.09,0.04-0.18,0.09-0.28,0.1c-0.05,0.01-0.1,0.02-0.15,0.02
				C17.6,2.95,17.49,2.99,17.37,3c-0.27,0.1-0.55,0.2-0.84,0.26c-0.02,0.01-0.05,0.01-0.07,0.01c-0.31,0.14-0.63,0.26-0.95,0.34
				c-0.07,0.05-0.14,0.09-0.23,0.11c-0.05,0.01-0.07,0.01-0.07,0.01c-0.01,0.01-0.02,0.01-0.04,0.02c-0.04,0.02-0.09,0.05-0.13,0.07
				c-0.12,0.06-0.25,0.13-0.38,0.16c-0.02,0-0.26,0.09-0.11,0.02c-0.07,0.04-0.15,0.07-0.23,0.1c-0.02,0.01-0.04,0.01-0.06,0.02
				c-0.06,0.04-0.13,0.08-0.21,0.09c-0.2,0.04-0.42,0.17-0.61,0.26c-0.22,0.12-0.45,0.21-0.64,0.31c-0.06,0.03-0.12,0.06-0.18,0.07
				c-0.05,0.04-0.11,0.07-0.18,0.1c-0.09,0.06-0.18,0.12-0.28,0.17c-0.18,0.08-0.2,0.13-0.39,0.22c-0.04,0.02-0.07,0.03-0.1,0.04
				c-0.02,0.02-0.06,0.05-0.11,0.09c-0.05,0.04-0.1,0.07-0.16,0.09c-0.07,0.03-0.13,0.05-0.2,0.07c0,0,0,0.01-0.01,0.01
				C11.1,5.72,11,5.79,10.88,5.83c-0.02,0.01-0.04,0.02-0.06,0.03c-0.44,0.24-0.9,0.52-1.32,0.8C9.3,6.8,9.1,6.95,8.9,7.09
				c-0.12,0.09-0.2,0.15-0.34,0.2c0,0,0,0-0.01,0C8.52,7.31,8.49,7.33,8.46,7.35c-4.7,3.34-7.86,7.14-7.86,8.18
				c0,0.5,0.2,0.99,0.36,1c0.08,0,12.77,0,25.5,0v0.01c12.76,0,25.5,0,25.58,0c0.16-0.01,0.36-0.5,0.36-1
				C52.39,14.6,49.89,11.51,46.04,8.49z"/>
			<path class="st1" d="M52.04,17.31c-0.08,0-12.77,0-25.5,0V17.3c-12.76,0-25.5-0.01-25.58,0c-0.16,0.01-0.36,0.5-0.36,1
				c0,1.2,4.25,6.1,10.2,9.71c1.03,0.63,2.07,1.16,3.09,1.62c0.47-0.76,1.2-1.36,2.11-1.58c2.01-0.51,4.11-0.6,6.18-0.58
				c1.8,0.01,3.61-0.02,5.41-0.04c1.87-0.01,3.72,0.11,5.59,0.16c1.77,0.05,3.69,0.06,5.34,0.76c0.58,0.24,1.09,0.49,1.51,0.86
				c0.72-0.35,1.44-0.75,2.16-1.18c5.95-3.61,10.2-8.51,10.2-9.71C52.4,17.81,52.21,17.32,52.04,17.31z"/>
		</g>
		<g>
			<path class="st2" d="M39.3,3.14c-0.13-0.04-0.7,0.09-0.85,0.04c-0.15-0.04-0.26-0.51-0.47-0.58c-0.21-0.06-0.66,0.17-0.85,0.11
				c-0.19-0.06-0.4-0.56-0.58-0.62c-0.21-0.07-0.61,0.18-0.81,0.13c-0.19-0.05-0.43-0.55-0.66-0.6c-0.22-0.05-0.64,0.28-0.86,0.21
				c-0.21-0.06-0.51-0.61-0.7-0.64c-0.22-0.03-0.61,0.28-0.83,0.26c-0.19-0.02-0.47-0.54-0.73-0.58c-0.26-0.04-0.78,0.29-0.98,0.28
				c-0.21-0.01-0.52-0.51-0.77-0.53c-0.28-0.03-0.77,0.36-0.94,0.34c-0.17-0.02-0.71-0.51-0.95-0.51c-0.26,0-0.7,0.4-0.87,0.4
				c-0.17,0-0.74-0.46-0.94-0.45c-0.23,0.01-0.77,0.49-0.94,0.49c-0.17,0-0.65-0.45-0.89-0.43c-0.22,0.02-0.7,0.49-0.85,0.52
				c-0.19,0.03-0.69-0.43-0.97-0.39c-0.27,0.04-0.65,0.56-0.84,0.59c-0.15,0.03-0.69-0.38-0.92-0.34c-0.22,0.04-0.6,0.58-0.73,0.62
				c-0.13,0.04-0.75-0.32-0.92-0.28c-0.17,0.04-0.43,0.6-0.64,0.64c-0.21,0.04-0.6-0.27-0.83-0.23c-0.23,0.04-0.38,0.47-0.58,0.53
				C17.21,2.2,16.77,1.96,16.6,2c-0.17,0.04-0.58,0.68-0.73,0.73c-0.15,0.04-0.68-0.19-0.83-0.15c-0.15,0.04-0.34,0.53-0.47,0.6
				c-0.13,0.06-0.77-0.09-0.88-0.04c-0.11,0.04-0.23,0.19-0.17,0.26c0.04,0.04,0.37,0.34,0.62,0.56c0.06-0.02,0.12-0.04,0.18-0.05
				c-0.01-0.1,0.03-0.21,0.16-0.28c0.38-0.2,0.8-0.18,1.2-0.3c0.43-0.12,0.75-0.41,1.16-0.58c0.9-0.37,1.88-0.66,2.85-0.79
				c1.9-0.26,3.84-0.6,5.76-0.63c0.1,0,0.17,0.03,0.22,0.09c0.05-0.06,0.13-0.11,0.24-0.1c1.15,0.02,2.29,0.1,3.44,0.16
				c0.99,0.05,2.02,0.06,2.98,0.34c0.99,0.28,1.99,0.53,2.99,0.78c0.81,0.2,1.73,0.42,2.46,0.84c0.12,0.07,0.16,0.17,0.15,0.27
				c0.22,0.02,0.44,0.05,0.64,0.12c0.14,0.05,0.25,0.12,0.37,0.19c0.25-0.2,0.63-0.5,0.63-0.55C39.55,3.37,39.43,3.18,39.3,3.14z"/>
			<path class="st0" d="M15.68,3.33c0.2-0.06,0.38-0.15,0.55-0.25c-0.38,0.12-0.71,0.24-0.99,0.34C15.39,3.39,15.53,3.37,15.68,3.33
				z"/>
			<path class="st0" d="M39.42,2.75c-0.06-0.02-0.13-0.03-0.21-0.03c-0.11,0-0.24,0.02-0.38,0.03c-0.07,0.01-0.15,0.02-0.21,0.02
				c-0.01-0.01-0.02-0.03-0.02-0.04c-0.1-0.19-0.24-0.44-0.51-0.52c-0.06-0.02-0.13-0.03-0.2-0.03c-0.15,0-0.31,0.04-0.46,0.08
				c-0.05,0.01-0.12,0.03-0.17,0.04c-0.04-0.04-0.08-0.11-0.11-0.15c-0.13-0.18-0.26-0.38-0.47-0.45c-0.07-0.02-0.14-0.04-0.22-0.04
				c-0.16,0-0.32,0.05-0.46,0.09c-0.04,0.01-0.1,0.03-0.14,0.04c-0.03-0.04-0.08-0.09-0.11-0.13c-0.15-0.19-0.32-0.4-0.57-0.45
				c-0.04-0.01-0.09-0.02-0.14-0.02c-0.18,0-0.36,0.07-0.53,0.15c-0.05,0.02-0.12,0.05-0.17,0.07c-0.05-0.05-0.11-0.12-0.15-0.17
				c-0.18-0.22-0.35-0.42-0.6-0.46c-0.03,0-0.06-0.01-0.09-0.01c-0.19,0-0.38,0.08-0.55,0.17c-0.05,0.02-0.12,0.05-0.17,0.07
				c-0.03-0.03-0.07-0.07-0.1-0.11c-0.17-0.19-0.37-0.4-0.65-0.45c-0.03-0.01-0.07-0.01-0.11-0.01c-0.22,0-0.45,0.09-0.67,0.18
				c-0.06,0.03-0.15,0.06-0.21,0.08c-0.04-0.03-0.09-0.08-0.13-0.12c-0.18-0.17-0.38-0.36-0.65-0.39c-0.03,0-0.05,0-0.08,0
				c-0.25,0-0.51,0.13-0.73,0.25c-0.04,0.02-0.1,0.05-0.14,0.07c-0.06-0.03-0.13-0.08-0.18-0.12c-0.33-0.22-0.56-0.37-0.8-0.37
				c-0.26,0-0.51,0.16-0.73,0.29c-0.04,0.03-0.1,0.06-0.14,0.09c-0.06-0.03-0.15-0.09-0.21-0.13C26.92,0.11,26.72,0,26.51,0l-0.02,0
				c-0.22,0.01-0.42,0.13-0.73,0.34c-0.06,0.04-0.14,0.09-0.2,0.13c-0.05-0.03-0.1-0.06-0.14-0.09c-0.24-0.15-0.48-0.31-0.73-0.31
				c-0.02,0-0.03,0-0.05,0c-0.23,0.02-0.44,0.17-0.74,0.39c-0.04,0.03-0.09,0.07-0.13,0.1c-0.05-0.03-0.11-0.06-0.15-0.08
				c-0.22-0.13-0.48-0.28-0.73-0.28c-0.03,0-0.07,0-0.1,0.01c-0.27,0.04-0.49,0.25-0.71,0.44C22.05,0.67,22,0.72,21.96,0.75
				c-0.04-0.02-0.09-0.05-0.13-0.07c-0.23-0.12-0.47-0.24-0.69-0.24c-0.04,0-0.08,0-0.11,0.01c-0.26,0.05-0.48,0.28-0.69,0.51
				c-0.02,0.02-0.05,0.05-0.07,0.07c-0.05-0.02-0.11-0.04-0.16-0.06c-0.27-0.11-0.45-0.18-0.62-0.18c-0.05,0-0.09,0.01-0.13,0.02
				C19.14,0.86,19,1.04,18.85,1.24c-0.04,0.05-0.09,0.12-0.13,0.17c-0.04-0.02-0.1-0.04-0.14-0.06c-0.17-0.07-0.35-0.16-0.55-0.16
				c-0.04,0-0.07,0-0.11,0.01c-0.28,0.05-0.45,0.27-0.58,0.44c-0.02,0.03-0.05,0.06-0.07,0.09c-0.06-0.01-0.14-0.04-0.2-0.05
				c-0.15-0.04-0.29-0.08-0.43-0.08c-0.05,0-0.1,0.01-0.15,0.02c-0.21,0.05-0.36,0.22-0.6,0.52c-0.05,0.06-0.11,0.13-0.16,0.18
				c-0.06-0.01-0.13-0.03-0.18-0.05c-0.24-0.07-0.46-0.12-0.64-0.07c-0.23,0.07-0.36,0.28-0.5,0.5c-0.02,0.03-0.04,0.06-0.06,0.09
				c-0.07-0.01-0.17-0.02-0.25-0.03c-0.14-0.02-0.27-0.03-0.36-0.03c-0.08,0-0.15,0.01-0.21,0.04c-0.17,0.07-0.38,0.25-0.43,0.49
				c-0.03,0.16,0.01,0.32,0.12,0.43c0.04,0.04,0.21,0.29,0.44,0.5c0.16-0.13,0.44-0.23,0.65-0.28c-0.01-0.09,0.02-0.17,0.1-0.24
				c-0.03-0.02-0.05-0.05-0.08-0.07c0.08,0.01,0.15,0.01,0.22,0c0.08-0.04,0.17-0.07,0.26-0.09c0.13-0.09,0.21-0.23,0.31-0.39
				c0.02-0.03,0.05-0.08,0.07-0.11c0.05,0.01,0.11,0.03,0.16,0.04c0.24,0.07,0.46,0.12,0.64,0.07c0.18-0.05,0.31-0.2,0.54-0.47
				c0.06-0.07,0.14-0.17,0.2-0.23c0.04,0.01,0.1,0.03,0.14,0.04c0.16,0.05,0.32,0.09,0.48,0.09c0.02,0,0.04,0,0.05,0
				c0.1-0.04,0.21-0.07,0.31-0.11c0.12-0.08,0.21-0.2,0.29-0.31c0.03-0.03,0.06-0.08,0.09-0.12c0.05,0.02,0.13,0.05,0.17,0.07
				c0.08,0.04,0.17,0.08,0.26,0.11c0.24-0.06,0.49-0.12,0.74-0.16c0.09-0.09,0.17-0.2,0.25-0.3c0.02-0.03,0.05-0.07,0.08-0.1
				c0.07,0.03,0.16,0.06,0.23,0.09c0.21,0.09,0.35,0.15,0.49,0.16c0.08-0.01,0.16-0.02,0.24-0.03c0.13-0.05,0.24-0.16,0.39-0.32
				c0.07-0.07,0.18-0.19,0.25-0.25c0.08,0.03,0.21,0.1,0.29,0.14c0.21,0.11,0.37,0.19,0.54,0.19c0.03,0,0.06,0,0.09-0.01
				c0.19-0.04,0.35-0.18,0.53-0.35C22.7,1.16,22.84,1.04,22.91,1c0.08,0.02,0.23,0.11,0.31,0.16c0.21,0.12,0.39,0.22,0.58,0.22
				c0.03,0,0.06,0,0.09-0.01c0.16-0.03,0.29-0.13,0.49-0.28c0.08-0.06,0.22-0.17,0.31-0.22c0.08,0.04,0.21,0.12,0.29,0.17
				c0.22,0.14,0.39,0.25,0.58,0.25c0.2,0,0.38-0.12,0.64-0.29c0.09-0.06,0.23-0.15,0.31-0.19c0.08,0.04,0.21,0.12,0.3,0.17
				c0.28,0.17,0.45,0.26,0.63,0.26c0.19,0,0.36-0.11,0.56-0.23c0.08-0.05,0.22-0.14,0.3-0.17c0.09,0.04,0.26,0.16,0.36,0.22
				c0.22,0.15,0.38,0.26,0.55,0.28c0.02,0,0.04,0,0.06,0c0.18,0,0.34-0.09,0.54-0.19c0.09-0.05,0.25-0.13,0.33-0.15
				c0.05,0.04,0.14,0.12,0.2,0.17c0.18,0.17,0.36,0.34,0.6,0.36c0.01,0,0.03,0,0.04,0c0.17,0,0.35-0.07,0.56-0.16
				c0.1-0.04,0.26-0.11,0.34-0.12c0.05,0.04,0.14,0.13,0.19,0.19c0.16,0.18,0.33,0.36,0.57,0.38c0.02,0,0.04,0,0.06,0
				c0.2,0,0.38-0.09,0.56-0.17c0.05-0.02,0.11-0.05,0.16-0.07c0.04,0.05,0.1,0.11,0.14,0.16c0.17,0.2,0.32,0.38,0.54,0.45
				c0.06,0.02,0.12,0.03,0.18,0.03c0.19,0,0.36-0.07,0.53-0.15c0.05-0.02,0.12-0.05,0.17-0.07c0.04,0.04,0.1,0.11,0.14,0.16
				c0.15,0.18,0.3,0.36,0.52,0.42c0.05,0.01,0.1,0.02,0.15,0.02c0.15,0,0.3-0.05,0.44-0.09c0.05-0.01,0.11-0.04,0.17-0.05
				c0.03,0.04,0.07,0.09,0.1,0.13c0.11,0.16,0.22,0.31,0.38,0.41c0.07,0.03,0.14,0.05,0.21,0.08c0.04,0.01,0.08,0.01,0.12,0.01
				c0.14,0,0.29-0.04,0.43-0.08c0.06-0.02,0.14-0.04,0.19-0.05c0.02,0.04,0.05,0.09,0.07,0.13C38,3.3,38.1,3.5,38.33,3.56
				c0.06,0.02,0.12,0.02,0.2,0.02c0.09,0,0.2-0.01,0.31-0.02c-0.06,0.05-0.13,0.1-0.2,0.16c-0.22-0.09-0.61-0.25-1.14-0.43
				c0.09,0.04,0.18,0.09,0.26,0.14c0.12,0.07,0.16,0.17,0.15,0.27c0.22,0.02,0.44,0.05,0.64,0.12c0.28,0.1,0.53,0.28,0.76,0.45
				c0.62-0.53,0.64-0.64,0.64-0.81C39.96,3.18,39.7,2.85,39.42,2.75z"/>
		</g>
		<path class="st2" d="M42.26,5.86C37.7,3.14,32.31,1.7,26.67,1.69V1.68l-0.3,0l-0.01,0c-5.66,0-11.07,1.45-15.63,4.18
			C4.7,9.46,0.47,14.29,0.47,15.54c0,0.45,0.17,1.11,0.49,1.12c0.01,0,0.03,0,2.52,0c4.31,0,13.55,0,22.83-0.01v0.01l12.43,0
			c13.21,0,13.26,0,13.28,0c0.32-0.01,0.49-0.67,0.49-1.12C52.51,14.29,48.28,9.46,42.26,5.86z M52.02,16.49
			c-0.08,0-12.82,0-25.57,0v-0.01c-12.73,0-25.41,0.01-25.49,0C0.8,16.49,0.61,16,0.61,15.51c0-1.18,4.24-6.01,10.19-9.56
			c6.09-3.64,12.15-4.16,15.56-4.16c0.05,0,0.11,0,0.17,0V1.8c0.03,0,0.06,0,0.09,0c3.42,0,9.47,0.51,15.56,4.15
			c5.95,3.56,10.19,8.38,10.19,9.56C52.38,16,52.18,16.49,52.02,16.49z"/>
		<path class="st2" d="M52.03,17.2c-0.01,0-0.05,0-6.11,0c-4.87,0-12.04,0-19.24,0v-0.01h-0.14c-8.38,0-16.75,0-21.53,0
			c-4,0-4.03,0-4.04,0c-0.32,0.01-0.49,0.68-0.49,1.14c0,1.27,4.23,6.18,10.26,9.83c1.15,0.7,2.35,1.31,3.59,1.84
			c0.04-0.04,0.08-0.08,0.13-0.12c-1.2-0.51-2.42-1.12-3.64-1.86C4.87,24.4,0.63,19.5,0.63,18.3c0-0.5,0.19-0.99,0.36-1
			c0.08,0,12.81,0,25.56,0v0.01c12.72,0,25.31-0.01,25.48,0c0.16,0.01,0.36,0.5,0.36,1c0,1.2-4.24,6.1-10.19,9.71
			c-1.06,0.64-2.11,1.19-3.15,1.65c0.05,0.04,0.1,0.07,0.15,0.11c1.06-0.48,2.09-1.02,3.08-1.62c6.02-3.66,10.25-8.57,10.26-9.83
			C52.52,17.88,52.34,17.21,52.03,17.2z"/>
		<path class="st2" d="M14.19,4.19c0,0-0.62-0.74-0.69-0.8c-0.06-0.06,0.06-0.21,0.17-0.26c0.11-0.04,0.75,0.11,0.88,0.04
			c0.13-0.06,0.32-0.56,0.47-0.6c0.15-0.04,0.68,0.19,0.83,0.15C16,2.69,16.41,2.05,16.58,2c0.17-0.04,0.62,0.19,0.81,0.13
			c0.19-0.06,0.35-0.5,0.58-0.53c0.23-0.04,0.62,0.28,0.83,0.23c0.21-0.04,0.47-0.6,0.64-0.64c0.17-0.04,0.79,0.32,0.92,0.28
			c0.13-0.04,0.5-0.58,0.73-0.62c0.22-0.04,0.77,0.37,0.92,0.34c0.18-0.04,0.57-0.55,0.84-0.59c0.28-0.04,0.79,0.42,0.97,0.39
			c0.15-0.03,0.62-0.5,0.85-0.52c0.24-0.02,0.72,0.43,0.89,0.43c0.17,0,0.71-0.48,0.94-0.49c0.2-0.01,0.77,0.45,0.94,0.45
			c0.17,0,0.61-0.4,0.87-0.4c0.24,0,0.78,0.49,0.95,0.51c0.17,0.02,0.66-0.37,0.94-0.34c0.25,0.03,0.56,0.52,0.77,0.53
			c0.21,0.01,0.73-0.32,0.98-0.28c0.26,0.04,0.53,0.56,0.73,0.58c0.22,0.02,0.62-0.29,0.83-0.26c0.2,0.03,0.49,0.58,0.7,0.64
			c0.21,0.06,0.64-0.26,0.86-0.21c0.22,0.05,0.47,0.55,0.66,0.6c0.2,0.05,0.6-0.2,0.81-0.13c0.18,0.06,0.38,0.56,0.58,0.62
			c0.19,0.06,0.64-0.17,0.85-0.11c0.21,0.06,0.32,0.53,0.47,0.58c0.15,0.04,0.73-0.09,0.85-0.04c0.13,0.04,0.26,0.23,0.26,0.32
			c0,0.09-0.7,0.77-0.7,0.77S33.49,1.78,26.4,1.78C19.58,1.78,14.19,4.19,14.19,4.19z"/>
		<path class="st2" d="M40.49,14.7l1.12,0.3c0.53,0.14,1.07,0.29,1.62,0.45l0.79,0.23v2.08l-0.01,1.47c0,0-0.21-0.06-0.29-0.09
			c0,0.24,0,4.47,0,4.58c0.12,0.04,1.86,0.58,1.86,0.58l0.01,4.32c0,0-6.8,1.45-6.8,1.45l-0.65,0.13l-0.08,0.01l-0.03-0.08
			c0-0.01-0.28-0.65-3.11-1.2l-0.3,2.08l-2.09,0.51c0,0-0.89-1.25-2.14-1.53c-0.7-0.16-2.07-0.35-3.82-0.35
			c-1.75,0.01-3.12,0.2-3.82,0.35c-1.25,0.28-2.14,1.53-2.14,1.53l-2.09-0.51l-0.31-2.09c-2.89,0.56-3.17,1.21-3.18,1.22l-0.03,0.08
			l-7.49-1.6l0-10.84l0.01-0.02c0,0,0.58-1.29,0.58-1.29l0.2-0.46c0,0,1.52-0.46,1.56-0.47c0,0,0.01-0.01,0.01-0.01l0.2-0.06
			c0,0,0.15-0.05,0.15-0.05s0.01,0,0.01,0c0.03-0.01,2.15-0.59,2.15-0.59l0.04,0.03c0,0,0.3,0.26,0.3,0.27
			c0.01,0.01,0.64,0.63,2.6,0.88c0.01,0,0.94,0.1,1.44,0.02c0.05-0.01,5.2-0.81,9.83-0.81c3.62,0,8.35,0.57,9.57,0.76
			c0.48,0.08,1.39-0.04,1.4-0.05C37.53,15.97,39.7,15.82,40.49,14.7z"/>
		<path class="st3" d="M45.08,24.61c0,0-1.7-0.53-1.86-0.58c0-0.17,0-5.38,0-5.69c0.07,0.02,0.3,0.09,0.3,0.09l0-0.76V16l-0.41-0.12
			c-0.54-0.16-1.08-0.31-1.6-0.45l-0.71-0.19c0,0,0,1.88,0,2.16c-0.99-0.25-6.43-1.57-12.93-1.69c0-0.01-0.28-0.01-0.28-0.01
			c-0.97-0.02-1.96-0.01-2.94,0.03l-0.43,0.01c0,0-0.01,0-0.03,0.01c0,0,0-0.01,0-0.01l-0.33,0.02c-0.64,0.03-1.28,0.07-1.92,0.12
			l-0.28,0.02c0,0,0,0.01-0.01,0.01c-0.1,0.01-0.62,0.05-0.62,0.05c0,0-0.12,0.01-0.12,0.01c-0.53,0.05-1.07,0.11-1.62,0.17
			l-0.5,0.06c0,0,0,0.01,0,0.01c-0.42,0.05-0.86,0.12-1.3,0.18l-0.31,0.05c0,0-0.33,0.06-0.33,0.06c-2.53,0.41-4.26,0.87-4.78,1.01
			c0-0.28,0-2.11,0-2.11l-1.7,0.47c-0.01,0-0.15,0.04-0.15,0.04c0,0-0.18,0.05-0.18,0.05c0,0.01-1.29,0.4-1.29,0.4l-0.06,0.02
			l-0.1,0.24c0,0-0.53,1.18-0.53,1.18l-0.01,0.02v4.28l1.17,0.87l0.28-0.09c0,0,0.27-0.08,0.45-0.14v1.14
			c-0.1,0.03-0.51,0.16-0.51,0.16c0,0-1.4,0.44-1.4,0.44l0,0.42v3.03l1.83-0.58c0,0,0.12-0.04,0.12-0.04l1.28-0.37
			c0,0,0.26-0.06,0.26-0.06c0,0,0.56-0.14,0.56-0.14c0.71-0.18,1.45-0.36,2.2-0.52c4.12-0.88,8.24-1.32,12.23-1.32
			c5.99,0,11.23,1.02,14.57,1.87l0.09,0.02c1.04,0.28,2.09,0.59,3.12,0.92l0.74,0.24L45.08,24.61z M10.06,23.87L10.06,23.87l0.03,0
			C10.09,23.87,10.08,23.87,10.06,23.87z M14.43,29.47c0,0,0.14-3.89,10.42-4.36c0,0-9.58,0.15-15.17,3.35L14.43,29.47z
			 M38.67,29.47l4.75-1.01c-5.59-3.2-15.17-3.35-15.17-3.35C38.53,25.58,38.67,29.47,38.67,29.47z M12.39,15.33v1.8
			c0,0,1.07-0.31,2.9-0.68C12.86,16.13,12.39,15.33,12.39,15.33z M40.49,15.19c0,0-0.47,0.8-2.9,1.11c1.83,0.37,2.9,0.68,2.9,0.68
			V15.19z"/>
		<path class="st0" d="M45.98,24.01c0,0-1.45-0.46-1.86-0.58c0-0.45,0-2.97,0-3.75c0.14,0.04,0.29,0.08,0.29,0.08l0.01-2v-2.38
			l-1.08-0.32c0,0-1.63-0.45-1.63-0.45l-1.39-0.37l-0.16,0.23c-0.56,0.79-2.11,1.06-2.66,1.1l-0.01,0l-0.02,0
			c-0.22,0.03-0.94,0.1-1.28,0.05c-1.23-0.2-5.99-0.77-9.63-0.77c-4.63,0-9.85,0.81-9.9,0.81c-0.36,0.06-1.08,0-1.32-0.03
			c-1.75-0.23-2.36-0.77-2.36-0.77c-0.01-0.01-0.31-0.28-0.31-0.28c0,0-0.2-0.18-0.2-0.18l-2.36,0.65l-0.02,0L9.94,15.1l0.11-0.02
			l-0.33,0.08l0,0.01L7.99,15.7l-0.27,0.63l-0.58,1.28c0,0-0.04,0.1-0.04,0.1l0,11.25l8.16,1.74c0,0,0.13-0.35,0.13-0.36
			c0.08-0.18,0.54-0.51,2.47-0.92c0.07,0.58,0.29,1.93,0.29,1.93l2.63,0.64l0.16-0.22c0.01-0.01,0.82-1.13,1.9-1.37
			c0.73-0.16,2.09-0.34,3.74-0.34c1.65,0.01,3.01,0.18,3.73,0.34c1.08,0.24,1.89,1.36,1.9,1.37l0.16,0.22l0.27-0.06l2.36-0.58
			c0,0,0.21-1.34,0.28-1.92c1.87,0.41,2.34,0.78,2.4,0.91c0.01,0.01,0.13,0.34,0.13,0.34l0.4-0.06c0.02,0,0.67-0.13,0.67-0.13
			c0.01,0,7.12-1.52,7.12-1.52L45.98,24.01z M38.79,30.07l-0.65,0.13l-0.08,0.01l-0.03-0.08c0-0.01-0.28-0.65-3.11-1.2l-0.3,2.08
			l-2.09,0.51c0,0-0.89-1.25-2.14-1.53c-0.7-0.16-2.07-0.35-3.82-0.35c-1.75,0.01-3.12,0.2-3.82,0.35
			c-1.25,0.28-2.14,1.53-2.14,1.53l-2.09-0.51l-0.31-2.09c-2.89,0.56-3.17,1.21-3.18,1.22l-0.03,0.08l-7.49-1.6l0-10.84l0.01-0.02
			c0,0,0.58-1.29,0.58-1.29l0.2-0.46c0,0,1.52-0.46,1.56-0.47c0,0,0.01-0.01,0.01-0.01l0.2-0.06c0,0,0.15-0.05,0.15-0.05
			s0.01,0,0.01,0c0.03-0.01,2.15-0.59,2.15-0.59l0.04,0.03c0,0,0.3,0.26,0.3,0.27c0.01,0.01,0.64,0.63,2.6,0.88
			c0.01,0,0.94,0.1,1.44,0.02c0.05-0.01,5.2-0.81,9.83-0.81c3.62,0,8.35,0.57,9.57,0.76c0.48,0.08,1.39-0.04,1.4-0.05
			c0,0,2.16-0.15,2.96-1.27l1.12,0.3c0.53,0.14,1.07,0.29,1.62,0.45l0.79,0.23v2.08l-0.01,1.47c0,0-0.21-0.06-0.29-0.09
			c0,0.24,0,4.47,0,4.58c0.12,0.04,1.86,0.58,1.86,0.58l0.01,4.32C45.58,28.63,38.79,30.07,38.79,30.07z"/>
		<g>
			<path class="st3" d="M20.5,31.11c0,0,0.78-1.28,2.81-1.64c0,0-2.26,0.2-3.95,1.36L20.5,31.11z M26.56,26.13
				c-5.38,0-7.98,1.74-7.98,1.74l0.35,2.72c1.52-0.74,4.05-1.41,7.63-1.41c3.58,0,6.11,0.67,7.63,1.41l0.35-2.72
				C34.54,27.87,31.94,26.13,26.56,26.13z M32.62,31.11l1.14-0.28c-1.69-1.16-3.95-1.36-3.95-1.36
				C31.83,29.83,32.62,31.11,32.62,31.11z"/>
		</g>
		<path class="st2" d="M41.25,19.09l-0.02-1.13l-2.04-0.49l0,0.24c0,0,0,1.07,0,1.11c-0.02-0.08-0.28-1.21-0.28-1.21l-0.17,0.84
			c0,0-0.17,0.72-0.34,1.44c-0.03-0.61-0.06-1.02-0.07-1.23c0,0,0.23,0.05,0.23,0.05l0-0.23l0.02-1.14l-1.96-0.38l0,0.23l0,1.14
			c0,0,0.24,0.05,0.32,0.06c0.02,0.28,0.54,7.16,0.54,7.16l1.16,0.23l0.03-0.2c0,0,0.26-1.8,0.28-1.99c0.2,0.99,0.47,2.36,0.47,2.36
			l1.07,0.25l0.02-0.22c0,0,0.39-6.35,0.42-6.73c0.04,0.01,0.33,0.08,0.33,0.08L41.25,19.09z M39.37,18.87c0,0,0.09,0.02,0.17,0.04
			c-0.01,0.18-0.03,0.67-0.05,1.15c-0.14-0.61-0.22-0.95-0.28-1.23C39.22,18.84,39.37,18.87,39.37,18.87z M40.75,19.01
			c-0.14,2.32-0.29,4.64-0.43,6.96c-0.25-0.06-0.49-0.12-0.74-0.17c-0.22-1.11-0.44-2.22-0.67-3.33c-0.15,1.03-0.29,2.06-0.44,3.09
			c-0.27-0.06-0.55-0.11-0.82-0.17c-0.18-2.39-0.36-4.78-0.54-7.16c-0.1-0.02-0.21-0.04-0.31-0.06c0-0.33,0-0.66,0-0.98
			c0.53,0.09,1.05,0.2,1.58,0.31c0,0.33-0.01,0.65-0.01,0.98c-0.08-0.02-0.17-0.03-0.25-0.05c0.05,0.92,0.11,1.84,0.16,2.77
			l0.64-2.69l0.69,2.98c0.04-0.9,0.08-1.8,0.11-2.71c-0.11-0.03-0.23-0.05-0.34-0.08c0-0.33,0-0.66,0-0.99
			c0.55,0.13,1.11,0.26,1.66,0.4c0.01,0.33,0.01,0.66,0.02,0.99C40.96,19.06,40.86,19.04,40.75,19.01z M21.09,23.4
			c0-0.38,0-5.45,0-5.76c0.06-0.01,0.3-0.03,0.3-0.03l0-0.18l-0.03-1.16l-1.98,0.21l0,0.17v1.18c0,0,0.28-0.04,0.33-0.04
			c0,0.37,0,5.46,0,5.76c-0.08,0.01-0.34,0.04-0.34,0.04l0,0.17v1.17l2.03-0.22l0-0.17l-0.01-1.16
			C21.41,23.37,21.14,23.4,21.09,23.4z M19.58,24.72v-0.96c0.11-0.01,0.22-0.03,0.34-0.04c0-2.05,0-4.09,0-6.14
			c-0.11,0.01-0.22,0.03-0.34,0.04v-0.96c0.53-0.06,1.07-0.12,1.61-0.17c0.01,0.32,0.02,0.64,0.03,0.95
			c-0.1,0.01-0.2,0.02-0.31,0.03c0,2.05,0,4.09-0.01,6.14c0.11-0.01,0.21-0.02,0.32-0.03c0,0.32,0.01,0.64,0.01,0.96
			C20.68,24.59,20.13,24.65,19.58,24.72z M14.04,23.94c0,0,0,0.42,0,0.61c-0.14,0.03-0.31,0.07-0.5,0.12c0-0.37,0-2.09,0-2.33
			c0.18-0.05,0.72-0.18,0.72-0.18l0-0.15l0.01-1.2c0,0-0.51,0.12-0.73,0.17v-2.06c0.14-0.03,0.3-0.07,0.5-0.11c0,0.15,0,0.54,0,0.54
			l0.23-0.04l1.2-0.25l0-0.15v-1.74l-0.23,0.04c-1.1,0.22-2.21,0.47-3.3,0.76l-0.14,0.04v1.34c0,0,0.31-0.08,0.37-0.09v5.75
			c-0.11,0.03-0.37,0.1-0.37,0.1l0,0.15v1.2l0.24-0.06c1.09-0.28,2.19-0.53,3.28-0.75l0.15-0.03v-2.11l-1.43,0.3L14.04,23.94z
			 M14.23,23.94c0.35-0.08,0.7-0.15,1.05-0.22v1.72c-1.1,0.22-2.2,0.47-3.29,0.75v-0.96c0.12-0.03,0.25-0.06,0.37-0.1V19
			c-0.12,0.03-0.25,0.06-0.37,0.09v-0.96c1.09-0.28,2.19-0.54,3.29-0.76v1.51c-0.35,0.07-0.7,0.15-1.05,0.22c0-0.18,0-0.37,0-0.55
			c-0.29,0.06-0.59,0.13-0.88,0.2v2.45c0.24-0.06,0.48-0.11,0.73-0.17c0,0.32,0,0.64-0.01,0.97c-0.24,0.06-0.48,0.12-0.73,0.18
			c0,0.91,0,1.81,0,2.72c0.29-0.07,0.59-0.14,0.88-0.2V23.94z M10.35,16.32c-0.01-0.01-0.02-0.03-0.02-0.03l-1.33,0.4l-0.03,0.08
			l-0.51,1.13v4l0.86,0.64l0.09-0.03c0,0,0.64-0.2,0.94-0.29v2.95c-0.14,0.04-0.32,0.1-0.53,0.16c0-0.28,0-1.01,0-1.01l-1.37,0.43
			l0,0.14v2.51c0,0,1.36-0.43,1.37-0.43c0.02-0.01,1.29-0.37,1.29-0.37l0.04-0.07l0.57-1.09v-4.26l-0.22-0.27l-0.43-0.53l-0.12,0.04
			c0,0-0.79,0.23-1.12,0.33c0-0.4,0-2.43,0-2.67c0.13-0.04,0.32-0.1,0.53-0.16c0,0.26,0,0.89,0,0.89l1.36-0.38l0-0.14v-2.38
			l-1.36,0.38C10.35,16.29,10.35,16.31,10.35,16.32z M10.54,16.43c0.33-0.09,0.65-0.18,0.98-0.27v2.13
			c-0.33,0.09-0.65,0.18-0.98,0.28v-0.9c-0.3,0.09-0.61,0.18-0.91,0.27c0,1.02,0,2.04,0,3.06c0.45-0.14,0.9-0.27,1.36-0.4
			c0.18,0.22,0.35,0.44,0.53,0.66v4.14c-0.18,0.35-0.36,0.7-0.55,1.05c-0.37,0.1-0.74,0.21-1.11,0.32
			c-0.08-0.09-0.15-0.17-0.23-0.26c0,0.11,0,0.22,0,0.33c-0.33,0.1-0.66,0.21-0.99,0.31V24.9c0.33-0.11,0.66-0.21,0.99-0.31
			c0,0.34,0,0.67,0,1.01c0.3-0.09,0.61-0.18,0.91-0.27v-3.35c-0.4,0.12-0.8,0.24-1.19,0.37c-0.24-0.18-0.47-0.35-0.71-0.53v-3.87
			c0.16-0.37,0.33-0.73,0.49-1.09c0.37-0.12,0.75-0.23,1.13-0.34c0.09,0.12,0.19,0.24,0.28,0.36V16.43z M17.48,16.77l0,0.16
			l0.01,1.15c0,0,0.12-0.02,0.17-0.03c0,0.21,0,0.53,0,0.97c-0.25-0.99-0.55-2.2-0.55-2.2l-1.5,0.27l0,0.16v1.16
			c0,0,0.23-0.04,0.23-0.04c0,0.35,0,5.46,0,5.76c-0.04,0.01-0.23,0.04-0.23,0.04l0,0.16l0,1.21l1.83-0.32l0-0.16v-1.22
			c0,0-0.23,0.04-0.23,0.04c0-0.28,0-0.99,0-1.07c0.32,0.97,0.77,2.32,0.77,2.32l1.06-0.15l0-0.16c0,0,0-6.55,0-6.93
			c0,0,0.22,0.01,0.22,0.01l0.01-1.39l-0.22,0.03L17.48,16.77z M19.09,17.71c-0.07,0-0.14-0.01-0.22-0.01v7.13
			c-0.25,0.03-0.49,0.07-0.74,0.11c-0.36-1.09-0.73-2.18-1.09-3.27c0,0.82,0,1.64,0,2.46c0.08-0.01,0.15-0.03,0.23-0.04v0.99
			c-0.49,0.08-0.97,0.16-1.46,0.26c0-0.33,0-0.65,0-0.98c0.08-0.01,0.16-0.03,0.23-0.04c0-2.05,0-4.09,0-6.14
			c-0.08,0.01-0.15,0.03-0.23,0.04v-0.93c0.39-0.07,0.78-0.14,1.17-0.21c0.29,1.17,0.59,2.35,0.88,3.52c0-0.91,0-1.82,0-2.73
			c-0.06,0.01-0.11,0.02-0.17,0.03c0-0.31,0-0.62,0-0.93c0.47-0.07,0.95-0.14,1.42-0.2C19.09,17.06,19.09,17.39,19.09,17.71z
			 M44.7,24.89l-1.39-0.44v0.26c0,0,0,0.6,0,0.63c-0.19-0.06-0.33-0.1-0.46-0.14c0-0.25,0-6.91,0-7.36c0.01,0,0.3,0.09,0.3,0.09
			v-1.64l-1.97-0.55l0,0.25v1.4c0,0,0.23,0.06,0.31,0.08c0,0.27,0,6.91,0,7.37c-0.03-0.01-0.31-0.08-0.31-0.08l0,1.65l0.14,0.04
			c1.05,0.28,2.11,0.59,3.14,0.93l0.25,0.08L44.7,24.89z M41.37,26.24c0-0.42,0-0.84,0-1.25c0.1,0.03,0.21,0.06,0.31,0.08
			c0-2.59,0-5.17,0-7.76c-0.1-0.03-0.21-0.05-0.31-0.08v-1.25c0.53,0.14,1.06,0.29,1.59,0.44v1.25c-0.1-0.03-0.2-0.06-0.3-0.09
			c0,2.59,0,5.17,0,7.76c0.28,0.08,0.56,0.16,0.84,0.25c0-0.29,0-0.59,0.01-0.88c0.34,0.1,0.68,0.21,1.02,0.32c0,0.71,0,1.43,0,2.14
			C43.47,26.83,42.42,26.52,41.37,26.24z M31.03,23.46c0.27,0.02,0.53,0.04,0.8,0.07v-2.5c-0.27-0.02-0.53-0.04-0.8-0.07V23.46z
			 M31.22,21.17c0.16,0.01,0.28,0.02,0.42,0.03v2.11c-0.16-0.01-0.28-0.02-0.42-0.03V21.17z M32.89,20.67
			c0.06-0.09,0.17-0.26,0.17-0.26l0-0.06v-3.36l-0.58-0.69l-0.08-0.01c-0.87-0.09-1.76-0.15-2.65-0.2l-0.2-0.01l-0.01,1.34
			c0,0,0.25,0.02,0.29,0.02c0,0.24-0.01,5.4-0.01,5.76c-0.04,0-0.3-0.02-0.3-0.02l0,0.21l0.01,1.13l0.18,0.01
			c0.86,0.04,1.74,0.11,2.6,0.19l0.09,0.01l0.65-0.66l0-0.08l-0.01-3.01C33.06,20.98,32.92,20.73,32.89,20.67z M32.34,24.53
			c-0.87-0.08-1.74-0.15-2.61-0.19c0-0.32,0-0.64-0.01-0.96c0.1,0.01,0.2,0.01,0.3,0.02c0-2.05,0.01-4.09,0.01-6.14
			c-0.1-0.01-0.19-0.01-0.29-0.02c0-0.32,0-0.64,0.01-0.96c0.88,0.05,1.76,0.11,2.64,0.2c0.16,0.19,0.32,0.38,0.48,0.58v3.3
			c-0.07,0.1-0.14,0.21-0.21,0.31c0.07,0.12,0.14,0.25,0.2,0.37c0,0.99,0,1.97,0.01,2.96C32.7,24.17,32.52,24.35,32.34,24.53z
			 M28.08,20.82c0.09-0.1,0.57-0.62,0.57-0.62l0-0.07l0-3.08l-0.02-0.04l-0.46-0.98l-0.12,0c-0.97-0.02-1.95-0.01-2.92,0.03
			l-0.18,0.01v1.37c0,0,0.32-0.01,0.42-0.02v5.69c-0.11,0-0.41,0.01-0.41,0.01l0,0.18v1.18l2.09-0.04l0-0.19c0,0,0-1.06,0-1.11
			c0.06,0.5,0.15,1.3,0.15,1.3l1.45,0.02l0-0.19l0-1.18c0,0-0.27-0.01-0.35-0.01C28.28,22.81,28.1,20.97,28.08,20.82z M28.47,24.27
			c-0.36-0.01-0.73-0.01-1.09-0.02c-0.14-1.18-0.28-2.35-0.42-3.53c-0.13,0-0.26,0-0.4,0c-0.01,0.85-0.01,1.69-0.02,2.53
			c0.11,0,0.22,0,0.32,0v0.99c-0.57,0-1.14,0.01-1.71,0.03v-0.99c0.14-0.01,0.28-0.01,0.41-0.01v-6.07
			c-0.14,0.01-0.28,0.01-0.42,0.02v-0.99c0.97-0.03,1.94-0.04,2.91-0.03c0.14,0.29,0.27,0.58,0.41,0.88c0,1.01,0,2.02,0,3.03
			c-0.19,0.21-0.39,0.42-0.58,0.63c0.09,0.84,0.17,1.68,0.26,2.52c0.11,0,0.22,0,0.33,0.01C28.47,23.61,28.47,23.94,28.47,24.27z
			 M27.05,23.08c-0.02,0-0.25,0-0.31,0c0-0.23,0.01-1.86,0.02-2.16c0.02,0,0.02,0,0.04,0C26.81,21.12,26.93,22.11,27.05,23.08z
			 M34.46,23.83c0.28,0.04,0.56,0.08,0.85,0.12c0-2.03,0-4.06,0.01-6.1c-0.28-0.04-0.57-0.08-0.85-0.11V23.83z M34.65,17.96
			c0.18,0.02,0.33,0.04,0.47,0.06c0,0.3,0,5.32,0,5.71c-0.18-0.03-0.32-0.05-0.47-0.07V17.96z M31.03,19.98
			c0.27,0.02,0.53,0.04,0.8,0.07v-2.66c-0.27-0.02-0.53-0.05-0.8-0.07V19.98z M31.22,17.52c0.16,0.01,0.28,0.02,0.42,0.03v2.28
			c-0.16-0.01-0.28-0.02-0.42-0.03V17.52z M24.25,16.08l-0.11,0.01c-0.63,0.03-1.27,0.07-1.9,0.12l-0.09,0.01l-0.59,0.91l-0.01,6.83
			l0.53,0.71l0.1-0.01c0.67-0.05,1.36-0.1,2.06-0.13l0.1,0l0.48-0.75l-0.01-6.83L24.25,16.08z M24.23,24.33
			c-0.69,0.03-1.38,0.08-2.06,0.13c-0.14-0.19-0.29-0.38-0.43-0.58c0-2.24,0.01-4.48,0.01-6.71c0.17-0.26,0.34-0.52,0.51-0.78
			c0.63-0.05,1.26-0.09,1.9-0.12c0.16,0.24,0.31,0.48,0.47,0.72c0,2.24,0,4.48,0.01,6.72C24.5,23.91,24.36,24.12,24.23,24.33z
			 M22.76,23.43c0.28-0.02,0.57-0.04,0.85-0.05c0-2.03,0-4.07,0.01-6.1c-0.29,0.02-0.57,0.04-0.86,0.07V23.43z M22.95,17.52
			c0.15-0.01,0.3-0.02,0.48-0.04c0,0.31,0,5.39,0,5.71c-0.16,0.01-0.3,0.02-0.47,0.03V17.52z M35.96,16.78l-0.09-0.01
			c-0.63-0.1-1.26-0.19-1.89-0.27l-0.11-0.01l-0.61,0.81l-0.01,6.83l0.51,0.79l0.09,0.01c0.68,0.09,1.37,0.18,2.05,0.29l0.12,0.02
			l0.49-0.68l0-0.06l-0.01-6.77L35.96,16.78z M35.92,25.03c-0.68-0.11-1.37-0.21-2.05-0.29c-0.14-0.22-0.29-0.44-0.43-0.67
			c0-2.24,0.01-4.47,0.01-6.71c0.17-0.23,0.34-0.45,0.51-0.68c0.63,0.08,1.26,0.17,1.89,0.27c0.15,0.27,0.31,0.54,0.46,0.82
			c0,2.24,0,4.48,0.01,6.72C36.18,24.67,36.05,24.85,35.92,25.03z M26.56,19.73c0.3,0,0.59,0,0.89,0v-2.54c-0.3,0-0.59,0-0.89,0
			V19.73z M26.75,17.38c0.17,0,0.34,0,0.51,0v2.16c-0.17,0-0.34,0-0.51,0V17.38z"/>
		<path class="st0" d="M20.9,23.61c0-2.05,0-4.09,0.01-6.14c0.1-0.01,0.2-0.02,0.31-0.03c-0.01-0.32-0.02-0.64-0.03-0.95
			c-0.54,0.05-1.07,0.11-1.61,0.17v0.96c0.11-0.01,0.22-0.03,0.34-0.04c0,2.05,0,4.09,0,6.14c-0.11,0.01-0.23,0.03-0.34,0.04v0.96
			c0.55-0.07,1.1-0.13,1.65-0.18c0-0.32-0.01-0.64-0.01-0.96C21.12,23.59,21.01,23.6,20.9,23.61z M24.15,16.27
			c-0.63,0.03-1.27,0.07-1.9,0.12c-0.17,0.26-0.34,0.52-0.51,0.78c0,2.24-0.01,4.48-0.01,6.71c0.14,0.19,0.29,0.38,0.43,0.58
			c0.69-0.06,1.38-0.1,2.06-0.13c0.13-0.21,0.26-0.41,0.39-0.62c0-2.24,0-4.48-0.01-6.72C24.47,16.75,24.31,16.51,24.15,16.27z
			 M23.61,23.37c-0.28,0.02-0.57,0.03-0.85,0.05v-6.08c0.29-0.02,0.57-0.05,0.86-0.07C23.62,19.31,23.61,21.34,23.61,23.37z
			 M17.68,17.87c0.06-0.01,0.11-0.02,0.17-0.03c0,0.91,0,1.82,0,2.73c-0.29-1.18-0.59-2.35-0.88-3.52
			c-0.39,0.07-0.78,0.14-1.17,0.21v0.93c0.08-0.01,0.15-0.03,0.23-0.04c0,2.05,0,4.09,0,6.14c-0.08,0.01-0.16,0.03-0.23,0.04
			c0,0.33,0,0.65,0,0.98c0.48-0.09,0.97-0.18,1.46-0.26v-0.99c-0.08,0.01-0.15,0.03-0.23,0.04c0-0.82,0-1.64,0-2.46
			c0.36,1.09,0.73,2.17,1.09,3.27c0.25-0.04,0.49-0.07,0.74-0.11V17.7c0.07,0,0.14,0.01,0.22,0.01c0-0.32,0.01-0.65,0.01-0.97
			c-0.47,0.06-0.95,0.13-1.42,0.2C17.67,17.25,17.68,17.56,17.68,17.87z M14.23,24.7c-0.29,0.07-0.59,0.13-0.88,0.2
			c0-0.91,0-1.81,0-2.72c0.24-0.06,0.48-0.12,0.73-0.18c0-0.32,0-0.64,0.01-0.97c-0.24,0.05-0.48,0.11-0.73,0.17v-2.45
			c0.29-0.07,0.59-0.13,0.88-0.2c0,0.18,0,0.37,0,0.55c0.35-0.08,0.7-0.15,1.05-0.22v-1.51c-1.1,0.22-2.2,0.47-3.29,0.76v0.96
			c0.12-0.03,0.25-0.06,0.37-0.09v6.14c-0.12,0.03-0.25,0.06-0.37,0.1v0.96c1.09-0.28,2.19-0.53,3.29-0.75v-1.72
			c-0.35,0.07-0.7,0.14-1.05,0.22V24.7z M10.54,16.87c-0.09-0.12-0.19-0.24-0.28-0.36c-0.38,0.11-0.75,0.22-1.13,0.34
			c-0.16,0.36-0.33,0.73-0.49,1.09v3.87c0.24,0.18,0.47,0.35,0.71,0.53c0.4-0.13,0.79-0.25,1.19-0.37v3.35
			c-0.3,0.09-0.61,0.18-0.91,0.27c0-0.34,0-0.67,0-1.01c-0.33,0.1-0.66,0.21-0.99,0.31v2.25c0.33-0.11,0.66-0.21,0.99-0.31
			c0-0.11,0-0.22,0-0.33c0.08,0.09,0.15,0.17,0.23,0.26c0.37-0.11,0.74-0.22,1.11-0.32c0.18-0.35,0.36-0.7,0.55-1.05v-4.14
			c-0.18-0.22-0.35-0.44-0.53-0.66c-0.45,0.13-0.91,0.26-1.36,0.4c0-1.02,0-2.04,0-3.06c0.3-0.09,0.61-0.18,0.91-0.27v0.9
			c0.33-0.09,0.65-0.19,0.98-0.28v-2.13c-0.33,0.09-0.65,0.18-0.98,0.27V16.87z M44.51,25.03c-0.34-0.11-0.68-0.22-1.02-0.32
			c0,0.29,0,0.59-0.01,0.88c-0.28-0.09-0.56-0.17-0.84-0.25c0-2.59,0-5.17,0-7.76c0.1,0.03,0.2,0.06,0.3,0.09v-1.25
			c-0.53-0.15-1.06-0.3-1.59-0.44v1.25c0.1,0.03,0.2,0.05,0.31,0.08c0,2.59,0,5.17,0,7.76c-0.1-0.03-0.21-0.06-0.31-0.08
			c0,0.42,0,0.84,0,1.25c1.06,0.28,2.11,0.59,3.15,0.93C44.51,26.46,44.51,25.74,44.51,25.03z M39.39,17.7c0,0.33,0,0.66,0,0.99
			c0.11,0.03,0.23,0.05,0.34,0.08c-0.04,0.9-0.08,1.81-0.11,2.71l-0.69-2.98l-0.64,2.69c-0.05-0.92-0.1-1.84-0.16-2.77
			c0.08,0.02,0.17,0.03,0.25,0.05c0-0.33,0.01-0.65,0.01-0.98c-0.53-0.11-1.05-0.21-1.58-0.31c0,0.33,0,0.66,0,0.98
			c0.1,0.02,0.21,0.04,0.31,0.06c0.18,2.39,0.36,4.78,0.54,7.16c0.27,0.05,0.55,0.11,0.82,0.17c0.15-1.03,0.29-2.06,0.44-3.09
			c0.22,1.11,0.44,2.22,0.67,3.33c0.25,0.06,0.49,0.11,0.74,0.17c0.14-2.32,0.29-4.64,0.43-6.96c0.11,0.03,0.21,0.05,0.31,0.08
			c-0.01-0.33-0.01-0.66-0.02-0.99C40.5,17.96,39.95,17.82,39.39,17.7z M35.84,16.96c-0.63-0.1-1.26-0.19-1.89-0.27
			c-0.17,0.23-0.34,0.45-0.51,0.68c0,2.24-0.01,4.47-0.01,6.71c0.14,0.22,0.29,0.44,0.43,0.67c0.69,0.09,1.37,0.18,2.05,0.29
			c0.13-0.18,0.26-0.36,0.39-0.54c0-2.24,0-4.48-0.01-6.72C36.15,17.5,36,17.23,35.84,16.96z M35.31,23.95
			c-0.28-0.04-0.56-0.08-0.85-0.12v-6.08c0.28,0.03,0.57,0.07,0.85,0.11C35.31,19.88,35.31,21.92,35.31,23.95z M27.89,20.75
			c0.19-0.21,0.39-0.42,0.58-0.63c0-1.01,0-2.02,0-3.03c-0.14-0.29-0.27-0.59-0.41-0.88c-0.97-0.02-1.94-0.01-2.91,0.03v0.99
			c0.14-0.01,0.28-0.01,0.42-0.02v6.07c-0.14,0-0.28,0.01-0.41,0.01v0.99c0.57-0.02,1.14-0.03,1.71-0.03v-0.99
			c-0.11,0-0.22,0-0.32,0c0.01-0.85,0.01-1.69,0.02-2.53c0.13,0,0.27,0,0.4,0c0.14,1.18,0.28,2.35,0.42,3.53
			c0.36,0,0.73,0.01,1.09,0.02c0-0.33,0-0.66,0-0.99c-0.11,0-0.22-0.01-0.33-0.01C28.06,22.43,27.97,21.59,27.89,20.75z
			 M27.45,19.73c-0.3,0-0.59,0-0.89,0v-2.54c0.3,0,0.59,0,0.89,0V19.73z M32.67,20.66c0.07-0.1,0.14-0.21,0.21-0.31v-3.3
			c-0.16-0.19-0.32-0.39-0.48-0.58c-0.88-0.09-1.76-0.15-2.64-0.2c0,0.32,0,0.64-0.01,0.96c0.1,0.01,0.19,0.01,0.29,0.02
			c0,2.05-0.01,4.09-0.01,6.14c-0.1-0.01-0.2-0.01-0.3-0.02c0,0.32,0,0.64,0.01,0.96c0.87,0.04,1.74,0.11,2.61,0.19
			c0.18-0.18,0.35-0.36,0.53-0.54c0-0.99,0-1.97-0.01-2.96C32.8,20.9,32.73,20.78,32.67,20.66z M31.83,23.53
			c-0.27-0.02-0.53-0.05-0.8-0.07v-2.5c0.27,0.02,0.53,0.04,0.8,0.07V23.53z M31.83,20.05c-0.27-0.02-0.53-0.04-0.8-0.07v-2.66
			c0.27,0.02,0.53,0.04,0.8,0.07V20.05z"/>
		<g>
			<g>
				<path class="st2" d="M20.81,28.96c-0.04,0-0.07-0.02-0.08-0.03c-0.03-0.03-0.03-0.08-0.03-0.1l0-0.79
					c0-0.09,0.04-0.14,0.12-0.16c0.09-0.03,0.19-0.05,0.28-0.08c0.02-0.01,0.05-0.01,0.07-0.01c0.07,0,0.14,0.05,0.19,0.13
					c0.04,0.07,0.09,0.18,0.15,0.27c0.06-0.13,0.13-0.28,0.17-0.37c0.07-0.17,0.15-0.2,0.22-0.21c0.1-0.02,0.2-0.04,0.29-0.06
					c0.06-0.01,0.1,0.01,0.12,0.03c0.03,0.04,0.03,0.08,0.03,0.1l0,0.79c0,0.11-0.06,0.14-0.12,0.16l-0.16,0.03
					c-0.06,0.01-0.1-0.01-0.12-0.03c-0.03-0.03-0.03-0.08-0.03-0.1l0-0.21c-0.03,0.07-0.07,0.14-0.1,0.2
					c-0.04,0.08-0.07,0.14-0.09,0.18l-0.02,0.04l-0.04,0.01c-0.08,0.02-0.17,0.04-0.25,0.06l-0.06,0.02l-0.03-0.05
					c-0.03-0.05-0.1-0.17-0.18-0.3v0.28c0,0.09-0.04,0.14-0.11,0.16c-0.04,0.01-0.09,0.02-0.13,0.04l-0.03,0.01
					C20.84,28.96,20.82,28.96,20.81,28.96L20.81,28.96z M20.86,28.04v0.74c0.03-0.01,0.07-0.02,0.1-0.03v-0.74
					C20.93,28.02,20.9,28.03,20.86,28.04L20.86,28.04z M21.03,28l0.09,0.14c0.1,0.16,0.24,0.38,0.31,0.49
					c0.05-0.01,0.1-0.03,0.15-0.04c0.02-0.04,0.04-0.09,0.07-0.15c0.08-0.16,0.18-0.37,0.26-0.53l0.16,0.04v0.53l0.1-0.02v-0.74
					c-0.08,0.02-0.15,0.03-0.23,0.05c-0.04,0.01-0.07,0.01-0.11,0.12c-0.01,0.03-0.15,0.35-0.24,0.52l-0.06,0.12l-0.08-0.11
					c-0.07-0.1-0.18-0.3-0.24-0.41c-0.02-0.04-0.04-0.05-0.04-0.05c-0.01,0-0.01,0-0.02,0.01C21.1,27.98,21.07,27.99,21.03,28
					L21.03,28z"/>
			</g>
			<g>
				<path class="st2" d="M22.73,28.52c-0.07,0-0.14-0.02-0.18-0.07c-0.1-0.1-0.1-0.28-0.1-0.42l0-0.05c0-0.17,0-0.48,0.39-0.56
					c0.2-0.04,0.4-0.07,0.6-0.1c0.15-0.02,0.25,0.01,0.32,0.08c0.1,0.1,0.1,0.26,0.1,0.37l0,0.03l0,0.02c0,0.18,0,0.52-0.33,0.57
					c-0.24,0.03-0.48,0.07-0.71,0.12C22.77,28.52,22.75,28.52,22.73,28.52L22.73,28.52z M23.52,27.48c-0.02,0-0.04,0-0.06,0
					c-0.2,0.03-0.4,0.06-0.6,0.1c-0.23,0.04-0.25,0.19-0.25,0.39l0,0.05c0,0.1,0,0.25,0.05,0.3c0.01,0.01,0.05,0.03,0.11,0.02
					c0.24-0.04,0.48-0.08,0.72-0.12c0.18-0.03,0.19-0.18,0.19-0.41l0-0.03l0-0.03c0-0.09,0-0.2-0.05-0.26
					C23.61,27.49,23.57,27.48,23.52,27.48L23.52,27.48z M22.94,28.25L22.94,28.25c-0.06,0-0.1-0.03-0.12-0.05
					c-0.06-0.06-0.06-0.16-0.06-0.24l0-0.02l0-0.02c0-0.08-0.01-0.27,0.23-0.31c0.1-0.02,0.2-0.03,0.3-0.05
					c0.09-0.01,0.15,0,0.2,0.05c0.06,0.06,0.06,0.14,0.06,0.21l0,0.02c0,0.11,0,0.31-0.2,0.34c-0.12,0.02-0.24,0.04-0.35,0.06
					C22.97,28.25,22.95,28.25,22.94,28.25L22.94,28.25z M23.34,27.73c-0.01,0-0.02,0-0.03,0c-0.1,0.02-0.2,0.03-0.3,0.05
					c-0.09,0.01-0.09,0.05-0.09,0.14l0,0.03l0,0.02c0,0.03,0,0.1,0.01,0.12c0.01,0,0.01,0,0.02,0c0.12-0.02,0.24-0.04,0.36-0.06
					c0.05-0.01,0.06-0.03,0.06-0.16l0-0.03c0-0.02,0-0.08-0.01-0.09l0,0C23.37,27.74,23.36,27.73,23.34,27.73L23.34,27.73z"/>
			</g>
			<g>
				<path class="st2" d="M24.05,28.32h-0.03l-0.03-0.03c-0.03-0.03-0.03-0.07-0.03-0.09l0-0.82l0,0l0-0.04c0-0.01,0-0.02,0.01-0.03
					c0.02-0.05,0.05-0.07,0.1-0.08c0.27-0.03,0.55-0.06,0.84-0.08c0,0,0.01,0,0.02,0c0.13,0,0.34,0.07,0.34,0.33
					c0,0.03,0,0.1-0.05,0.18c0.05,0.05,0.07,0.12,0.07,0.21c0,0.28-0.19,0.35-0.34,0.36c-0.29,0.02-0.58,0.05-0.87,0.09L24.05,28.32
					L24.05,28.32z M24.12,27.4l0,0.74c0.11-0.01,0.23-0.03,0.34-0.04l-0.03-0.05l-0.07,0.01c-0.07,0.01-0.12-0.04-0.12-0.1v-0.55
					l0.03,0.05c0.02-0.02,0.04-0.03,0.07-0.03c0.07-0.02,0.2-0.03,0.47-0.04l0.01,0c0.07,0,0.13,0.05,0.13,0.15
					c0,0.09-0.05,0.15-0.13,0.16c-0.02,0-0.26,0.02-0.38,0.04l0,0l0.01,0.02c0.08-0.01,0.2-0.02,0.39-0.03l0.01,0
					c0.01,0,0.02,0,0.03,0l0.13-0.1c0.07-0.06,0.07-0.1,0.07-0.14c0-0.15-0.12-0.16-0.17-0.16C24.64,27.34,24.37,27.37,24.12,27.4
					L24.12,27.4z M24.48,28.06v0.05c0.15-0.01,0.29-0.03,0.44-0.04c0.17-0.01,0.19-0.1,0.19-0.19c0-0.08-0.01-0.1-0.06-0.11
					l-0.11-0.02c0.03,0.02,0.04,0.06,0.04,0.11c0,0.1-0.07,0.15-0.14,0.16C24.82,28.02,24.62,28.04,24.48,28.06L24.48,28.06z"/>
			</g>
			<g>
				<path class="st2" d="M25.53,28.19c-0.04,0-0.07-0.01-0.1-0.04c-0.04-0.04-0.04-0.08-0.04-0.1v-0.79c0-0.13,0.1-0.15,0.14-0.15
					c0.05,0,0.09,0,0.14-0.01l0.06,0c0.04,0,0.12,0.01,0.14,0.1l0.01,0.01l0,0.04l0,0.78c0,0.13-0.1,0.15-0.14,0.15
					c-0.07,0-0.13,0.01-0.2,0.01L25.53,28.19L25.53,28.19z M25.53,28.03v0.08V28.03C25.53,28.03,25.53,28.03,25.53,28.03
					L25.53,28.03z M25.56,27.28v0.75c0.05,0,0.1,0,0.15-0.01l0-0.74c0,0,0,0,0,0l-0.03,0C25.64,27.28,25.6,27.28,25.56,27.28
					L25.56,27.28z"/>
			</g>
			<g>
				<path class="st2" d="M26.96,28.17l-0.01,0c-0.21,0-0.4,0-0.6,0l-0.04,0c-0.06,0-0.13,0-0.19-0.04c-0.06-0.03-0.13-0.1-0.13-0.24
					v-0.64c0-0.07,0.05-0.15,0.15-0.15c0.07,0,0.13,0,0.2,0h0c0.05,0,0.08,0.01,0.11,0.04c0.04,0.04,0.04,0.08,0.04,0.11l0,0.52
					c0.16,0,0.31,0,0.47,0c0.13,0,0.14,0.08,0.14,0.16v0.11C27.1,28.15,27.01,28.17,26.96,28.17L26.96,28.17z M26.95,28.01
					l0.01,0.08v-0.08C26.96,28.01,26.95,28.01,26.95,28.01L26.95,28.01z M26.96,28.01v0.08V28.01
					C26.96,28.01,26.96,28.01,26.96,28.01L26.96,28.01z M26.59,28c0.11,0,0.23,0,0.34,0v-0.08c-0.19,0-0.36,0-0.53,0l-0.08,0v-0.66
					c-0.06,0-0.11,0-0.16,0v0.63c0,0.09,0.04,0.12,0.15,0.12l0.04,0C26.43,28,26.51,28,26.59,28L26.59,28z"/>
			</g>
			<g>
				<path class="st2" d="M28.27,28.24l-0.02,0l-0.08-0.01c-0.18-0.01-0.63-0.04-0.68-0.04c-0.18-0.01-0.28-0.12-0.28-0.31v-0.5
					c0-0.13,0.09-0.26,0.28-0.26l0.01,0l0.01,0c0.01,0,0.57,0.01,0.75,0.05l0-0.01c0.13,0.01,0.13,0.13,0.13,0.18l0,0.02l0,0.02
					c0,0.04,0,0.09-0.04,0.13c-0.02,0.02-0.05,0.04-0.09,0.04l-0.02,0c0.02,0.03,0.05,0.09,0.08,0.18c0.02,0.05,0.01,0.09,0,0.1
					c0,0.01-0.01,0.01-0.01,0.02c0.1,0.03,0.1,0.13,0.1,0.18v0.03c0,0.05,0,0.1-0.04,0.14C28.35,28.22,28.32,28.24,28.27,28.24
					L28.27,28.24z M28.27,28.15L28.27,28.15l0-0.07c0,0,0,0,0,0v-0.01c0,0,0,0,0,0l0,0c0,0,0,0,0,0l0,0.01c0,0,0,0,0,0L28.27,28.15
					L28.27,28.15z M27.49,28.03c0.01,0,0.53,0.01,0.75,0.05c0,0,0-0.01,0-0.01v-0.03c0-0.01,0-0.01,0-0.02l-0.06,0v0
					c-0.16-0.01-0.49-0.03-0.52-0.03l-0.01-0.08v0.08c-0.09,0-0.14-0.07-0.14-0.13V27.6l0.03-0.01c-0.03-0.03-0.02-0.08-0.02-0.1
					l0-0.02c0-0.08,0.05-0.13,0.13-0.13c0.01,0,0.02,0,0.03,0c0,0,0.38,0.01,0.56,0.04l0-0.02l0-0.02c0,0,0-0.01,0-0.02l-0.05-0.01
					c-0.18-0.01-0.62-0.04-0.66-0.04l-0.02,0c-0.09,0-0.11,0.05-0.11,0.1v0.5C27.38,28.01,27.43,28.02,27.49,28.03L27.49,28.03
					L27.49,28.03z M27.72,27.69c0.09,0.01,0.29,0.02,0.41,0.03c-0.01-0.02-0.02-0.03-0.02-0.04c-0.14-0.01-0.27-0.02-0.41-0.03
					C27.71,27.66,27.71,27.67,27.72,27.69L27.72,27.69z"/>
			</g>
			<g>
				<path class="st2" d="M28.72,28.53c-0.01,0-0.02,0-0.03,0c-0.07-0.01-0.11-0.05-0.11-0.12v-0.15c-0.04-0.02-0.07-0.05-0.07-0.12
					v-0.16c0-0.02,0-0.07,0.03-0.11c0.02-0.02,0.05-0.04,0.09-0.04l0.02,0l0.17,0.02c0.04,0,0.13,0.03,0.13,0.15v0.2
					C28.96,28.5,28.8,28.53,28.72,28.53L28.72,28.53z M28.68,28.11c0.07,0.03,0.07,0.1,0.07,0.14v0.1c0.02-0.01,0.05-0.04,0.05-0.14
					v-0.19l-0.12-0.01V28.11L28.68,28.11z"/>
			</g>
			<g>
				<path class="st2" d="M31.28,28.7l-0.1-0.02c-0.1-0.02-0.2-0.04-0.3-0.07l-0.04-0.01l-0.09-0.18c-0.11-0.02-0.22-0.04-0.33-0.06
					l-0.12-0.02c-0.02,0.04-0.05,0.08-0.06,0.1l-0.03,0.05l-0.05-0.01c-0.1-0.02-0.21-0.03-0.31-0.05l-0.07-0.01V28.3l0.01-0.02
					c0.49-0.85,0.54-0.85,0.57-0.85l0.01,0c0.09,0.02,0.18,0.03,0.28,0.05c0.1,0.02,0.17,0.09,0.24,0.23
					c0.03,0.07,0.21,0.44,0.32,0.66l0.09,0.18V28.7L31.28,28.7z M30.94,28.46c0.04,0.01,0.08,0.02,0.11,0.02l-0.02-0.04
					c-0.11-0.23-0.29-0.59-0.32-0.66c-0.06-0.12-0.1-0.13-0.12-0.14c-0.07-0.01-0.15-0.03-0.22-0.04c-0.08,0.13-0.3,0.49-0.41,0.67
					c0.05,0.01,0.1,0.02,0.14,0.02c0.02-0.04,0.05-0.08,0.08-0.13c0.04-0.06,0.07-0.12,0.09-0.14L30.3,28
					c0.01-0.01,0.12-0.19,0.14-0.24l0.02-0.05l0.11,0l0.03,0.05c0.01,0.02,0.03,0.07,0.06,0.13c0.04,0.08,0.08,0.17,0.08,0.18
					l0.02,0.04l-0.02,0.05c-0.02,0.03-0.04,0.04-0.08,0.04l0,0l-0.03,0c-0.06-0.01-0.12-0.02-0.18-0.03
					c0.01,0.02,0.01,0.03,0.02,0.05c0.11,0.02,0.22,0.04,0.33,0.06l0.04,0.01L30.94,28.46L30.94,28.46z M30.33,28.27
					c-0.01,0.02-0.02,0.04-0.03,0.06L30.33,28.27C30.33,28.27,30.33,28.27,30.33,28.27L30.33,28.27z M30.5,28
					c0.01,0,0.03,0.01,0.04,0.01c-0.01-0.01-0.01-0.03-0.02-0.04l0,0C30.51,27.97,30.5,27.99,30.5,28L30.5,28z"/>
			</g>
			<g>
				<path class="st2" d="M32.35,28.97c-0.02,0-0.04,0-0.05-0.01c-0.19-0.05-0.39-0.11-0.59-0.16l-0.01,0
					c-0.09-0.02-0.32-0.08-0.32-0.35v-0.64c0-0.09,0.08-0.16,0.17-0.13c0.06,0.02,0.13,0.03,0.19,0.05
					c0.08,0.02,0.12,0.07,0.12,0.16v0.54c0.16,0.04,0.32,0.08,0.48,0.13c0.09,0.02,0.12,0.07,0.12,0.17v0.11
					C32.47,28.95,32.38,28.97,32.35,28.97L32.35,28.97z M31.55,27.85v0.6c0,0.13,0.09,0.16,0.19,0.19l0.02,0
					c0.18,0.05,0.37,0.09,0.54,0.14v-0.07c0,0,0-0.01,0-0.01c-0.18-0.05-0.36-0.1-0.53-0.14l-0.06-0.02v-0.66
					C31.65,27.87,31.6,27.86,31.55,27.85L31.55,27.85z"/>
			</g>
		</g>
		<g>
			<path class="st0" d="M21.39,28.73c-0.06-0.1-0.23-0.37-0.34-0.54c0,0.19,0,0.38,0,0.57c0,0.03,0,0.06-0.05,0.08
				c-0.05,0.02-0.11,0.03-0.16,0.05c-0.06,0.02-0.06-0.02-0.06-0.05c0-0.26,0-0.52,0-0.78c0-0.03,0-0.07,0.06-0.08
				c0.09-0.03,0.19-0.05,0.28-0.08c0.04-0.01,0.1-0.04,0.17,0.08c0.05,0.1,0.16,0.29,0.23,0.4c0.08-0.14,0.18-0.39,0.23-0.51
				c0.07-0.15,0.12-0.16,0.17-0.17c0.09-0.02,0.19-0.04,0.28-0.06c0.06-0.01,0.05,0.03,0.05,0.06c0,0.26,0,0.52,0,0.78
				c0,0.03,0.01,0.06-0.05,0.08c-0.05,0.01-0.11,0.02-0.16,0.04c-0.06,0.01-0.06-0.03-0.06-0.05c0-0.19,0-0.38,0-0.57
				c-0.11,0.23-0.28,0.58-0.34,0.71C21.56,28.69,21.47,28.71,21.39,28.73z"/>
			<path class="st0" d="M22.79,28.43c-0.27,0.05-0.26-0.24-0.26-0.43c0-0.17-0.02-0.44,0.32-0.5c0.2-0.04,0.4-0.07,0.6-0.1
				c0.34-0.05,0.32,0.23,0.32,0.4c0,0.19,0.01,0.47-0.26,0.51C23.26,28.34,23.03,28.38,22.79,28.43z M23.33,28.1
				c0.14-0.02,0.13-0.16,0.13-0.26c0-0.08,0.02-0.22-0.16-0.19c-0.1,0.02-0.2,0.03-0.3,0.05c-0.18,0.03-0.16,0.16-0.16,0.25
				c0,0.09-0.01,0.24,0.13,0.21C23.09,28.14,23.21,28.12,23.33,28.1z"/>
			<path class="st0" d="M24.04,27.34c0,0.01,0-0.03,0.03-0.03c0.28-0.03,0.56-0.06,0.83-0.08c0.05,0,0.27,0.01,0.27,0.24
				c0,0.04,0,0.12-0.11,0.2c0.14,0.02,0.13,0.14,0.13,0.19c0,0.1-0.02,0.25-0.26,0.27c-0.29,0.02-0.58,0.05-0.87,0.09
				c-0.02,0-0.02-0.01-0.02-0.04C24.04,27.91,24.04,27.63,24.04,27.34z M24.87,27.52c0-0.05-0.02-0.07-0.06-0.07
				c-0.03,0-0.46,0.04-0.46,0.04c-0.01,0-0.03,0-0.03,0.03c0,0.03,0,0.06,0,0.09c0,0.02,0.02,0.02,0.03,0.02
				c0,0,0.43-0.04,0.46-0.04C24.85,27.59,24.87,27.57,24.87,27.52z M24.32,27.95c0,0.03,0.02,0.02,0.03,0.02
				c0,0,0.46-0.05,0.49-0.05c0.03,0,0.06-0.03,0.06-0.08c0-0.05-0.03-0.07-0.06-0.07c-0.09,0.01-0.44,0.04-0.44,0.04
				c-0.03-0.04-0.05-0.08-0.08-0.13C24.32,27.79,24.32,27.87,24.32,27.95z"/>
			<path class="st0" d="M25.79,28.02c0,0.03,0,0.06-0.06,0.07c-0.07,0-0.13,0.01-0.2,0.01c-0.06,0-0.06-0.04-0.06-0.06
				c0-0.26,0-0.52,0-0.78c0-0.03,0-0.07,0.06-0.07c0.07,0,0.13-0.01,0.2-0.01c0.07,0,0.05,0.05,0.06,0.07c0,0,0,0,0,0
				C25.8,27.5,25.8,27.76,25.79,28.02z"/>
			<path class="st0" d="M26.07,27.23c0-0.03,0.01-0.07,0.07-0.07c0.07,0,0.13,0,0.2,0c0.07,0,0.06,0.04,0.06,0.07c0,0.2,0,0.4,0,0.6
				c0.18,0,0.37,0,0.55,0c0.05,0,0.06,0,0.06,0.07c0,0.03,0,0.07,0,0.11c0,0.08-0.03,0.07-0.06,0.07c-0.2,0-0.4,0-0.6,0
				c-0.08,0-0.28,0.02-0.28-0.2C26.07,27.66,26.07,27.45,26.07,27.23z"/>
			<path class="st0" d="M27.5,27.19c0.02,0,0.75,0.04,0.75,0.05c0.06,0.01,0.06,0.05,0.06,0.12c0,0.07,0.01,0.11-0.06,0.11
				c0,0-0.57-0.04-0.59-0.04c-0.02,0-0.07-0.01-0.07,0.04c0,0.06-0.01,0.08,0.05,0.08c0.17,0.01,0.35,0.02,0.52,0.03
				c0,0,0.08,0.15,0.08,0.17c0.01,0.02,0.01,0.04-0.04,0.04c-0.05-0.01-0.54-0.04-0.54-0.04c-0.03-0.06-0.06-0.11-0.08-0.17
				c0,0,0,0.2,0,0.24c0,0.06,0.05,0.05,0.06,0.05c0.02,0,0.62,0.04,0.62,0.04c0.06,0,0.06,0.05,0.06,0.12c0,0.07,0,0.12-0.06,0.11
				c0,0-0.76-0.05-0.78-0.05c-0.06,0-0.19-0.03-0.19-0.23c0-0.1,0-0.5,0-0.5C27.3,27.31,27.32,27.18,27.5,27.19z"/>
			<path class="st0" d="M28.67,28.39c0-0.05,0-0.1,0-0.15c0-0.07-0.01-0.06-0.04-0.07c-0.03,0-0.03-0.03-0.03-0.04
				c0,0,0-0.12,0-0.16c0-0.02,0-0.06,0.05-0.06c0.06,0.01,0.12,0.01,0.17,0.02c0.06,0.01,0.06,0.05,0.06,0.07c0,0.07,0,0.13,0,0.2
				c0,0.09-0.02,0.24-0.18,0.23C28.66,28.43,28.67,28.41,28.67,28.39z"/>
			<path class="st0" d="M30.62,27.56c0.06,0.01,0.12,0.05,0.18,0.19c0.04,0.1,0.34,0.69,0.4,0.82c0,0.01,0,0.02,0,0.03
				c-0.1-0.02-0.2-0.05-0.31-0.07c-0.03-0.06-0.06-0.12-0.09-0.18c-0.12-0.03-0.25-0.05-0.37-0.07c0,0-0.06-0.16-0.08-0.2
				c-0.02,0.03-0.15,0.25-0.19,0.31c-0.1-0.02-0.21-0.04-0.31-0.05c0-0.01,0-0.01,0-0.02c0.06-0.11,0.49-0.81,0.49-0.81
				C30.43,27.53,30.53,27.54,30.62,27.56z M30.52,27.8c-0.01,0.02-0.14,0.23-0.15,0.25c-0.01,0.01,0,0.01,0.01,0.02
				c0.09,0.02,0.19,0.04,0.28,0.05c0.02,0,0.02,0,0.01-0.01c-0.01-0.02-0.13-0.28-0.14-0.3C30.53,27.79,30.52,27.79,30.52,27.8z"/>
			<path class="st0" d="M31.47,27.81c0-0.03,0.01-0.06,0.07-0.05c0.06,0.02,0.13,0.03,0.19,0.05c0.07,0.02,0.06,0.06,0.06,0.08
				c0,0.2,0,0.4,0,0.6c0.18,0.05,0.36,0.1,0.54,0.15c0.05,0.01,0.06,0.01,0.06,0.09c0,0.04,0,0.07,0,0.11
				c0,0.08-0.03,0.06-0.06,0.05c-0.19-0.06-0.39-0.11-0.58-0.16c-0.08-0.02-0.27-0.05-0.27-0.27
				C31.47,28.23,31.47,28.02,31.47,27.81z"/>
		</g>
		<g>
			<g>
				<path id="XMLID_8_" class="st2" d="M40.04,9.86l-0.52-0.41c-0.04-0.03-0.08-0.06-0.15-0.08c-0.04-0.01-0.08-0.01-0.11-0.01
					c0.01,0.02,0.02,0.04,0.03,0.05l0.04,0.07c0.14,0.23,0.27,0.46,0.37,0.7c0.02,0.05,0.04,0.1,0.06,0.15
					c0.36,0.93,0.08,1.61-0.23,2.02c-0.09,0.13-0.2,0.25-0.32,0.36c-0.06,0.06-0.12,0.11-0.19,0.16c-0.39,0.29-0.89,0.46-1.44,0.5
					c-0.2,0.01-0.41,0.01-0.62-0.02l-0.04-0.01c-0.09-0.01-0.18-0.04-0.29-0.06c-0.42-0.1-0.8-0.27-1.14-0.51
					c-0.18,0.1-0.36,0.19-0.55,0.27l-0.02,0.01c-0.35,0.15-0.89,0.32-1.48,0.32c-0.07,0-0.13,0-0.2-0.01
					c-0.71-0.04-1.34-0.36-1.7-0.85c-0.06,0.07-0.13,0.15-0.2,0.21c-0.05,0.05-0.12,0.1-0.19,0.16c-0.4,0.29-0.9,0.47-1.44,0.51
					c-0.2,0.01-0.41,0.01-0.61-0.02l-0.04-0.01c-0.09-0.02-0.18-0.04-0.29-0.07c-0.42-0.1-0.8-0.27-1.14-0.51
					c-0.18,0.1-0.36,0.19-0.55,0.27l-0.01,0.01c-0.35,0.15-0.89,0.32-1.48,0.32c-0.07,0-0.13,0-0.2-0.01
					c-0.77-0.04-1.43-0.41-1.78-0.96c-0.34,0.23-0.73,0.45-1.18,0.65l-0.01,0.01c-0.35,0.14-0.89,0.32-1.48,0.32
					c-0.07,0-0.13,0-0.2-0.01c-0.19-0.01-0.37-0.04-0.55-0.09c-0.2-0.05-0.38-0.12-0.54-0.21c-0.15-0.08-0.28-0.18-0.39-0.29
					c-0.43,0.26-0.93,0.5-1.43,0.59c-0.39,0.09-0.8,0.09-1.17,0c-0.81-0.19-1.29-0.99-1.14-1.9c0.06-0.37,0.22-0.76,0.37-1.14
					c0,0,0-0.01,0-0.01c-0.2,0.29-0.4,0.64-0.58,0.97c-0.34,0.6-0.66,1.17-1.06,1.54c-0.45,0.42-0.89,0.63-1.31,0.63
					c-0.14,0-0.28-0.02-0.41-0.07c-0.28-0.1-0.89-0.47-0.67-1.69c0.4-2.21,2.94-5.93,5.61-7.39c0.67-0.37,1.43-0.57,2.14-0.57
					c1.13,0,1.99,0.51,2.31,1.36c0.3,0.8,0.1,1.7-0.52,2.5c0.07-0.03,0.14-0.05,0.21-0.08c0.33-0.11,0.67-0.17,0.99-0.17
					c0.74,0,1.33,0.31,1.67,0.86c0.1,0.16,0.17,0.33,0.22,0.51c0.08-0.09,0.17-0.17,0.26-0.26c0.04-0.04,0.09-0.08,0.14-0.13
					c0.42-0.37,0.88-0.65,1.39-0.82c0.33-0.11,0.67-0.17,0.99-0.17c0.74,0,1.33,0.3,1.67,0.86c0.04,0.06,0.07,0.12,0.1,0.17
					c0.09-0.12,0.19-0.23,0.3-0.33c0.46-0.45,1.12-0.72,1.82-0.74c0.06,0,0.12,0,0.17,0c0.63,0.02,1.21,0.27,1.61,0.67l0.11,0.11
					c0.34-0.25,0.71-0.45,1.09-0.58c0.33-0.11,0.67-0.17,0.99-0.17c0.43,0,0.81,0.1,1.12,0.3c0.22-0.41,0.35-0.97,0.39-1.26l2.3,0
					c0,0.21-0.07,0.62-0.13,0.93c0.07-0.01,0.14-0.01,0.21-0.01c0.07,0,0.12,0,0.17,0c0.63,0.02,1.21,0.27,1.61,0.67l0.36,0.37
					L40.04,9.86z"/>
				<path class="st4" d="M38.02,7.3c0.01-0.03,0.03-0.06,0.04-0.09C38.1,7.12,38.11,7,38.11,7S37.3,7,37.3,7
					c-0.02,0.43-0.56,1.18-0.63,1.24l0.09,0.22C37,8.35,37.72,7.9,38.02,7.3 M39.14,8.03c-0.04,0-0.08,0-0.13,0
					c-0.48,0.01-0.98,0.18-1.35,0.54c-0.1,0.09-0.18,0.19-0.26,0.3c-0.18,0.26-0.24,0.58-0.22,0.88c0,0.03,0.01,0.06,0.01,0.08
					c0.02,0.15,0.07,0.29,0.13,0.42c0.08,0.18,0.18,0.34,0.28,0.49c0.12,0.18,0.21,0.37,0.25,0.58c0.05,0.29-0.07,0.57-0.33,0.64
					c-0.2,0.06-0.44,0.07-0.64,0.01c-0.13-0.04-0.26-0.08-0.39-0.14c-0.41-0.19-0.66-0.54-0.73-0.63c-0.01,0-0.01-0.01-0.01-0.01
					c-0.21,0.15-0.74,0.48-1.2,0.63c-0.07,0.02-0.14,0.04-0.21,0.06c-0.32,0.08-0.65,0.09-0.88-0.06c-0.2-0.13-0.27-0.29-0.24-0.68
					c0.02-0.28,0.1-0.56,0.19-0.81l2.72,0c0.24-0.49,0.34-1.24,0.02-1.76c-0.35-0.57-1.13-0.62-1.81-0.38
					c-0.44,0.15-0.82,0.39-1.15,0.68c-0.04,0.04-0.08,0.08-0.12,0.11c-0.51,0.47-0.88,1.07-1.07,1.64
					c-0.06,0.17-0.23,0.61-0.03,1.17c0.18,0.5,0.74,0.8,1.32,0.83c0.43,0.03,0.92-0.08,1.36-0.26c0.34-0.15,0.65-0.32,0.92-0.49
					c0.04,0.04,0.08,0.09,0.13,0.13c0.32,0.29,0.69,0.47,1.1,0.57c0.08,0.02,0.16,0.04,0.24,0.05c0.16,0.02,0.32,0.03,0.48,0.01
					c0.39-0.03,0.77-0.15,1.06-0.36c0.05-0.03,0.09-0.07,0.13-0.11c0.09-0.08,0.16-0.16,0.22-0.25c0.34-0.45,0.31-0.93,0.14-1.35
					c-0.01-0.04-0.03-0.08-0.04-0.12c-0.09-0.22-0.22-0.43-0.37-0.68c-0.04-0.06-0.07-0.12-0.09-0.18
					c-0.01-0.02-0.01-0.03-0.02-0.05c-0.02-0.09-0.04-0.18-0.03-0.28C38.55,9,38.7,8.75,39,8.67c0.19-0.05,0.38-0.05,0.56,0
					c0.2,0.06,0.32,0.14,0.42,0.22l0.29-0.4C40.01,8.23,39.6,8.05,39.14,8.03 M34.4,8.79c0.22-0.2,0.42-0.29,0.63-0.24
					c0.08,0.02,0.15,0.07,0.21,0.15c0.22,0.34,0.06,0.84-0.05,1.17l-1.56,0.01C33.86,9.39,34.17,9,34.4,8.79 M32.4,8.5
					c-0.26-0.26-0.66-0.44-1.12-0.46c-0.04,0-0.08,0-0.12,0c-0.48,0.01-0.98,0.18-1.35,0.54c-0.1,0.09-0.18,0.19-0.26,0.3
					c-0.18,0.26-0.24,0.57-0.22,0.88c0,0.03,0.01,0.06,0.01,0.09c0.02,0.15,0.07,0.29,0.13,0.42c0.08,0.17,0.19,0.34,0.28,0.49
					c0.12,0.18,0.21,0.37,0.25,0.58c0.05,0.29-0.09,0.53-0.34,0.61c-0.51,0.16-1.04-0.04-1.4-0.35c-0.13-0.11-0.23-0.24-0.35-0.37v0
					c0,0-0.01-0.01-0.01-0.01c-0.21,0.15-0.74,0.48-1.2,0.64c-0.07,0.02-0.14,0.04-0.21,0.06c-0.32,0.08-0.65,0.09-0.88-0.06
					c-0.2-0.13-0.27-0.28-0.24-0.68c0.02-0.28,0.09-0.56,0.19-0.82l2.71,0c0.24-0.49,0.34-1.24,0.02-1.76
					c-0.35-0.58-1.13-0.62-1.81-0.39c-0.44,0.15-0.82,0.39-1.14,0.68C25.31,8.92,25.27,8.96,25.23,9c-0.48,0.45-0.85,1.01-1.04,1.55
					c0,0.01,0,0.01,0,0.01c-0.35,0.28-0.71,0.56-1.52,1.01c-0.2,0.11-0.4,0.21-0.62,0.28c-0.07,0.02-0.14,0.04-0.21,0.06
					c-0.32,0.08-0.65,0.1-0.88-0.06c-0.2-0.13-0.27-0.28-0.24-0.68c0.02-0.28,0.09-0.56,0.19-0.82l2.72,0
					c0.24-0.49,0.34-1.24,0.02-1.76c-0.35-0.58-1.13-0.62-1.81-0.38c-0.44,0.15-0.82,0.39-1.15,0.68c-0.04,0.04-0.08,0.08-0.12,0.12
					c-0.51,0.47-0.88,1.07-1.07,1.64c-0.03,0.08-0.05,0.18-0.07,0.27c-0.03,0.16-0.05,0.28-0.05,0.41
					c-0.25,0.14-0.54,0.26-0.87,0.34c-0.49,0.13-1.17-0.1-0.79-1.14c0.35-0.97,0.17-1.41-0.29-1.71c1.08-0.09,2.24-0.53,3.02-1.24
					c0.86-0.8,1.03-1.62,0.8-2.23c-0.39-1.05-2.07-1.16-3.43-0.41c-2.48,1.37-4.89,4.95-5.24,6.89c-0.1,0.51-0.01,0.81,0.21,0.89
					c0.29,0.1,0.65-0.1,0.98-0.41c0.54-0.51,1.02-1.66,1.6-2.48c0.25-0.36,0.53-0.65,0.81-0.77c0.23-0.09,0.41-0.07,0.54,0.01
					c0.57,0.38-0.35,1.67-0.48,2.5c-0.08,0.51,0.15,0.98,0.6,1.08c0.25,0.06,0.55,0.07,0.86-0.01c0.53-0.1,1.15-0.43,1.77-0.89
					c0.09,0.27,0.27,0.5,0.56,0.66c0.11,0.06,0.23,0.11,0.37,0.14c0.13,0.04,0.26,0.06,0.41,0.07c0.44,0.03,0.93-0.08,1.37-0.26
					c0.79-0.34,1.36-0.78,1.88-1.2c-0.01,0.18,0.01,0.39,0.09,0.62c0.18,0.5,0.74,0.8,1.32,0.83c0.43,0.03,0.92-0.07,1.36-0.26
					c0.34-0.15,0.64-0.32,0.92-0.49c0.04,0.04,0.08,0.09,0.13,0.13c0.32,0.29,0.69,0.47,1.1,0.57c0.08,0.02,0.16,0.04,0.24,0.05
					c0.16,0.02,0.32,0.02,0.48,0.01c0.39-0.03,0.77-0.15,1.06-0.37c0.04-0.03,0.09-0.07,0.13-0.1c0.08-0.08,0.16-0.17,0.22-0.26
					c0.34-0.45,0.31-0.93,0.14-1.35c-0.01-0.04-0.03-0.08-0.04-0.12c-0.09-0.22-0.22-0.43-0.37-0.68c-0.04-0.06-0.06-0.12-0.09-0.18
					c0-0.02-0.01-0.03-0.02-0.05c-0.02-0.09-0.04-0.18-0.03-0.28c0.01-0.27,0.17-0.51,0.47-0.6c0.19-0.06,0.39-0.04,0.56,0
					c0.2,0.06,0.32,0.14,0.41,0.22C32.12,8.89,32.4,8.5,32.4,8.5 M26.54,8.8c0.26-0.23,0.47-0.26,0.61-0.23
					c0.09,0.02,0.17,0.06,0.22,0.14c0.22,0.34,0.06,0.85-0.04,1.17l-1.56,0.01C26,9.4,26.31,9.01,26.54,8.8 M21.88,8.81
					c0.21-0.19,0.43-0.27,0.59-0.23c0.1,0.02,0.2,0.08,0.24,0.14c0.22,0.34,0.06,0.85-0.05,1.17L21.11,9.9
					C21.34,9.41,21.65,9.02,21.88,8.81 M16.25,8.44c0.39-0.72,1.09-1.7,1.79-2.43c0.15-0.15,0.31-0.31,0.48-0.44
					c0.38-0.31,0.89-0.56,1.26-0.36c0.11,0.06,0.2,0.16,0.22,0.32c0.08,0.52-0.44,1.36-1.43,1.99C17.84,7.99,16.94,8.3,16.25,8.44"
					/>
			</g>
		</g>
	</g>
</g>
</svg>
