<?xml version="1.0" encoding="utf-8"?>
<!-- Generator: Adobe Illustrator 23.0.4, SVG Export Plug-In . SVG Version: 6.00 Build 0)  -->
<svg version="1.1" id="Layer_1" xmlns="http://www.w3.org/2000/svg" xmlns:xlink="http://www.w3.org/1999/xlink" x="0px" y="0px"
	 viewBox="0 0 458.92 160.92" style="enable-background:new 0 0 458.92 160.92;" xml:space="preserve">
<style type="text/css">
	.st0{fill:none;}
	.st1{fill:#1F130C;}
	.st2{fill:#ED1C24;}
	.st3{fill:#FFFFFF;}
	.st4{fill:#2E3192;}
	.st5{fill-rule:evenodd;clip-rule:evenodd;fill:#FFFFFF;}
	.st6{fill-rule:evenodd;clip-rule:evenodd;fill:#ED1C24;}
</style>
<g>
	<g>
		<polygon class="st0" points="415.12,38.86 417.15,33.19 415.12,38.86 		"/>
		<path class="st1" d="M429.04,0l-33.57,93.68c-3.68,10.63-14.31,28.38-40.3,28.38H0l37.96,38.86h347.09
			c25.99,0,36.61-17.75,40.3-28.38l33.57-93.68L429.04,0z"/>
		<path class="st2" d="M355.18,122.07c25.99,0,36.61-17.75,40.3-28.38L429.04,0v0H73.86C47.95,0,37.46,17.63,33.57,28.39L0,122.07
			l0,0H355.18z"/>
		<g>
			<path class="st3" d="M73.86,11.13c-12.19,0-24.17,5.25-29.81,21.01l-28.24,78.79h339.37c12.2,0,24.17-5.25,29.82-21.01
				l28.23-78.79H73.86z"/>
		</g>
	</g>
	<g>
		<path class="st4" d="M372.1,47.61h18.49l9.34-25.87c0,0-1.76-0.76-4.99-1.43c-3.21-0.68-7.95-1.36-14.18-1.37
			c-18.89,0-23.41,5.08-29.27,21.8c-4.72,13.42-1.79,18.2,4.34,24.32c4.24,4.26,7.65,6.76,4.98,13.63l-3.38,8.65
			c-0.79,2.03-1.53,3-2.84,2.99c-2.02,0.01-2.13-1.22-1.24-3.51l5.19-13.68l-18.31-0.01l-10.04,27.47c0,0,2.58,0.67,6.29,1.27
			c3.68,0.63,8.64,1.27,13.74,1.26c18.98,0.01,22.81-5.33,28.26-20.83c4.98-14.11,3.27-19.77-4.26-27.24
			c-5.14-5.11-6.46-7.25-4.43-12.82l2.13-5.81c0.83-2.27,1.51-2.96,3.12-2.97c1.3,0.01,1.94,0.77,1.09,3.13L372.1,47.61z
			 M334.19,66.57c-0.49-1.16-1.2-2.38-2.14-3.34c0.24-0.05,0.63-0.21,1.13-0.41c4.85-1.97,8.61-5.89,10.43-10.86l4.45-12.18
			c4.39-11.99-0.21-19.7-11.63-19.71h-21.91l-29.83,81.9h18.3l12.3-34.03l0.19-0.02c2.13,0.01,2.79,2.25,1.31,6.7l-9.3,27.35h17.93
			l8.63-24.86C335.68,72.45,335.13,68.94,334.19,66.57z M330.34,38.85l-4.25,11.88c-1.09,2.98-2.55,4.48-4.99,4.48l-1.28,0
			l7.72-21.01l0.64-0.01C330.52,34.2,331.64,35.27,330.34,38.85z M274.55,20.08h-19.62l-17.59,24.9l9.65-24.9h-19.34l-29.84,81.9
			h19.51l9.69-28.9l-0.54,28.9h19.01l-0.95-41.15L274.55,20.08z M187.58,65.32l-7.86,21.46c-0.84,2.25-1.4,3.52-3.44,3.54
			c-1.85-0.01-1.59-1.44-0.95-3.23l18.36-50.51c0.85-2.36,1.45-3.18,3.4-3.18c1.5,0,1.65,1.07,0.82,3.37l-6.76,18.46l18.32,0.02
			l12.16-33.41c0,0-1.59-0.7-4.68-1.34c-3.1-0.66-7.8-1.3-14.29-1.31c-18.73,0-22.68,4.06-28.01,18.72l-17.15,47.24
			c-3.81,10.51-0.8,18.09,15.08,18.08c17.06,0.01,21.42-5.44,25.21-15.86l8.01-22.04L187.58,65.32z M155.56,20.08l-29.81,81.9h20.26
			l29.78-81.9H155.56z M134.87,20.08l-13.35,38.55l3.64-38.55h-20.77l-29.93,81.9h14.68l13.7-38.38l-3.58,38.38h20.63l29.58-81.9
			H134.87z M72.87,55.08c-5.13-5.12-6.46-7.28-4.43-12.82l2.11-5.8c0.85-2.28,1.54-2.97,3.13-2.97c1.31,0.03,1.96,0.76,1.1,3.14
			l-3.98,11l18.47,0.01l9.31-25.88c0,0-1.76-0.75-4.96-1.42c-3.19-0.7-7.95-1.38-14.18-1.37c-18.88-0.01-23.38,5.07-29.27,21.78
			c-4.74,13.41-1.8,18.2,4.34,24.31c4.25,4.27,7.66,6.77,4.97,13.63l-3.38,8.68c-0.8,2.03-1.53,2.98-2.86,2.98
			c-2,0-2.1-1.2-1.24-3.49l5.2-13.7l-18.33-0.02l-10.04,27.47c0,0,2.59,0.68,6.27,1.3c3.7,0.64,8.67,1.27,13.75,1.26
			c19.01,0,22.82-5.32,28.28-20.85C82.12,68.23,80.41,62.57,72.87,55.08z M279.11,67.54l11.11,0l5.11-13.93l-11.15-0.01l7.06-19.71
			l14.25,0.01l5.22-13.82h-33.78l-29.9,81.9h33.76l4.87-13.54h-14.19L279.11,67.54z"/>
		<path class="st5" d="M341.21,74.56l-9.16,25.04l1.18,0.26l9.28-25.3H341.21z M376.41,32.07c-0.25-0.01-0.46,0.02-0.69,0.04
			c2.37,0.3,2.78,2.42,1.94,4.61l-3.53,9.49h1.29l3.51-9.47C379.85,34.33,379.31,32.06,376.41,32.07z M361.26,67.14
			c-8.75-8.99-12.16-11.69-7.15-25.95c5.64-16.05,9.65-20.7,27.2-20.83l-0.53-0.02c-18.19,0-22.25,4.56-27.95,20.86
			c-5,14.24-1.61,16.95,7.15,25.92c3.55,3.64,4.13,6.84,2.15,12.06l-2.97,7.92c-1.01,2.61-1.94,4.32-3.99,4.6
			c0.23,0.02,0.44,0.03,0.69,0.03c2.47,0.01,3.49-1.76,4.57-4.63l3-7.91C365.38,73.97,364.79,70.79,361.26,67.14z M315.52,21.5
			l-28.79,79.05h1.27l28.8-79.05H315.52z M316.52,66.53l-0.95-0.01c4.14,0.18,4.11,4.18,2.48,8.92l-8.57,25.11h1.29l8.57-25.11
			C321,70.58,320.99,66.49,316.52,66.53z M329.45,32.79l-1.28-0.01c3.25-0.01,5.15,1.96,3.49,6.55l-4.27,11.87
			c-1.22,3.39-3.12,5.42-6.29,5.42h1.29c3.18-0.01,5.07-2.03,6.3-5.41l4.27-11.89C334.61,34.75,332.67,32.79,329.45,32.79z
			 M228.34,69.07l-0.4,31.49h1.3l0.44-35.37L228.34,69.07z M255.68,21.5l-20.34,28.41l-1.48,3.86l23.09-32.27H255.68z
			 M199.84,100.55h1.29l28.8-79.05h-1.28L199.84,100.55z M198.39,31.97c-0.25,0.01-0.49,0.02-0.72,0.05
			c2.27,0.29,2.58,2.33,1.76,4.61l-6.25,17.2l1.3-0.02l6.24-17.18C201.6,34.18,201.15,31.97,198.39,31.97z M181.04,87.26
			c-0.84,2.24-1.68,4.13-4.1,4.4c0.19,0.02,0.38,0.04,0.61,0.04c2.95,0.02,3.87-1.98,4.76-4.43l7.54-20.56l-1.29,0.01L181.04,87.26z
			 M175.98,38.39l-17.14,47.23c-3.47,9.58-1.16,16.19,13.76,16.18h0.71c-14.39-0.17-16.61-6.71-13.18-16.21l17.16-47.21
			c5.07-13.95,8.44-17.72,26-17.79l-0.61-0.01C184.53,20.58,181.13,24.27,175.98,38.39z M127.76,100.55h1.29l28.77-79.05h-1.27
			L127.76,100.55z M100.85,100.55h1.29l4.03-46.24l-1.69,4.65L100.85,100.55z M76.47,100.55l1.27-0.01l28.92-79.04h-1.3
			L76.47,100.55z M135.87,21.5l-14.96,42.32l-0.46,4.91l16.72-47.23H135.87z M39.87,74.56L30.69,99.6l1.24,0.29l9.23-25.32
			L39.87,74.56z M75.07,32.07c-0.23,0-0.47,0.03-0.66,0.06c2.36,0.29,2.76,2.39,1.93,4.6l-3.53,9.49l1.29,0.01l3.52-9.49
			C78.51,34.35,77.99,32.08,75.07,32.07z M51.49,41.2c-4.99,14.24-1.6,16.98,7.15,25.93c3.54,3.64,4.12,6.85,2.16,12.08l-2.98,7.9
			c-1.02,2.64-1.94,4.35-4,4.61c0.22,0.02,0.45,0.03,0.69,0.02c2.47,0.01,3.52-1.74,4.59-4.64l2.98-7.9
			c1.98-5.23,1.39-8.41-2.15-12.07c-8.77-8.96-12.17-11.71-7.15-25.94c5.62-16.04,9.64-20.7,27.19-20.83l-0.54-0.01
			C61.27,20.36,57.2,24.94,51.49,41.2z M249.07,100.55h1.29L279.2,21.5h-1.28L249.07,100.55z"/>
	</g>
	<g>
		<path class="st6" d="M390.27,110.77c-3.22,0-5.73,2.51-5.73,5.71c0,3.27,2.47,5.74,5.73,5.74c3.2,0,5.71-2.52,5.71-5.74
			C395.98,113.28,393.47,110.77,390.27,110.77z M390.27,121.07c-2.58,0-4.59-1.95-4.59-4.59c0-2.6,2.01-4.57,4.59-4.57
			c2.55,0,4.57,1.96,4.57,4.57C394.83,119.12,392.82,121.07,390.27,121.07z"/>
		<g>
			<path class="st2" d="M387.89,113.53h2.52c0.71,0,1.26,0.22,1.63,0.59c0.3,0.32,0.47,0.76,0.47,1.28v0.02
				c0,0.98-0.56,1.56-1.34,1.8l1.52,2.25h-1.16l-1.39-2.07h-0.01h-1.23v2.07h-0.99V113.53z M390.33,116.47
				c0.71,0,1.16-0.39,1.16-0.99v-0.01c0-0.64-0.43-0.99-1.17-0.99h-1.45v2H390.33z"/>
		</g>
	</g>
</g>
</svg>
