<?xml version="1.0" encoding="utf-8"?>
<!-- Generator: Adobe Illustrator 23.0.4, SVG Export Plug-In . SVG Version: 6.00 Build 0)  -->
<svg version="1.1" id="Layer_1" xmlns="http://www.w3.org/2000/svg" xmlns:xlink="http://www.w3.org/1999/xlink" x="0px" y="0px"
	 viewBox="0 0 225.36 94.35" style="enable-background:new 0 0 225.36 94.35;" xml:space="preserve">
<style type="text/css">
	.st0{fill:#FFFFFF;}
</style>
<g>
	<g>
		<path class="st0" d="M10.77,42.36C4.09,42.36,0,47.11,0,52.83c0,11.14,0,19.98,0,31.12c0,5.65,4.09,10.4,10.77,10.4
			c6.91,0,10.47-4.23,10.47-10.4c0-0.97,0-2.75,0-3.86c0-1.34-0.67-1.41-3.79-1.41c-3.27,0-3.93-0.08-3.93,0.97
			c0,1.71,0,2.82,0,3.86c0,1.19-0.59,2.97-2.75,2.97c-2.3,0-2.83-2.16-2.83-4.23c0-9.58,0-18.49,0-28c0-1.93,0.52-4.23,2.83-4.23
			c1.93,0,2.75,2.08,2.75,3.12c0,0.74,0,2.82,0,3.86c0,0.96,1.26,0.82,3.71,0.82c3.41,0,4.01-0.23,4.01-0.97c0-0.81,0-3.12,0-4.01
			C21.24,47.41,17.75,42.36,10.77,42.36z"/>
		<path class="st0" d="M53.1,83.65c0-11.07,0-19.76,0-30.67c0-6.46-4.45-10.62-10.84-10.62c-6.17,0-10.77,4.16-10.77,10.62
			c0,11.07,0,19.53,0,30.67c0,6.09,3.93,10.69,10.77,10.69C49.46,94.35,53.1,89.89,53.1,83.65z M45.08,82.02
			c0,2.08-0.22,4.46-2.82,4.46c-2.75,0-2.82-2.38-2.82-4.46c0-9.65,0-17.97,0-27.55c0-2.08,0.59-4.46,2.82-4.46
			c2.15,0,2.82,2.38,2.82,4.46C45.08,64.05,45.08,72.36,45.08,82.02z"/>
		<path class="st0" d="M73.41,92.85c0-10.4,0-23.62,0.22-29.56c0.3-0.6,1.19-0.37,1.34,0.37c0.89,4.08,1.78,7.72,2.38,10.03
			c0.22,0.67,0.44,1.04,1.63,1.04c1.19,0,1.49-0.37,1.63-1.12c0.74-2.52,1.63-5.94,2.52-10.1c0.15-0.75,0.82-0.97,1.11-0.3
			c0.22,5.87,0.22,19.31,0.22,29.71c0,1.12,0.22,1.26,3.86,1.26c4.01,0,3.93-0.14,3.93-1.34c0-18.86,0-37.51,0-49.39
			c0-1.19-0.67-1.26-3.86-1.26c-2.9,0-3.42,0.45-4.09,2.82c-1.19,3.86-2.08,6.76-3.26,10.62c-0.82,2.75-1.56,4.9-2.08,4.9
			c-0.52,0-1.34-2.3-2.08-4.9c-1.04-3.49-2.16-6.83-3.27-10.62c-0.74-2.38-1.26-2.75-4.46-2.75c-2.89,0-3.41-0.07-3.41,1.19
			c0,17.68,0,30.9,0,49.47c0,1.12-0.08,1.26,3.56,1.26C73.19,94.19,73.41,94.04,73.41,92.85z"/>
		<path class="st0" d="M122.31,42.36c-4.09,0-11.58,0-15.59,0c-0.75,0-1.12,0-1.56,0.59c-0.45,0.52-0.45,0.74-0.45,1.71
			c0,17.82,0,30.67,0,48.5c0,1.19,0.45,1.11,3.57,1.11c3.79,0,4.38,0.07,4.38-1.19c0-7.72,0-12.18,0-18.72
			c0-0.96-0.15-1.93,0.52-2.38c0.29-0.22,1.11-0.22,1.86-0.22c1.26-0.07,3.34,0,3.93,0c1.11,0,1.11-0.37,1.11-3.57
			c0-3.27-0.07-3.64-1.11-3.64c-0.67,0-2.89,0-4.16-0.07c-0.6,0-1.19,0.07-1.64-0.3c-0.52-0.44-0.44-1.26-0.44-1.93
			c0-5.2,0-5.05,0-10.25c0-0.96-0.08-1.56,0.44-2.08c0.29-0.22,1.04-0.3,1.64-0.3c1.48,0,5.49,0,7.2,0c1.11,0,1.19-0.37,1.19-3.78
			C123.2,42.88,123.2,42.36,122.31,42.36z"/>
		<path class="st0" d="M132.04,83.65c0,6.09,3.94,10.69,10.77,10.69c7.2,0,10.84-4.46,10.84-10.69c0-11.07,0-19.76,0-30.67
			c0-6.46-4.46-10.62-10.84-10.62c-6.17,0-10.77,4.16-10.77,10.62C132.04,64.05,132.04,72.51,132.04,83.65z M139.98,54.46
			c0-2.08,0.59-4.46,2.82-4.46c2.15,0,2.82,2.38,2.82,4.46c0,9.58,0,17.9,0,27.55c0,2.08-0.23,4.46-2.82,4.46
			c-2.75,0-2.82-2.38-2.82-4.46C139.98,72.36,139.98,64.05,139.98,54.46z"/>
		<path class="st0" d="M169.42,94.35c3.72,0,4.31,0,4.31-1.41c0-8.24,0-12.92,0-20.65c0-1.04,0.3-0.96,2.89-0.96
			c1.86,0,2.75,2.08,2.75,4.68c0,3.42,0,11.07,0,17.08c0,1.33,0.29,1.26,3.86,1.26c3.56,0,4.08,0,4.08-1.19c0-6.61,0-11.81,0-18.71
			c0-2.08-0.37-3.34-1.33-4.68c-1.41-1.86-3.79-2.01-3.79-2.3c0-0.22,2.3-0.67,3.64-2.67c0.96-1.33,1.26-2.75,1.26-4.9
			c0-2.75,0-3.42,0-6.31c0-3.12-0.81-6.09-3.04-8.17c-2.23-2.16-5.5-3.04-8.69-3.04c-2.01,0-5.64,0-7.35,0
			c-0.96,0-1.49-0.15-1.93,0.44c-0.22,0.37-0.3,1.12-0.3,1.86c0,14.33,0,33.35,0,48.06C165.78,94.35,166.38,94.35,169.42,94.35z
			 M173.73,51.49c0-0.37,0.07-0.67,0.22-0.97c0.29-0.37,0.82-0.37,1.49-0.37c1.71,0,2.15,0.3,2.67,0.89
			c0.97,1.12,1.04,2.53,1.04,4.09c0,1.71,0,3.19,0,5.05c0,0.74-0.07,1.85-1.04,2.89c-0.82,0.89-2,1.12-2.67,1.12
			c-0.59,0-1.04,0.07-1.34-0.15c-0.37-0.3-0.37-0.82-0.37-1.49C173.73,58.4,173.73,58.4,173.73,51.49z"/>
		<path class="st0" d="M195.41,46c0,3.12,0.22,3.64,1.34,3.64c0.67,0,1.71,0,2.75,0c0.82,0,1.79,0,2.15,0.15
			c0.67,0.52,0.52,1.78,0.52,2.75c0,16.34,0,24.81,0,41.07c0,0.74,0.67,0.74,3.79,0.74c3.49,0,4.31-0.07,4.31-0.74
			c0-16.27,0-24.66,0-41.07c0-0.97-0.15-2.23,0.52-2.75c0.37-0.15,1.34-0.15,2.15-0.15c1.26,0,2.3,0,3.19,0
			c0.82,0,0.89-0.37,0.89-3.78c0-2.82-0.08-3.49-0.97-3.49c-4.68,0-14.93,0-19.61,0C195.56,42.36,195.41,42.88,195.41,46z"/>
	</g>
	<g>
		<g>
			<path class="st0" d="M14.62,15.22c-1.55-0.56-2.95-0.98-3.69-1.58c-0.28-0.23-0.48-0.48-0.53-0.79
				c-0.14-0.79,0.66-1.67,1.96-1.79c1.57-0.15,2.69,0.67,2.91,2.09c0.11,0.69,0.44,0.99,1.11,0.8c1.52-0.48,2.27-0.72,3.8-1.21
				c0.6-0.19,0.91-0.62,0.86-1.26c-0.17-2.55-1.82-7.27-8.69-6.45c-7.47,0.89-8.04,7.04-8.02,8.04c0.13,7.69,10.06,6.49,10.69,9.46
				c0.12,0.58-0.28,1.21-0.99,1.63c-0.01,0.01-0.02,0.01-0.03,0.02c-0.44,0.26-1,0.43-1.62,0.46c-1.57,0.07-2.8-0.85-2.94-2.5
				c-0.06-0.72-0.44-1.01-1.1-0.83c-1.51,0.44-2.27,0.66-3.77,1.1c-0.6,0.17-0.91,0.57-0.87,1.18c0.15,2.62,1.67,7.27,8.7,7.08
				c7.93-0.21,9.04-6.63,9.04-7.71C21.44,18.03,17.74,16.33,14.62,15.22z"/>
			<path class="st0" d="M39.43,30.17c7.93-0.15,8.37-7,8.37-9.55c-0.02-3.87-0.03-5.8-0.04-9.67c-0.01-2.55-0.5-9.41-8.43-8.72
				c-7.92,0.68-8.37,7.35-8.36,9.8c0.01,3.72,0.02,5.57,0.04,9.29C31,23.76,31.5,30.32,39.43,30.17z M41.3,22.87
				c-0.39,0.47-0.98,0.74-1.9,0.77c-0.54,0.02-0.95-0.07-1.29-0.21c-1.23-0.54-1.36-2.1-1.37-4.37c-0.01-2.17-0.01-3.26-0.02-5.43
				c-0.01-2.9,0.15-4.7,2.62-4.87c0.39-0.03,0.71,0.01,1,0.08c0.78,0.19,1.19,0.71,1.41,1.52c0.21,0.76,0.25,1.76,0.25,2.96
				c0.01,2.2,0.01,3.3,0.02,5.5C42.03,20.67,41.97,22.07,41.3,22.87z"/>
			<path class="st0" d="M75.36,19.85c-0.02-7.2-0.03-10.79-0.05-17.99c0-0.81-0.34-1.2-1.01-1.17c-1.5,0.06-2.26,0.09-3.76,0.16
				c-0.64,0.03-1.01,0.45-1,1.25c0.02,6.3,0.03,9.45,0.05,15.74c0.01,2.94-0.16,4.77-2.3,4.99c-0.11,0.01-0.2,0.04-0.32,0.04
				c-0.54,0.01-0.96-0.09-1.31-0.25c-1.23-0.59-1.35-2.24-1.36-4.64c-0.02-6.25-0.03-9.38-0.05-15.62c0-0.8-0.34-1.18-1.01-1.14
				c-1.5,0.08-2.25,0.13-3.75,0.22c-0.64,0.04-1.01,0.45-1,1.24c0.03,7.03,0.04,10.55,0.07,17.58c0.01,2.6,0.5,9.58,8.44,9.5
				C74.92,29.67,75.37,22.51,75.36,19.85z"/>
			<path class="st0" d="M84.18,1.56c0.01,1.83,0.01,2.74,0.01,4.57c0,0.78,0.37,1.21,1.01,1.2c1.88-0.04,2.82-0.06,4.7-0.1
				c0.67-0.01,1.01,0.39,1.01,1.21c0.01,7.66,0.01,11.5,0.02,19.16c0,0.78,0.37,1.22,1.01,1.22c1.5-0.01,2.25-0.01,3.75-0.02
				c0.67,0,1.01-0.46,1.01-1.24c-0.01-7.68-0.01-11.52-0.02-19.21c0-0.82,0.37-1.24,1-1.24c1.88-0.02,2.82-0.02,4.7-0.04
				c0.67,0,1.01-0.46,1.01-1.24c0-1.84,0-2.77,0-4.61c0-0.82-0.34-1.23-1.01-1.22c-6.88,0.05-10.32,0.11-17.19,0.3
				C84.55,0.33,84.18,0.74,84.18,1.56z"/>
			<path class="st0" d="M113.46,28.79c1.5,0,2.25,0,3.75,0.01c0.67,0,1.01-0.45,1.01-1.23c0-2.6,0-3.9,0-6.49
				c0-0.82,0.37-1.23,1.01-1.22c1.29,0.01,1.93,0.01,3.22,0.02c0.67,0.01,1,0.42,1,1.24c0,2.59,0,3.89-0.01,6.48
				c0,0.78,0.37,1.23,1.01,1.23c1.5,0.01,2.25,0.01,3.75,0.02c0.67,0,1.01-0.44,1.01-1.22c0.02-10.46,0.03-15.69,0.04-26.15
				c0-0.82-0.33-1.24-1-1.25c-1.5-0.04-2.26-0.05-3.76-0.08c-0.64-0.01-1.01,0.43-1.01,1.21c-0.01,4.1-0.01,6.15-0.01,10.25
				c0,0.78-0.34,1.22-1.01,1.21c-1.29-0.01-1.94-0.02-3.22-0.03c-0.64-0.01-1.01-0.46-1.01-1.24c0-4.11,0.01-6.16,0.01-10.27
				c0-0.78-0.37-1.23-1-1.24c-1.51-0.02-2.26-0.02-3.77-0.03c-0.67,0-1.01,0.41-1.01,1.23c0,10.53,0,15.79-0.01,26.32
				C112.46,28.33,112.82,28.78,113.46,28.79z"/>
			<path class="st0" d="M147.97,7.83c3.24,0.13,4.87,0.2,8.11,0.35c0.67,0.03,1-0.39,1.01-1.14c0.01-1.78,0.01-2.66,0.02-4.44
				c0-0.79-0.33-1.2-1-1.24c-5.63-0.33-8.45-0.47-14.09-0.7c-0.64-0.03-1.01,0.36-1.01,1.17c-0.03,10.35-0.04,15.53-0.07,25.88
				c0,0.77,0.36,1.22,1,1.22c5.62,0.05,8.44,0.09,14.07,0.17c0.67,0.01,1.01-0.38,1.01-1.17c0.01-1.77,0.01-2.66,0.01-4.43
				c0-0.79-0.33-1.2-1-1.21c-2.95-0.07-4.57-0.11-7.27-0.17c-0.2-0.01-0.41-0.01-0.62-0.01c-0.07,0-0.14,0-0.21,0
				c-0.64-0.01-1-0.46-1-1.22c0-0.51,0-0.77,0-1.29c0-0.8,0.37-1.2,1.01-1.18c2.07,0.05,3.12,0.08,5.19,0.14
				c0.67,0.02,1.01-0.41,1.01-1.16c0-1.78,0.01-2.67,0.01-4.45c0-0.79-0.33-1.21-1-1.24c-2.07-0.08-3.12-0.11-5.2-0.19
				c-0.63-0.02-1-0.47-1-1.24c0-0.51,0-0.77,0.01-1.29C146.96,8.2,147.34,7.81,147.97,7.83z"/>
			<path class="st0" d="M168.34,29.31c1.5,0.03,2.25,0.04,3.75,0.07c0.6,0.01,1.04-0.48,1.04-1.17c0.01-2.43,0.02-3.64,0.03-6.06
				c0-0.69,0.44-1.17,1.04-1.15c0.53,0.02,0.8,0.03,1.33,0.05c0.1,0,0.2,0.09,0.27,0.2c1.38,3.12,2.07,4.67,3.45,7.74
				c0.13,0.34,0.43,0.54,0.77,0.54c1.52,0.03,2.29,0.05,3.81,0.08c1.04,0.02,1.58-1.01,1.12-1.99c-1.41-2.98-2.12-4.48-3.52-7.51
				c-0.07-0.19-0.03-0.38,0.1-0.48c1.73-1.35,2.55-3.73,2.57-7.2c0.02-6.12-2.37-9.21-8.33-9.69c-2.93-0.24-4.4-0.35-7.33-0.57
				c-0.61-0.04-1.04,0.43-1.04,1.13c-0.04,9.91-0.06,14.87-0.09,24.78C167.3,28.79,167.74,29.3,168.34,29.31z M173.2,10.33
				c0-0.69,0.44-1.16,1.04-1.13c0.68,0.04,1.03,0.07,1.71,0.11c1.61,0.11,2.41,0.39,2.4,2.74c0,1.23-0.23,1.86-0.67,2.17
				c-0.28,0.2-0.64,0.27-1.09,0.28c-0.2,0-0.42,0-0.66-0.01c-0.61-0.03-0.96-0.05-1.53-0.08c-0.06,0-0.11-0.01-0.18-0.01
				c-0.6-0.03-1.04-0.55-1.03-1.25C173.19,12.03,173.2,11.47,173.2,10.33z"/>
			<path class="st0" d="M195.63,29.93c1.5,0.04,2.25,0.06,3.74,0.1c0.67,0.02,1.01-0.36,1.01-1.03c0.01-4.58,0.02-6.87,0.03-11.45
				c0-0.36,0.27-0.41,0.4-0.08c1.8,4.85,2.7,7.23,4.52,11.93c0.23,0.56,0.6,0.81,1.17,0.83c1.96,0.06,2.95,0.09,4.91,0.15
				c0.67,0.02,1-0.34,1-0.99c0-8.67,0.01-13.01,0.01-21.68c0-0.68-0.33-1.06-1-1.14c-1.49-0.19-2.23-0.28-3.73-0.47
				c-0.63-0.08-1,0.22-1,0.92c0,4.47,0,6.71-0.01,11.19c0,0.35-0.27,0.4-0.4,0.08c-1.8-4.76-2.71-7.18-4.51-12.08
				c-0.23-0.59-0.6-0.88-1.17-0.94c-1.96-0.22-2.94-0.33-4.9-0.55c-0.63-0.07-1,0.25-1,0.97c-0.03,9.25-0.05,13.88-0.07,23.12
				C194.63,29.51,194.99,29.91,195.63,29.93z"/>
		</g>
	</g>
	<g>
		<g>
			<path class="st0" d="M219.79,45.16v-0.02c0-1.52,1.23-2.8,2.79-2.8c1.57,0,2.79,1.27,2.79,2.79v0.02c0,1.52-1.23,2.8-2.79,2.8
				C221.01,47.94,219.79,46.68,219.79,45.16z M225.04,45.14v-0.02c0-1.36-1.06-2.48-2.46-2.48c-1.39,0-2.46,1.14-2.46,2.5v0.02
				c0,1.36,1.06,2.48,2.46,2.48C223.97,47.64,225.04,46.5,225.04,45.14z M221.42,44.01c0-0.21,0.16-0.37,0.35-0.37h1.01
				c0.69,0,1.17,0.32,1.17,0.96c0,0.43-0.22,0.74-0.58,0.88l0.43,0.53c0.08,0.08,0.1,0.16,0.1,0.26c0,0.19-0.14,0.34-0.35,0.34
				c-0.13,0-0.21-0.06-0.29-0.14l-0.67-0.83h-0.46v0.62c0,0.19-0.16,0.35-0.35,0.35c-0.19,0-0.35-0.16-0.35-0.35V44.01z
				 M222.74,45.05c0.32,0,0.5-0.16,0.5-0.4c0-0.26-0.19-0.4-0.5-0.4h-0.61v0.8H222.74z"/>
		</g>
	</g>
</g>
</svg>
