<?xml version="1.0" encoding="utf-8"?>
<!-- Generator: Adobe Illustrator 23.0.4, SVG Export Plug-In . SVG Version: 6.00 Build 0)  -->
<svg version="1.1" id="Layer_1" xmlns="http://www.w3.org/2000/svg" xmlns:xlink="http://www.w3.org/1999/xlink" x="0px" y="0px"
	 viewBox="0 0 104.96 104.95" style="enable-background:new 0 0 104.96 104.95;" xml:space="preserve">
<style type="text/css">
	.st0{clip-path:url(#SVGID_2_);fill:#8C2433;}
	.st1{clip-path:url(#SVGID_2_);fill:#8D2333;}
	.st2{clip-path:url(#SVGID_2_);fill:#8E2333;}
	.st3{clip-path:url(#SVGID_2_);fill:#8F2333;}
	.st4{clip-path:url(#SVGID_2_);fill:#912433;}
	.st5{clip-path:url(#SVGID_2_);fill:#912333;}
	.st6{clip-path:url(#SVGID_2_);fill:#922333;}
	.st7{clip-path:url(#SVGID_2_);fill:#932434;}
	.st8{clip-path:url(#SVGID_2_);fill:#942433;}
	.st9{clip-path:url(#SVGID_2_);fill:#952434;}
	.st10{clip-path:url(#SVGID_2_);fill:#962333;}
	.st11{clip-path:url(#SVGID_2_);fill:#972434;}
	.st12{clip-path:url(#SVGID_2_);fill:#992434;}
	.st13{clip-path:url(#SVGID_2_);fill:#9A2334;}
	.st14{clip-path:url(#SVGID_2_);fill:#9B2334;}
	.st15{clip-path:url(#SVGID_2_);fill:#9B2434;}
	.st16{clip-path:url(#SVGID_2_);fill:#9D2434;}
	.st17{clip-path:url(#SVGID_2_);fill:#9E2334;}
	.st18{clip-path:url(#SVGID_2_);fill:#9E2434;}
	.st19{clip-path:url(#SVGID_2_);fill:#A02334;}
	.st20{clip-path:url(#SVGID_2_);fill:#A12234;}
	.st21{clip-path:url(#SVGID_2_);fill:#A22334;}
	.st22{clip-path:url(#SVGID_2_);fill:#A32334;}
	.st23{clip-path:url(#SVGID_2_);fill:#A52334;}
	.st24{clip-path:url(#SVGID_2_);fill:#A52234;}
	.st25{clip-path:url(#SVGID_2_);fill:#A62234;}
	.st26{clip-path:url(#SVGID_2_);fill:#A82334;}
	.st27{clip-path:url(#SVGID_2_);fill:#AA2434;}
	.st28{clip-path:url(#SVGID_2_);fill:#AA2334;}
	.st29{clip-path:url(#SVGID_2_);fill:#AB2334;}
	.st30{clip-path:url(#SVGID_2_);fill:#AD2334;}
	.st31{clip-path:url(#SVGID_2_);fill:#AF2234;}
	.st32{clip-path:url(#SVGID_2_);fill:#AF2434;}
	.st33{clip-path:url(#SVGID_2_);fill:#B12434;}
	.st34{clip-path:url(#SVGID_2_);fill:#B22434;}
	.st35{clip-path:url(#SVGID_2_);fill:#B42334;}
	.st36{clip-path:url(#SVGID_2_);fill:#B52334;}
	.st37{clip-path:url(#SVGID_2_);fill:#B52234;}
	.st38{clip-path:url(#SVGID_2_);fill:#B72234;}
	.st39{clip-path:url(#SVGID_2_);fill:#B82234;}
	.st40{clip-path:url(#SVGID_2_);fill:#B81F34;}
	.st41{clip-path:url(#SVGID_2_);fill:#B92234;}
	.st42{clip-path:url(#SVGID_2_);fill:#BA2234;}
	.st43{clip-path:url(#SVGID_2_);fill:#BC2234;}
	.st44{clip-path:url(#SVGID_2_);fill:#BC2333;}
	.st45{clip-path:url(#SVGID_2_);fill:#BD2234;}
	.st46{clip-path:url(#SVGID_2_);fill:#BE2333;}
	.st47{clip-path:url(#SVGID_2_);fill:#BF2334;}
	.st48{clip-path:url(#SVGID_2_);fill:#C02333;}
	.st49{clip-path:url(#SVGID_2_);fill:#C12333;}
	.st50{clip-path:url(#SVGID_2_);fill:#C22033;}
	.st51{fill:#FFFFFF;}
</style>
<g>
	<g>
		<g>
			<g>
				<g>
					<defs>
						<rect id="SVGID_1_" width="104.96" height="104.95"/>
					</defs>
					<clipPath id="SVGID_2_">
						<use xlink:href="#SVGID_1_"  style="overflow:visible;"/>
					</clipPath>
					<rect x="0" y="0" class="st0" width="104.95" height="104.95"/>
					<path class="st0" d="M104.96,52.47c0,28.98-23.5,52.48-52.48,52.48C23.5,104.95,0,81.46,0,52.47C0,23.49,23.5,0,52.48,0
						C81.46,0,104.96,23.49,104.96,52.47z"/>
					<path class="st1" d="M104.05,52.47c0,28.48-23.09,51.57-51.57,51.57c-28.48,0-51.57-23.09-51.57-51.57
						c0-28.48,23.09-51.57,51.57-51.57C80.96,0.91,104.05,23.99,104.05,52.47z"/>
					<path class="st2" d="M103.15,52.47c0,27.99-22.69,50.67-50.67,50.67S1.81,80.46,1.81,52.47c0-27.98,22.68-50.66,50.67-50.66
						S103.15,24.5,103.15,52.47z"/>
					<path class="st2" d="M102.24,52.47c0,27.49-22.28,49.77-49.76,49.77C25,102.24,2.72,79.96,2.72,52.47
						C2.72,24.99,25,2.71,52.48,2.71C79.96,2.71,102.24,24.99,102.24,52.47z"/>
					<path class="st3" d="M101.34,52.47c0,26.98-21.87,48.86-48.86,48.86c-26.98,0-48.86-21.87-48.86-48.86
						c0-26.98,21.88-48.86,48.86-48.86C79.46,3.62,101.34,25.49,101.34,52.47z"/>
					<path class="st4" d="M100.43,52.47c0,26.48-21.47,47.95-47.95,47.95c-26.48,0-47.95-21.47-47.95-47.95
						c0-26.48,21.47-47.95,47.95-47.95C78.96,4.52,100.43,25.99,100.43,52.47z"/>
					<path class="st5" d="M99.53,52.47c0,25.99-21.06,47.05-47.05,47.05c-25.98,0-47.05-21.06-47.05-47.05
						c0-25.98,21.06-47.05,47.05-47.05C78.46,5.42,99.53,26.49,99.53,52.47z"/>
					<path class="st6" d="M98.62,52.47c0,25.49-20.66,46.15-46.14,46.15C27,98.62,6.34,77.96,6.34,52.47
						C6.34,26.99,27,6.33,52.48,6.33C77.96,6.33,98.62,26.99,98.62,52.47z"/>
					<path class="st7" d="M97.72,52.47c0,24.98-20.25,45.24-45.24,45.24S7.24,77.46,7.24,52.47c0-24.98,20.25-45.24,45.24-45.24
						S97.72,27.49,97.72,52.47z"/>
					<path class="st8" d="M96.81,52.47c0,24.48-19.85,44.33-44.33,44.33c-24.48,0-44.33-19.85-44.33-44.33
						c0-24.48,19.85-44.33,44.33-44.33C76.96,8.14,96.81,27.99,96.81,52.47z"/>
					<path class="st9" d="M95.91,52.47c0,23.99-19.44,43.43-43.43,43.43c-23.99,0-43.43-19.44-43.43-43.43
						c0-23.99,19.44-43.43,43.43-43.43C76.47,9.04,95.91,28.49,95.91,52.47z"/>
					<path class="st10" d="M95,52.47C95,75.96,75.97,95,52.48,95C28.99,95,9.95,75.96,9.95,52.47c0-23.48,19.04-42.52,42.53-42.52
						C75.97,9.96,95,28.99,95,52.47z"/>
					<path class="st11" d="M94.1,52.47c0,22.99-18.64,41.62-41.62,41.62c-22.98,0-41.62-18.63-41.62-41.62
						c0-22.98,18.64-41.61,41.62-41.61C75.46,10.86,94.1,29.49,94.1,52.47z"/>
					<path class="st11" d="M93.19,52.47c0,22.49-18.23,40.71-40.71,40.71c-22.48,0-40.71-18.23-40.71-40.71
						c0-22.48,18.23-40.71,40.71-40.71C74.96,11.76,93.19,29.99,93.19,52.47z"/>
					<path class="st12" d="M92.29,52.47c0,21.99-17.82,39.81-39.81,39.81c-21.99,0-39.81-17.82-39.81-39.81
						c0-21.99,17.82-39.81,39.81-39.81C74.47,12.66,92.29,30.49,92.29,52.47z"/>
					<path class="st12" d="M91.38,52.47c0,21.49-17.42,38.91-38.91,38.91c-21.49,0-38.9-17.42-38.9-38.91
						c0-21.48,17.42-38.91,38.9-38.91C73.97,13.57,91.38,30.99,91.38,52.47z"/>
					<path class="st13" d="M90.48,52.47c0,20.99-17.01,38-38,38c-20.99,0-38-17.01-38-38c0-20.98,17.01-38,38-38
						C73.47,14.47,90.48,31.49,90.48,52.47z"/>
					<path class="st14" d="M89.57,52.47c0,20.49-16.61,37.1-37.09,37.1c-20.49,0-37.09-16.61-37.09-37.1
						c0-20.49,16.61-37.09,37.09-37.09C72.96,15.38,89.57,31.99,89.57,52.47z"/>
					<path class="st15" d="M88.67,52.47c0,19.99-16.2,36.2-36.19,36.2c-19.99,0-36.19-16.21-36.19-36.2s16.2-36.19,36.19-36.19
						C72.47,16.29,88.67,32.49,88.67,52.47z"/>
					<path class="st16" d="M87.76,52.47c0,19.49-15.8,35.29-35.29,35.29c-19.49,0-35.28-15.8-35.28-35.29
						c0-19.48,15.8-35.28,35.28-35.28C71.97,17.19,87.76,32.99,87.76,52.47z"/>
					<path class="st17" d="M86.86,52.47c0,18.99-15.4,34.38-34.38,34.38c-18.98,0-34.38-15.39-34.38-34.38
						c0-18.98,15.4-34.38,34.38-34.38C71.46,18.09,86.86,33.49,86.86,52.47z"/>
					<path class="st18" d="M85.96,52.47c0,18.49-14.99,33.48-33.48,33.48C33.99,85.95,19,70.97,19,52.47C19,33.99,33.99,19,52.48,19
						C70.96,19,85.96,33.99,85.96,52.47z"/>
					<path class="st19" d="M85.05,52.47c0,17.99-14.59,32.58-32.58,32.58c-17.99,0-32.57-14.59-32.57-32.58
						c0-17.99,14.58-32.57,32.57-32.57C70.47,19.9,85.05,34.49,85.05,52.47z"/>
					<path class="st20" d="M84.14,52.47c0,17.49-14.18,31.66-31.67,31.66c-17.49,0-31.66-14.17-31.66-31.66
						c0-17.49,14.17-31.66,31.66-31.66C69.97,20.81,84.14,34.99,84.14,52.47z"/>
					
						<ellipse transform="matrix(0.0178 -0.9998 0.9998 0.0178 -0.9217 104.0104)" class="st21" cx="52.48" cy="52.47" rx="30.76" ry="30.76"/>
					<path class="st22" d="M82.34,52.47c0,16.49-13.37,29.86-29.86,29.86c-16.49,0-29.86-13.37-29.86-29.86
						c0-16.49,13.37-29.86,29.86-29.86C68.96,22.62,82.34,35.99,82.34,52.47z"/>
					<path class="st23" d="M81.43,52.47c0,15.99-12.97,28.95-28.95,28.95c-15.99,0-28.95-12.97-28.95-28.95
						c0-15.99,12.97-28.95,28.95-28.95C68.46,23.53,81.43,36.49,81.43,52.47z"/>
					<path class="st24" d="M80.52,52.47c0,15.49-12.55,28.05-28.05,28.05c-15.49,0-28.04-12.56-28.04-28.05
						c0-15.49,12.55-28.04,28.04-28.04C67.97,24.43,80.52,36.98,80.52,52.47z"/>
					<path class="st25" d="M79.62,52.47c0,14.99-12.15,27.15-27.14,27.15c-14.99,0-27.14-12.16-27.14-27.15
						c0-14.99,12.15-27.14,27.14-27.14C67.47,25.33,79.62,37.48,79.62,52.47z"/>
					
						<ellipse transform="matrix(0.0367 -0.9993 0.9993 0.0367 -1.8876 102.9904)" class="st26" cx="52.48" cy="52.47" rx="26.24" ry="26.24"/>
					<path class="st26" d="M77.81,52.47c0,14-11.35,25.34-25.34,25.34c-13.99,0-25.33-11.34-25.33-25.34
						c0-13.99,11.35-25.33,25.33-25.33C66.47,27.15,77.81,38.49,77.81,52.47z"/>
					<path class="st27" d="M76.91,52.47c0,13.49-10.94,24.43-24.43,24.43c-13.49,0-24.43-10.94-24.43-24.43
						c0-13.49,10.94-24.42,24.43-24.42C65.97,28.05,76.91,38.98,76.91,52.47z"/>
					<path class="st28" d="M76,52.47C76,65.47,65.47,76,52.48,76c-12.99,0-23.52-10.54-23.52-23.53c0-12.99,10.53-23.52,23.52-23.52
						C65.47,28.95,76,39.48,76,52.47z"/>
					<path class="st29" d="M75.1,52.47c0,12.5-10.12,22.62-22.62,22.62c-12.49,0-22.62-10.12-22.62-22.62
						c0-12.49,10.12-22.62,22.62-22.62C64.97,29.86,75.1,39.99,75.1,52.47z"/>
					<path class="st30" d="M74.19,52.47c0,12-9.72,21.71-21.71,21.71s-21.71-9.72-21.71-21.71c0-11.99,9.72-21.71,21.71-21.71
						S74.19,40.48,74.19,52.47z"/>
					<path class="st30" d="M73.29,52.47c0,11.49-9.32,20.81-20.81,20.81c-11.49,0-20.81-9.32-20.81-20.81
						c0-11.49,9.32-20.81,20.81-20.81C63.97,31.66,73.29,40.98,73.29,52.47z"/>
					<path class="st30" d="M72.38,52.47c0,10.99-8.91,19.91-19.9,19.91c-10.99,0-19.9-8.91-19.9-19.91c0-10.99,8.91-19.9,19.9-19.9
						C63.47,32.57,72.38,41.48,72.38,52.47z"/>
					<path class="st31" d="M71.48,52.47c0,10.49-8.5,19-19,19c-10.5,0-19-8.51-19-19c0-10.49,8.5-19,19-19
						C62.97,33.48,71.48,41.99,71.48,52.47z"/>
					<path class="st32" d="M70.57,52.47c0,10-8.11,18.1-18.1,18.1c-9.99,0-18.09-8.1-18.09-18.1c0-9.99,8.1-18.09,18.09-18.09
						C62.47,34.38,70.57,42.48,70.57,52.47z"/>
					<path class="st33" d="M69.67,52.47c0,9.49-7.7,17.19-17.19,17.19c-9.49,0-17.19-7.7-17.19-17.19c0-9.49,7.7-17.19,17.19-17.19
						C61.97,35.28,69.67,42.98,69.67,52.47z"/>
					<path class="st33" d="M68.76,52.47c0,8.99-7.29,16.29-16.29,16.29c-8.99,0-16.29-7.29-16.29-16.29
						c0-8.99,7.29-16.28,16.29-16.28C61.47,36.19,68.76,43.48,68.76,52.47z"/>
					<path class="st34" d="M67.86,52.47c0,8.5-6.89,15.38-15.39,15.38s-15.39-6.89-15.39-15.38c0-8.49,6.89-15.38,15.39-15.38
						S67.86,43.98,67.86,52.47z"/>
					<path class="st35" d="M66.95,52.47c0,8-6.48,14.48-14.47,14.48c-8,0-14.47-6.48-14.47-14.48C38,44.48,44.48,38,52.48,38
						C60.48,38,66.95,44.48,66.95,52.47z"/>
					<path class="st36" d="M66.05,52.47c0,7.5-6.08,13.57-13.57,13.57c-7.49,0-13.57-6.07-13.57-13.57
						c0-7.49,6.08-13.57,13.57-13.57C59.97,38.9,66.05,44.98,66.05,52.47z"/>
					<path class="st37" d="M65.14,52.47c0,6.99-5.67,12.67-12.67,12.67c-6.99,0-12.67-5.67-12.67-12.67
						c0-6.99,5.67-12.67,12.67-12.67C59.47,39.81,65.14,45.48,65.14,52.47z"/>
					<path class="st38" d="M64.24,52.47c0,6.5-5.27,11.76-11.77,11.76c-6.49,0-11.76-5.27-11.76-11.76c0-6.5,5.27-11.76,11.76-11.76
						C58.97,40.71,64.24,45.98,64.24,52.47z"/>
					<path class="st39" d="M63.33,52.47c0,6-4.85,10.86-10.85,10.86c-6,0-10.85-4.86-10.85-10.86c0-6,4.85-10.86,10.85-10.86
						C58.48,41.62,63.33,46.48,63.33,52.47z"/>
					<path class="st40" d="M62.43,52.47c0,5.5-4.45,9.96-9.95,9.96c-5.5,0-9.95-4.46-9.95-9.96c0-5.49,4.45-9.95,9.95-9.95
						C57.98,42.52,62.43,46.98,62.43,52.47z"/>
					<path class="st41" d="M61.53,52.47c0,5-4.05,9.05-9.05,9.05c-5,0-9.05-4.05-9.05-9.05c0-4.99,4.05-9.05,9.05-9.05
						C57.47,43.43,61.53,47.48,61.53,52.47z"/>
					<path class="st42" d="M60.62,52.47c0,4.5-3.65,8.14-8.15,8.14c-4.5,0-8.15-3.65-8.15-8.14c0-4.5,3.65-8.14,8.15-8.14
						C56.97,44.33,60.62,47.98,60.62,52.47z"/>
					<path class="st43" d="M59.72,52.47c0,4-3.24,7.24-7.24,7.24c-4,0-7.24-3.24-7.24-7.24c0-3.99,3.24-7.23,7.24-7.23
						C56.48,45.24,59.72,48.48,59.72,52.47z"/>
					<path class="st44" d="M58.82,52.47c0,3.5-2.84,6.34-6.34,6.34c-3.5,0-6.34-2.84-6.34-6.34c0-3.49,2.83-6.33,6.34-6.33
						C55.98,46.14,58.82,48.98,58.82,52.47z"/>
					<circle class="st45" cx="52.48" cy="52.47" r="5.43"/>
					<path class="st46" d="M57,52.47c0,2.5-2.03,4.52-4.52,4.52c-2.5,0-4.52-2.03-4.52-4.52c0-2.5,2.03-4.52,4.52-4.52
						C54.97,47.95,57,49.98,57,52.47z"/>
					<path class="st47" d="M56.1,52.47c0,2-1.62,3.62-3.62,3.62c-2,0-3.62-1.62-3.62-3.62c0-2,1.62-3.62,3.62-3.62
						C54.48,48.85,56.1,50.47,56.1,52.47z"/>
					<path class="st48" d="M55.19,52.47c0,1.5-1.22,2.71-2.72,2.71c-1.5,0-2.72-1.21-2.72-2.71c0-1.49,1.21-2.71,2.72-2.71
						C53.98,49.76,55.19,50.98,55.19,52.47z"/>
					<path class="st49" d="M54.28,52.47c0,1-0.81,1.81-1.81,1.81c-1,0-1.81-0.81-1.81-1.81c0-1,0.81-1.81,1.81-1.81
						C53.48,50.67,54.28,51.48,54.28,52.47z"/>
					<path class="st50" d="M53.38,52.47c0,0.5-0.4,0.91-0.9,0.91c-0.5,0-0.9-0.41-0.9-0.91c0-0.5,0.41-0.9,0.9-0.9
						C52.98,51.57,53.38,51.98,53.38,52.47z"/>
				</g>
			</g>
			<g>
				<path class="st51" d="M90.07,80.73c-6.93,3.58-12.14,2.83-12.7-1.49c-0.63-4.83-0.28-11.63-0.05-14.23
					c0.08-0.95,0.37-4.02,0.55-4.94c2.37-0.49,5.53-1.65,5.53,2.46c1.2-0.61,3.39-2.41,3.77-4.32c2.09-9.88-8.26-7.29-8.26-7.29
					c2.52-11.67,5.24-24.09,11.02-34.34l-5.76-2.76c-3.9,2.98-7.83,6.01-11.1,6.49c-2.99,0.72-21.28,2.16-19.99-6.21
					c-2.04,0.16-3.19,2.57-3.18,4.64c0.66,9.03,12.4,7.24,19.55,8.13c-7.38,9.24-13.86,18.8-19.72,28.7
					c-4.64,0.89-5.25-4.87-4.46-6.46c0,0-3.06,0.86-4.25,4.21c-1.43,3.53,0.19,9.49,5.19,9.82c-4.95,8.7-10.88,22.96-23.02,20.11
					c-4.06-0.84-8.8-7.71-6.35-11.8c1.51-2.09-0.73-3.56-3.29-0.46c-6.3,6.95-0.22,20.83,12.97,20
					c14.19,0.31,23.76-17.33,28.93-27.8l13.45-2.12l-0.85,10.98C66.35,99.36,86,88.83,86,88.83c2.73-1.24,5.59-4.23,5.52-7.71
					C91.37,79.94,90.72,80.4,90.07,80.73z M70.05,52.91l-10.18,1.24c5.07-8.12,7.85-15.62,16.03-23.85
					C73.64,37.49,71.8,45.65,70.05,52.91z"/>
				<path class="st51" d="M93.11,86.58c-1.19-0.17-2.19,0.83-2.01,2.02c0.11,0.74,0.72,1.35,1.46,1.46c1.19,0.18,2.2-0.84,2.01-2.03
					C94.46,87.29,93.85,86.69,93.11,86.58z M93.12,89.67c-0.98,0.19-1.82-0.66-1.62-1.64c0.11-0.54,0.55-0.97,1.09-1.07
					c0.97-0.17,1.79,0.66,1.61,1.63C94.1,89.13,93.66,89.57,93.12,89.67z"/>
				<path class="st51" d="M93.57,87.91c0-0.33-0.27-0.6-0.6-0.6h-0.85v2.01h0.37V88.5h0.27l0.38,0.82h0.42l-0.4-0.85
					C93.4,88.39,93.57,88.17,93.57,87.91z M92.97,88.13H92.5v-0.44h0.48c0.12,0,0.22,0.1,0.22,0.22
					C93.19,88.03,93.09,88.13,92.97,88.13z"/>
			</g>
		</g>
	</g>
</g>
</svg>
