<?xml version="1.0" encoding="utf-8"?>
<!-- Generator: Adobe Illustrator 24.1.0, SVG Export Plug-In . SVG Version: 6.00 Build 0)  -->
<svg version="1.1" id="Layer_1" xmlns="http://www.w3.org/2000/svg" xmlns:xlink="http://www.w3.org/1999/xlink" x="0px" y="0px"
	 viewBox="0 0 432 352.67" style="enable-background:new 0 0 432 352.67;" xml:space="preserve">
<style type="text/css">
	.st0{display:none;fill:#244B5A;stroke:#231F20;stroke-miterlimit:10;}
	.st1{fill:#FFB600;}
	.st2{fill:#FFFFFF;}
</style>
<rect x="-72" y="-107.66" class="st0" width="576" height="576"/>
<g>
	<path class="st1" d="M402.34,174.3c0.67,1.53,2.3,2.33,3.95,2.04c11.11-1.92,11.07,8.09,7.5,13.34
		c-4.84,7.14-1.32,16.75,2.28,24.57c1.31,2.85,4.94,4.69,8.08,4.55c2.96-0.13,6,1.58,7.24,4.3c1.49,3.28,0.16,7.57-2.93,9.42
		c-2.78,1.67-0.47,5.78,0.14,8.96c0.73,3.79-2.08,7.89-5.87,8.6c-3.79,0.7-7.88-2.13-8.56-5.92c-0.61-3.41-5.8-2.29-8.66-0.33
		l-17.87,12.3c-2.65,1.83-4.78,5.99-4.05,9.13c0.99,4.26-4.46,8.72-9.15,7.84c-5.07-0.95-11.1-6.49-12.6-11.38
		c-1.49-4.87,0.03-10.16-1.34-15.26c-1.46-5.45-4.06-10.53-6.64-15.52c-1.59-3.09-3.43-6.4-6.63-7.75
		c-3.76-1.59-8.64-0.09-11.76-2.72c-2.45-2.07-2.58-6.02-1.02-8.83c2.03-3.66,8.07-4.64,8.79-9.13c0.81-5.06-4.35-14.14-7.36-17.89
		c-3.41-4.24-8.95-7.21-14.25-6.08c-5.72,1.22-8.6,7.57-6.51,13.04c2.11,5.54,0.06,10.05-5.14,11.32c-5.71,1.39-8.51-2.99-9.95-9.05
		c-0.88-3.71-2.56-4.71-5.49-4.28c-3.23,0.48-3.63,1.03-6.59,0.46c-4.14-0.8-6.86-4.74-5.5-8.73c1.52-4.46,6.39-3.59,9.11-6.1
		c2.69-2.49,1.97-6.85,0.89-10.35c-2.63-8.53-6.15-16.79-10.48-24.6c-1.31-2.35-2-5.06-1.54-7.71c1.22-7.04,8.44-6.87,12.29-3.53
		c2.79,2.42,4.2,6.03,5.34,9.55c2.97,9.18,3.61,17.58,7.5,27.41c1.39,3.52,4.51,2.57,7.11,1.35c3.68-1.73,5.23-2.49,8.91-4.22
		c1.27-0.6,2.63-1.27,3.3-2.51c1.26-2.34-0.55-5.05-1.55-7.51c-2.3-5.67-2.84-14.17,4.33-16.71c7.18-2.55,11.97,4.04,15.07,11.8
		c0.56,1.4,1.79,2.52,3.3,2.58c1.96,0.07,3.74-0.96,5.42-1.97c3.38-2.03,6.77-4.06,10.15-6.09c4.2-2.52,6.52-8.45,5.57-13.25
		c-0.7-3.52,1.24-7.59,4.66-8.89c3.96-1.5,8.9,1.09,10.06,5.12c0.51,1.76,2.6,3.15,4.42,2.93c1.78-0.22,3.41-1.13,5.18-1.48
		c6.33-1.25,13.56,6.05,7.94,13.27c-1.05,1.35-2.5,2.37-4.08,3.05c-3.79,1.65-2.9,7.59-1.21,11.56c2.37,5.58,4.74,11.16,7.11,16.73
		C401.54,172.46,401.95,173.41,402.34,174.3z M363.89,159.28c-3.1,1.43-6.4,2.51-9.24,4.41c-2.84,1.9-5.24,4.88-5.33,8.3
		c-0.04,1.45,0.34,2.88,0.72,4.29c1.52,5.65,3.05,11.33,5.26,16.73c1.28,3.13,4.84,4.68,8.06,3.65c9.24-2.92,18.16-6.88,26.52-11.79
		c0.68-0.4,1.39-0.83,1.8-1.5c0.77-1.26,0.28-2.88-0.23-4.27c-1.77-4.8-3.53-9.59-5.3-14.39c-1.21-3.29-2.63-6.84-5.67-8.59
		c-2.55-1.47-5.75-1.33-8.57-0.47S366.56,158.05,363.89,159.28 M380.06,243.93c7.69-3.51,15.18-7.29,22.13-12.13
		c1.58-1.1,3.23-2.37,3.83-4.2c0.46-1.41,0.22-2.95-0.07-4.41c-1.28-6.33-3.55-12.45-6.71-18.08c-0.75-1.33-1.59-2.67-2.89-3.47
		c-2.04-1.25-4.66-0.82-6.96-0.19c-6.69,1.84-12.99,5.1-18.35,9.51c-1.51,1.24-3.01,2.68-3.51,4.56c-0.58,2.15,0.24,4.39,1.05,6.46
		c2.64,6.75,5.24,13.51,7.96,20.23c0.36,0.89,0.86,1.91,1.81,2.09C378.93,244.43,379.52,244.18,380.06,243.93"/>
	<path class="st1" d="M30.85,183.29l2.65,8.85c0.55,1.7,1.22,3.37,2.14,4.89c4.4,7.29,9.05,5.57,13.25,3.91
		c4.22-1.66,9.15-5.53,7.07-9.56c-5.57-10.77,3.12-18.28,10.23-12.58c1.31,1.05,3.75,4.32,4.31,5.89c0.86,2.4,4.41,1.83,6.75,0.79
		c5.16-2.29,18.87-7.93,24.03-10.21c4.89-2.17,10.02-4.39,15.46-3.29c1.83,0.37,3.58,1.21,4.97,2.46
		c5.18,4.67,2.69,11.11-1.59,14.46c-3.03,2.37-6.82,3.51-10.51,4.6c-7.12,2.1-20.81,6.78-29.56,9.52c-1.84,0.58-2.82,2.57-2.17,4.38
		l4.14,11.62c0.76,2.14,3.09,3.16,5.17,2.24c7.51-3.29,6.44-3.54,14.32-6.96c4.88-2.12,10-4.29,15.4-3.07
		c1.79,0.4,3.49,1.27,4.82,2.55c4.92,4.73,2.27,10.93-2.01,14.05c-4.25,3.1-9.46,4.03-14.54,4.83c-4.16,0.65-11.57,0.74-12.99,5.73
		c-0.39,1.36-0.08,2.81,0.23,4.19c0.75,3.36,1.6,6.9,3.87,9.47c2.66,3,7.2,3.12,10.36,0.65c5.75-4.49,17.41,1.74,12.37,10.94
		c-1.84,3.36-5.39,5.47-9.21,5.73c-3.3,0.23-5,4.18-6.46,7.27c-1.52,3.19-5.64,6.35-8.14,3.85c-2.59-2.59-6.83-2.6-10.32-1.51
		c-3.49,1.08-6.68,3.06-10.23,3.94c-3.6,0.9-8,0.34-10.07-2.77c-2.21-3.31,0.5-7.95,4.45-7.55c5.72,0.58,11.46-3.38,13.56-8.77
		c2.18-5.58,0.79-12.17-2.78-16.98c-0.66-0.89-1.41-1.74-2.38-2.27c-3.29-1.79-7.15,0.79-10.13,3.05
		c-9.29,7.07-19.93,12.37-31.17,15.52c-3.58,1-7.46,1.78-10.92,0.24c-1.95-0.87-3.53-2.56-4.04-4.63c-0.74-3.03,1.07-5,2.96-6.61
		c2.9-2.48,8.72-4.99,12.24-6.38c1.64-0.65,2.51-2.44,2.01-4.13l-4.15-14.06c-0.79-2.66-3.71-4.09-6.28-3.03
		c-4.35,1.8-8.43,4.68-13.43,4.4c-2.94-0.17-5.75-1.91-6.57-4.75c-1.38-4.79,3.7-8.59,8.19-10.45c4.4-1.82,9.68-4.02,10.44-8.72
		c0.34-2.11-0.38-4.23-1.09-6.24c-2.1-5.94-2.31-6.68-4.41-12.62c-0.49-1.38-1.01-2.82-1.96-3.91c-1.4-1.61-4.93-1.34-6.79-0.29
		c-6.54,3.69-15.03,2.12-11.5-6.7c0.83-2.07,3.99-3.69,6.93-4.81c1.77-0.67,2.64-2.65,2.41-4.54c-0.23-1.89-1.04-3.78-0.63-5.64
		c1.03-4.68,8.37-4.4,11.66-0.91c1.91,2.03,4.3,4.76,6.8,3.52c6.33-3.14,10.44-3.14,12.08,1.88c1.17,3.59-1.31,5.72-5.48,6.91
		c-2.22,0.63-4.34,2.04-4.8,4.35C29.31,178.44,30.08,180.93,30.85,183.29 M61.85,235.11c2.57-1.17,5.14-2.34,7.72-3.51
		c1.04-0.47,2.22-1.15,2.3-2.28c0.04-0.55-0.2-1.07-0.44-1.57c-2.14-4.5-4.28-9.01-6.42-13.51c-0.58-1.21-1.2-2.48-2.29-3.25
		c-1.45-1.03-3.39-0.96-5.16-0.73c-2.85,0.37-5.65,1.05-8.35,2.02c-2.47,0.89-5.32,3.08-4.35,5.52c1.72,4.35,3.45,8.7,5.17,13.05
		c0.81,2.05,1.77,4.27,3.72,5.29C56.26,237.44,59.29,236.28,61.85,235.11z"/>
	<path class="st2" d="M343.58,251.38c0.88,15.33-7.7,31.61-22.02,36.95c-2.63,0.98-5.1,4.06-5.34,6.85c-0.24,2.84,0.6,5.63,1.3,8.39
		c1.89,7.45,2.8,15.14,2.73,22.82c-0.07,7.01-0.26,14.51-3.17,21.01c-3.61,8.05-13.58,6.26-17.22-0.99
		c-2.57-5.11-2.02-11.16-1.45-16.86c2.29-22.85,3.95-45.77,4.97-68.71c0.06-1.38-1.43-2.33-2.64-1.67c-3.13,1.71-5.31,5.23-6.3,8.77
		c-1.27,4.51-1.17,9.29-2.16,13.86c-2.89,13.37-16.08,23.72-29.75,23.37c-13.67-0.35-26.3-11.38-28.5-24.88
		c-0.82-5.01-0.33-10.19,1.06-15.08c3.14-11.02,11.38-20.84,22.28-24.36c10.69-3.45,23.64,0.08,30.07,9.24
		c1.36,1.93,4.18,2.47,6.11,1.11c1.69-1.19,2.65-3.14,3.53-5.01c4.6-9.8,10.15-20.89,21.85-22.01c3.73-0.36,7.51,0.53,10.79,2.32
		C338.9,231.5,343.01,241.52,343.58,251.38 M255.55,255.58c-4.77,7.07-7.15,16.92-4.59,25.21c1.47,4.76,5.23,9.31,10.2,9.67
		c4.47,0.32,8.44-2.74,11.54-5.98c2.79-2.91,5.33-6.21,6.49-10.06c0.29-0.96,0.41-2.18-0.39-2.79c-0.37-0.29-0.86-0.36-1.33-0.42
		c0,0-8.33-0.1-15.57-5.45C256.14,261.49,255.58,255.57,255.55,255.58 M315.28,275.76c5.63-4.6,9.5-11.29,10.69-18.46
		c1.19-7.17-0.32-14.75-4.16-20.92c-0.74-1.19-2.58-1.26-3.74-0.47c-1.16,0.79-1.79,2.15-2.25,3.47
		c-3.02,12.18-1.86,21.72-1.81,33.1C314.01,272.48,314.06,276.23,315.28,275.76 M271.09,252.51c-0.07,1.92,1.87,3.28,3.67,3.94
		c1.69,0.62,3.48,0.99,5.28,1.08c0.24-0.65,0.08-1.36-0.1-2.03c-0.6-2.17-1.66-4.44-3.69-5.42
		C274.22,249.1,271.17,250.26,271.09,252.51z"/>
	<path class="st2" d="M6.95,54.21c1.54-7.22,4.18-14.75,10.1-18.12c7.56-4.31,17.79-1.31,23.69,4.48
		c7.03,6.9,9.93,16.88,12.32,26.44c6.21,24.8,10.03,49.93,13.86,75.17c0.24,1.56,0.5,3.2,1.44,4.48c1,1.37,2.57,2.55,4.17,1.21
		c0.72-0.6,1.13-1.49,1.48-2.36c3.53-8.8,3.03-18.46,3.39-27.74c0.39-9.86,0.36-19.62-0.47-29.47c-0.33-3.97,0.66-8.02,3.21-11.08
		c5.91-7.1,14.3-2.64,17.43,3.56c2.35,4.66,2.53,10.06,2.99,15.26c1.07,12.02,3.94,24.9,8.82,35.98c1.35,3.07,3.51,6.33,7.38,5.43
		c6.5-1.51,8.24-14.28,9.02-19.61c1.19-8.09,1.01-16.31,0.91-24.46c-0.18-13.73,1.05-35.95,8.3-47.62
		c7.68-12.38,25.98-19.39,37.2-9.16c1.36,1.24,2.41,2.85,2.8,4.65c1.39,6.38-5.1,10.11-10.78,11.33
		c-9.06,1.94-16.39,4.12-17.48,14.43c-2.16,20.46,1.22,43.6-5.97,63.15c-3.46,9.3-11.08,18.55-21.23,20.91
		c-11.71,2.73-19.94-5.26-24.98-14.96c-1.23,3.89-1.44,8.28-2.67,12.16c-2.46,7.8-5.11,15.93-12.01,20.98
		c-3.02,2.21-6.75,3.45-10.47,3.03c-8.19-0.91-13.84-8.3-16.09-15.09c-5.4-16.31-14.66-88.12-20.62-103.1
		c-0.64-1.61-1.69-3.43-3.42-3.49c-2.43-0.09-3.33,3.13-3.43,5.56c-0.41,9.16-0.16,22.81-0.57,31.97
		c-0.28,6.31-0.91,13.37-5.68,17.5c-5.42,4.7-15.12,2.66-18.2-3.82c-1.92-4.06-1.36-8.8-0.69-13.24c1.3-8.61,3.25-17.05,4.66-25.61
		C5.82,60.36,6.29,57.31,6.95,54.21z"/>
	<path class="st2" d="M206.53,262.93c-0.03-1.14-1.03-2.02-2.16-1.85c-1.99,0.29-4.78,0.44-5.19,0.43
		c-4.12-0.07-8.17-1.27-11.77-3.24c-2.18-1.19-8.53-4.67-6.42-7.97c0.47-0.74,1.28-1.22,2.11-1.49c4.84-1.55,9.42,2,14.36-0.42
		c3.85-1.88,6.78-5.91,6.75-10.28c-0.02-4.02-2.14-7.7-3.21-11.58c-1.19-4.32-0.51-9.98,4.21-11.32c2.85-0.81,5.83,0.52,7.74,2.79
		c3.49,4.12,3.68,9.5,5.28,14.31c0.51,1.53,2.41,2.05,3.71,1.1c12.35-9.02,25.5-16.95,39.24-23.65c7.87-3.83,16.69-7.34,25.16-5.15
		c6.94,1.8,12.59,7.66,14.39,14.57c0.58,2.22-0.98,4.55-3.27,4.74c-2.74,0.23-6.03-0.97-8.83-1.8
		c-14.36-4.28-28.59,2.72-40.88,10.29c-9.38,5.78-28.12,17.55-27.12,27.85c1.55,15.91,1.05,43.85,20.76,49.01
		c1.79,0.47,3.41,1.55,4.55,3.01c4.84,6.18-1.06,12.64-6.9,15.07c-11.81,4.93-26.23-4.89-30.95-15.56
		c-3.31-7.5-2.96-15.91-2.15-23.88C206.8,279.7,206.72,271.2,206.53,262.93z"/>
	<path class="st2" d="M372.37,92.96c-1.53-3.14-6.34-3.11-9.09-0.96c-2.75,2.15-4.1,5.58-5.77,8.65
		c-4.2,7.68-10.99,17.28-25.13,15.93c7.38-6.34,18.75-12.47,13-28.91c-3.08-8.79-11.99-15.69-21.08-13.65
		c-3.11,0.7-5.89,2.47-8.21,4.65c-9.95,9.35-9.37,28.16,0.15,37.95c-10.88,1.72-19.33-16.82-19.33-16.82
		c-1.7-4.3-2.5-8.72-1.28-13.13c6.03-21.85,6.01-45.33-0.07-67.16c-1.62-5.82-3.83-11.79-8.36-15.78c-4.53-4-11.98-5.26-16.54-1.3
		c-3.04,2.64-4.12,6.85-4.85,10.81c-4.65,25.38-0.98,52.21,10.31,75.4c1.68,3.46-0.56,7.46-2.72,10.64
		c-4.92,7.24-10.55,15.01-19.01,17.27c12.57-24.17,12.08-54.66-1.26-78.42c-3.2-5.7-12.47-4.77-16.72,0.2
		c-4.25,4.97-4.82,12.03-4.97,18.57c-0.48,20.54,1.17,41.13,4.91,61.33c1.27,6.84-5.52,12.39-11.87,15.21
		c-2.92,1.3-6.16,2.41-9.27,1.66c-3.11-0.75-5.75-4.11-4.63-7.11c8.81-23.42,14.16-50.29,3.54-72.95
		c-2.34-5.01-6.09-10.12-11.55-10.92c-5.85-0.86-11.24,3.69-14.07,8.88c-5.85,10.76-4.02,23.88-2.04,35.96
		c1.72,10.46,3.43,20.91,5.15,31.37c1.12,6.82,2.24,13.72,1.61,20.6c-0.63,6.88-3.23,13.84-8.44,18.37
		c-0.41,0.36-0.84,0.7-1.34,0.91c-3.19,1.34-5.64-3.07-6.1-6.5c-0.69-5.13-0.8-10.34-0.32-15.5c0.5-5.4,1.64-10.88,0.56-16.19
		c-1.09-5.31-5.25-10.53-10.67-10.59c-5.04-0.05-9,4.14-12.09,8.12c-5.54,7.15-10.52,14.74-14.88,22.67
		c-3.5,6.36-6.68,13.54-5.27,20.65c1.35,6.79,7.19,12.46,14.03,13.58c6.83,1.13,14.19-2.36,17.65-8.36c1.4-2.44,5.06-0.98,7.58,0.27
		c6.88,3.44,15.57,2.96,22.03-1.23c0.52,6.26,1.43,12.5,2.71,18.65c1.26,6.07,2.99,12.26,6.88,17.09c3.89,4.83,10.43,8,16.38,6.28
		c6.29-1.82,10.14-8.54,10.67-15.07c0.53-6.53-1.57-12.95-3.65-19.16c-3.33-9.98-6.67-19.97-10-29.95
		c6.66,1.6,13.86-2.64,19.37-6.72c0.67,11.95,2.53,26.58,5.26,38.23c1.84,7.85,4.6,16.22,11.28,20.73c2.24,1.51,4.95,2.51,7.64,2.19
		c7.16-0.85,10.03-9.67,10.43-16.87c1.09-19.84-4.52-39.98-15.71-56.39c10.92-3.86,20.78-10.69,28.23-19.56
		c6.75,10.03,15.76,21.12,27.84,20.54c5.12-0.24,10.07-2.68,15.17-2.14c3.3,0.35,6.37,1.93,9.66,2.39
		c10.23,1.42,18.46-7.83,24.59-16.14c2.43-3.29,4.85-6.57,7.28-9.86C371.81,98.91,373.72,95.73,372.37,92.96z M158.92,156.99
		c-0.6,1.02-1.34,2.09-2.47,2.43c-1.56,0.47-3.24-0.72-3.84-2.22c-0.61-1.51-0.4-3.21-0.08-4.81c0.91-4.51,2.66-8.81,4.88-12.83
		c1.39-2.52,4.22-8.9,7.64-9.12C165.83,139.63,163.61,149.06,158.92,156.99z M204.49,111.87c0,0-7.93-34.76-4.24-46.51
		C203.93,53.61,208.08,87.26,204.49,111.87z M217.99,191.33c-2.85,9.88-11.14-16.16-9.79-36.22
		C208.2,155.11,220.84,181.45,217.99,191.33z M247.44,103.54c0,0-6.6-35.78-2.1-47.57C249.83,44.18,252.49,78.65,247.44,103.54z
		 M260.69,177.43c-2.99,10.59-10.91-17.52-9.27-39.07C251.42,138.36,263.68,166.84,260.69,177.43z M285.88,81.54
		c0,0-12.26-41.89-7.81-56.46C282.52,10.51,289.62,51.3,285.88,81.54z M330.06,93c-0.22,3.06-0.4,6.17-1.05,9.17
		c-0.17,0.78-0.46,1.67-1.22,1.92c-1.16,0.38-2.04-1.05-2.39-2.21c-1.11-3.66-1.88-7.81-0.69-11.55c0.58-1.82,3.76-6.92,5.17-2.8
		C330.45,89.19,330.18,91.27,330.06,93z"/>
	<path class="st2" d="M188.29,271.69c-6.97-11.86-18.91-19.79-30.47-27.26c-6.29-4.06-9.77-12.05-8.47-19.43
		c1.3-7.37,7.3-13.69,14.6-15.36c-4.73,6.15-3.06,16.19,3.42,20.47c6.48,4.28,16.37,1.87,20.17-4.9c3.8-6.77,0.68-16.47-6.35-19.76
		c-4.06-1.9-3.57-8.11-0.88-11.7c2.69-3.59,6.8-6.05,8.93-10c0.41-0.76,0.71-1.76,0.16-2.41c-0.47-0.56-1.33-0.57-2.06-0.45
		c-9.97,1.67-13.73,17.14-23.84,17.27c-11.08,0.15-22.03,6.08-27.77,15.55c-5.74,9.47-5.84,22.23,0.19,31.52
		c4.21,6.49,10.85,10.95,17.34,15.15c6.49,4.2,13.2,8.49,17.69,14.79c4.49,6.3,6.26,15.21,2.17,21.78
		c-1.75,2.81-4.42,4.97-7.34,6.54c-6.46,3.46-14.51,4.09-21.22,1.13c-1.63-0.72-3.42-2.45-2.5-3.97c3.59-5.95,6-12.97,4.82-19.82
		c-1.18-6.84-6.75-13.21-13.69-13.61c-6.69-0.38-12.84,4.95-14.74,11.37c-1.91,6.42-0.18,13.49,3.23,19.26
		c1.23,2.09-1.62,4.3-4.02,4.61c-2.41,0.31-5.4,0.33-6.48,2.5c-0.24,4.53,5.63,6.68,10.15,6.4c4.53-0.28,9.74-1.34,13.07,1.74
		c10.29,9.53,26.71,7.82,39.77,2.72c3.97-1.55,7.89-3.39,11.09-6.21C195.58,300.53,195.26,283.55,188.29,271.69z M172.85,211.72
		c0,0,10.2,8.21,3,10.19C170.94,223.25,171.65,216.56,172.85,211.72z M133.1,280.32c-0.28,3.41-0.95,6.78-1.94,10.05
		c-1.38-0.71-2.18-2.26-2.35-3.8c-0.24-2.18,0.53-4.32,1.28-6.32c0.29-0.78,1.53-3.08,2.64-1.82
		C133.17,278.92,133.16,279.66,133.1,280.32z"/>
</g>
</svg>
